Pretension2VF-Thin.ufo
<glyph name="exclam" format="2">
  <advance width="554"/>
  <unicode hex="0021"/>
  <outline>
    <contour>
      <point x="254" y="434" type="line"/>
      <point x="254" y="1490" type="line"/>
      <point x="300" y="1490" type="line"/>
      <point x="300" y="434" type="line"/>
    </contour>
    <contour>
      <point x="277" y="-9" type="qcurve" smooth="yes"/>
      <point x="255" y="-9"/>
      <point x="224" y="22"/>
      <point x="224" y="44" type="qcurve" smooth="yes"/>
      <point x="224" y="66"/>
      <point x="255" y="97"/>
      <point x="277" y="97" type="qcurve" smooth="yes"/>
      <point x="299" y="97"/>
      <point x="330" y="66"/>
      <point x="330" y="44" type="qcurve" smooth="yes"/>
      <point x="330" y="22"/>
      <point x="299" y="-9"/>
    </contour>
  </outline>
</glyph>
<glyph name="percent" format="2">
  <advance width="1718"/>
  <unicode hex="0025"/>
  <outline>
    <contour>
      <point x="186" y="1168" type="qcurve" smooth="yes"/>
      <point x="186" y="1214" type="line" smooth="yes"/>
      <point x="186" y="1302"/>
      <point x="251" y="1433"/>
      <point x="362" y="1506"/>
      <point x="431" y="1506" type="qcurve" smooth="yes"/>
      <point x="500" y="1506"/>
      <point x="610" y="1433"/>
      <point x="675" y="1302"/>
      <point x="675" y="1214" type="qcurve" smooth="yes"/>
      <point x="675" y="1168" type="line" smooth="yes"/>
      <point x="675" y="1082"/>
      <point x="610" y="951"/>
      <point x="500" y="878"/>
      <point x="431" y="878" type="qcurve" smooth="yes"/>
      <point x="362" y="878"/>
      <point x="251" y="951"/>
      <point x="186" y="1082"/>
    </contour>
    <contour>
      <point x="232" y="1214" type="qcurve" smooth="yes"/>
      <point x="232" y="1168" type="line" smooth="yes"/>
      <point x="232" y="1057"/>
      <point x="347" y="924"/>
      <point x="431" y="924" type="qcurve" smooth="yes"/>
      <point x="514" y="924"/>
      <point x="629" y="1057"/>
      <point x="629" y="1168" type="qcurve" smooth="yes"/>
      <point x="629" y="1214" type="line" smooth="yes"/>
      <point x="629" y="1326"/>
      <point x="514" y="1460"/>
      <point x="431" y="1460" type="qcurve" smooth="yes"/>
      <point x="347" y="1460"/>
      <point x="232" y="1326"/>
    </contour>
    <contour>
      <point x="1043" y="274" type="qcurve" smooth="yes"/>
      <point x="1043" y="320" type="line" smooth="yes"/>
      <point x="1043" y="408"/>
      <point x="1108" y="539"/>
      <point x="1219" y="612"/>
      <point x="1288" y="612" type="qcurve" smooth="yes"/>
      <point x="1357" y="612"/>
      <point x="1467" y="539"/>
      <point x="1532" y="408"/>
      <point x="1532" y="320" type="qcurve" smooth="yes"/>
      <point x="1532" y="274" type="line" smooth="yes"/>
      <point x="1532" y="188"/>
      <point x="1467" y="57"/>
      <point x="1357" y="-16"/>
      <point x="1288" y="-16" type="qcurve" smooth="yes"/>
      <point x="1219" y="-16"/>
      <point x="1108" y="57"/>
      <point x="1043" y="188"/>
    </contour>
    <contour>
      <point x="1089" y="320" type="qcurve" smooth="yes"/>
      <point x="1089" y="274" type="line" smooth="yes"/>
      <point x="1089" y="163"/>
      <point x="1204" y="30"/>
      <point x="1288" y="30" type="qcurve" smooth="yes"/>
      <point x="1371" y="30"/>
      <point x="1486" y="163"/>
      <point x="1486" y="274" type="qcurve" smooth="yes"/>
      <point x="1486" y="320" type="line" smooth="yes"/>
      <point x="1486" y="432"/>
      <point x="1371" y="566"/>
      <point x="1288" y="566" type="qcurve" smooth="yes"/>
      <point x="1204" y="566"/>
      <point x="1089" y="432"/>
    </contour>
    <contour>
      <point x="321" y="0" type="line"/>
      <point x="1341" y="1490" type="line"/>
      <point x="1397" y="1490" type="line"/>
      <point x="375" y="0" type="line"/>
    </contour>
  </outline>
</glyph>
<glyph name="parenleft" format="2">
  <advance width="646"/>
  <unicode hex="0028"/>
  <outline>
    <contour>
      <point x="238" y="650" type="qcurve"/>
      <point x="239" y="808"/>
      <point x="288" y="1124"/>
      <point x="384" y="1434"/>
      <point x="454" y="1582" type="qcurve"/>
      <point x="504" y="1582" type="line"/>
      <point x="432" y="1431"/>
      <point x="335" y="1120"/>
      <point x="286" y="806"/>
      <point x="286" y="650" type="qcurve" smooth="yes"/>
      <point x="286" y="493"/>
      <point x="335" y="179"/>
      <point x="432" y="-130"/>
      <point x="504" y="-280" type="qcurve"/>
      <point x="454" y="-280" type="line"/>
      <point x="349" y="-56"/>
      <point x="239" y="417"/>
    </contour>
  </outline>
</glyph>
<glyph name="parenright" format="2">
  <advance width="646"/>
  <unicode hex="0029"/>
  <outline>
    <contour>
      <point x="142" y="-279" type="line"/>
      <point x="214" y="-129"/>
      <point x="311" y="180"/>
      <point x="360" y="494"/>
      <point x="360" y="651" type="qcurve" smooth="yes"/>
      <point x="360" y="807"/>
      <point x="311" y="1121"/>
      <point x="215" y="1432"/>
      <point x="142" y="1583" type="qcurve"/>
      <point x="192" y="1583" type="line"/>
      <point x="262" y="1435"/>
      <point x="358" y="1125"/>
      <point x="408" y="809"/>
      <point x="408" y="651" type="qcurve" smooth="yes"/>
      <point x="408" y="418"/>
      <point x="297" y="-55"/>
      <point x="192" y="-279" type="qcurve"/>
    </contour>
  </outline>
</glyph>
<glyph name="period" format="2">
  <advance width="554"/>
  <unicode hex="002E"/>
  <outline>
    <contour>
      <point x="277" y="-9" type="qcurve" smooth="yes"/>
      <point x="255" y="-9"/>
      <point x="224" y="22"/>
      <point x="224" y="44" type="qcurve" smooth="yes"/>
      <point x="224" y="66"/>
      <point x="255" y="97"/>
      <point x="277" y="97" type="qcurve" smooth="yes"/>
      <point x="299" y="97"/>
      <point x="330" y="66"/>
      <point x="330" y="44" type="qcurve" smooth="yes"/>
      <point x="330" y="22"/>
      <point x="299" y="-9"/>
    </contour>
  </outline>
</glyph>
<glyph name="seven" format="2">
  <advance width="1112"/>
  <unicode hex="0037"/>
  <outline>
    <contour>
      <point x="227" y="0" type="line"/>
      <point x="931" y="1438" type="line"/>
      <point x="931" y="1444" type="line"/>
      <point x="120" y="1444" type="line"/>
      <point x="120" y="1490" type="line"/>
      <point x="984" y="1490" type="line"/>
      <point x="984" y="1442" type="line"/>
      <point x="276" y="0" type="line"/>
    </contour>
  </outline>
</glyph>
<glyph name="eight" format="2">
  <advance width="1222"/>
  <unicode hex="0038"/>
  <outline>
    <contour>
      <point x="610" y="-20" type="qcurve" smooth="yes"/>
      <point x="483" y="-20"/>
      <point x="273" y="89"/>
      <point x="148" y="272"/>
      <point x="148" y="384" type="qcurve" smooth="yes"/>
      <point x="148" y="473"/>
      <point x="229" y="632"/>
      <point x="371" y="747"/>
      <point x="462" y="768" type="qcurve"/>
      <point x="462" y="774" type="line"/>
      <point x="347" y="814"/>
      <point x="198" y="1009"/>
      <point x="198" y="1132" type="qcurve" smooth="yes"/>
      <point x="198" y="1238"/>
      <point x="309" y="1409"/>
      <point x="496" y="1510"/>
      <point x="610" y="1510" type="qcurve" smooth="yes"/>
      <point x="723" y="1510"/>
      <point x="911" y="1410"/>
      <point x="1024" y="1239"/>
      <point x="1024" y="1132" type="qcurve" smooth="yes"/>
      <point x="1024" y="1010"/>
      <point x="877" y="813"/>
      <point x="760" y="774" type="qcurve"/>
      <point x="760" y="768" type="line"/>
      <point x="851" y="748"/>
      <point x="993" y="633"/>
      <point x="1074" y="473"/>
      <point x="1074" y="384" type="qcurve" smooth="yes"/>
      <point x="1074" y="272"/>
      <point x="949" y="89"/>
      <point x="739" y="-20"/>
    </contour>
    <contour>
      <point x="610" y="26" type="qcurve" smooth="yes"/>
      <point x="727" y="26"/>
      <point x="915" y="124"/>
      <point x="1026" y="288"/>
      <point x="1026" y="386" type="qcurve" smooth="yes"/>
      <point x="1026" y="486"/>
      <point x="915" y="650"/>
      <point x="727" y="748"/>
      <point x="610" y="748" type="qcurve" smooth="yes"/>
      <point x="494" y="748"/>
      <point x="305" y="650"/>
      <point x="194" y="486"/>
      <point x="194" y="386" type="qcurve" smooth="yes"/>
      <point x="194" y="288"/>
      <point x="306" y="124"/>
      <point x="495" y="26"/>
    </contour>
    <contour>
      <point x="610" y="788" type="qcurve" smooth="yes"/>
      <point x="711" y="788"/>
      <point x="878" y="883"/>
      <point x="978" y="1039"/>
      <point x="978" y="1132" type="qcurve" smooth="yes"/>
      <point x="978" y="1225"/>
      <point x="878" y="1376"/>
      <point x="711" y="1464"/>
      <point x="610" y="1464" type="qcurve" smooth="yes"/>
      <point x="510" y="1464"/>
      <point x="343" y="1376"/>
      <point x="244" y="1225"/>
      <point x="244" y="1132" type="qcurve" smooth="yes"/>
      <point x="244" y="1039"/>
      <point x="343" y="883"/>
      <point x="510" y="788"/>
    </contour>
  </outline>
</glyph>
<glyph name="D" format="2">
  <advance width="1462"/>
  <unicode hex="0044"/>
  <anchor x="724" y="0" name="m.uni0326"/>
  <anchor x="663" y="1490" name="m.uni030F_1"/>
  <outline>
    <contour>
      <point x="622" y="0" type="qcurve" smooth="yes"/>
      <point x="256" y="0" type="line"/>
      <point x="256" y="46" type="line"/>
      <point x="622" y="46" type="line" smooth="yes"/>
      <point x="829" y="46"/>
      <point x="1118" y="214"/>
      <point x="1268" y="530"/>
      <point x="1268" y="750" type="qcurve" smooth="yes"/>
      <point x="1268" y="968"/>
      <point x="1125" y="1278"/>
      <point x="854" y="1444"/>
      <point x="660" y="1444" type="qcurve" smooth="yes"/>
      <point x="256" y="1444" type="line"/>
      <point x="256" y="1490" type="line"/>
      <point x="660" y="1490" type="line" smooth="yes"/>
      <point x="866" y="1490"/>
      <point x="1158" y="1313"/>
      <point x="1314" y="982"/>
      <point x="1314" y="750" type="qcurve" smooth="yes"/>
      <point x="1314" y="513"/>
      <point x="1151" y="177"/>
      <point x="841" y="0"/>
    </contour>
    <contour>
      <point x="278" y="1490" type="line"/>
      <point x="278" y="0" type="line"/>
      <point x="232" y="0" type="line"/>
      <point x="232" y="1490" type="line"/>
    </contour>
  </outline>
</glyph>
<glyph name="Q" format="2">
  <advance width="1530"/>
  <unicode hex="0051"/>
  <anchor x="742" y="0" name="m.uni0326"/>
  <anchor x="742" y="1490" name="m.uni030F_1"/>
  <anchor x="1374" y="744" name="m.uni0328_4"/>
  <outline>
    <contour>
      <point x="824" y="466" type="line"/>
      <point x="882" y="466" type="line"/>
      <point x="1122" y="146" type="line"/>
      <point x="1132" y="134" type="line"/>
      <point x="1338" y="-140" type="line"/>
      <point x="1280" y="-140" type="line"/>
      <point x="1092" y="110" type="line"/>
      <point x="1082" y="122" type="line"/>
    </contour>
    <contour>
      <point x="766" y="-20" type="qcurve" smooth="yes"/>
      <point x="582" y="-20"/>
      <point x="303" y="173"/>
      <point x="148" y="518"/>
      <point x="148" y="744" type="qcurve" smooth="yes"/>
      <point x="148" y="972"/>
      <point x="304" y="1317"/>
      <point x="582" y="1510"/>
      <point x="766" y="1510" type="qcurve" smooth="yes"/>
      <point x="949" y="1510"/>
      <point x="1227" y="1317"/>
      <point x="1382" y="972"/>
      <point x="1382" y="744" type="qcurve" smooth="yes"/>
      <point x="1382" y="517"/>
      <point x="1227" y="172"/>
      <point x="949" y="-20"/>
    </contour>
    <contour>
      <point x="766" y="26" type="qcurve" smooth="yes"/>
      <point x="935" y="26"/>
      <point x="1192" y="207"/>
      <point x="1336" y="531"/>
      <point x="1336" y="744" type="qcurve" smooth="yes"/>
      <point x="1336" y="958"/>
      <point x="1192" y="1282"/>
      <point x="935" y="1464"/>
      <point x="766" y="1464" type="qcurve" smooth="yes"/>
      <point x="597" y="1464"/>
      <point x="339" y="1284"/>
      <point x="194" y="960"/>
      <point x="194" y="744" type="qcurve" smooth="yes"/>
      <point x="194" y="532"/>
      <point x="337" y="208"/>
      <point x="595" y="26"/>
    </contour>
  </outline>
</glyph>
<glyph name="U" format="2">
  <advance width="1472"/>
  <unicode hex="0055"/>
  <anchor x="755" y="0" name="m.uni0326"/>
  <anchor x="755" y="1490" name="m.uni030F_1"/>
  <anchor x="1374" y="563" name="m.uni0328_4"/>
  <outline>
    <contour>
      <point x="736" y="-22" type="qcurve" smooth="yes"/>
      <point x="584" y="-22"/>
      <point x="341" y="115"/>
      <point x="200" y="353"/>
      <point x="200" y="504" type="qcurve" smooth="yes"/>
      <point x="200" y="1490" type="line"/>
      <point x="246" y="1490" type="line"/>
      <point x="246" y="504" type="line" smooth="yes"/>
      <point x="246" y="366"/>
      <point x="374" y="149"/>
      <point x="596" y="24"/>
      <point x="736" y="24" type="qcurve" smooth="yes"/>
      <point x="877" y="24"/>
      <point x="1098" y="149"/>
      <point x="1226" y="366"/>
      <point x="1226" y="504" type="qcurve" smooth="yes"/>
      <point x="1226" y="1490" type="line"/>
      <point x="1272" y="1490" type="line"/>
      <point x="1272" y="504" type="line" smooth="yes"/>
      <point x="1272" y="353"/>
      <point x="1132" y="115"/>
      <point x="889" y="-22"/>
    </contour>
  </outline>
</glyph>
<glyph name="c" format="2">
  <advance width="1095"/>
  <unicode hex="0063"/>
  <anchor x="739" y="0" name="m.uni0326"/>
  <anchor x="739" y="1242" name="m.uni030F_1"/>
  <anchor x="739" y="0" name="m.uni0327_3"/>
  <outline>
    <contour>
      <point x="594" y="-16" type="qcurve" smooth="yes"/>
      <point x="462" y="-16"/>
      <point x="252" y="134"/>
      <point x="130" y="394"/>
      <point x="130" y="559" type="qcurve" smooth="yes"/>
      <point x="130" y="724"/>
      <point x="252" y="984"/>
      <point x="462" y="1134"/>
      <point x="594" y="1134" type="qcurve" smooth="yes"/>
      <point x="687" y="1134"/>
      <point x="825" y="1068"/>
      <point x="917" y="979"/>
      <point x="966" y="906"/>
      <point x="970" y="899" type="qcurve"/>
      <point x="930" y="876" type="line"/>
      <point x="926" y="883"/>
      <point x="882" y="950"/>
      <point x="799" y="1029"/>
      <point x="677" y="1088"/>
      <point x="594" y="1088" type="qcurve" smooth="yes"/>
      <point x="476" y="1088"/>
      <point x="287" y="951"/>
      <point x="176" y="713"/>
      <point x="176" y="559" type="qcurve" smooth="yes"/>
      <point x="176" y="405"/>
      <point x="287" y="166"/>
      <point x="476" y="30"/>
      <point x="594" y="30" type="qcurve" smooth="yes"/>
      <point x="677" y="30"/>
      <point x="802" y="89"/>
      <point x="886" y="169"/>
      <point x="931" y="236"/>
      <point x="935" y="242" type="qcurve"/>
      <point x="975" y="220" type="line"/>
      <point x="971" y="213"/>
      <point x="921" y="140"/>
      <point x="827" y="51"/>
      <point x="687" y="-16"/>
    </contour>
  </outline>
</glyph>
<glyph name="l.ss02" format="2">
  <advance width="472"/>
  <unicode hex="006C"/>
  <unicode hex="E050"/>
  <anchor x="431" y="0" name="m.uni0326"/>
  <anchor x="371" y="1490" name="m.uni030F_1"/>
  <outline>
    <contour>
      <point x="424" y="-2" type="qcurve"/>
      <point x="324" y="-24"/>
      <point x="198" y="59"/>
      <point x="198" y="175" type="qcurve" smooth="yes"/>
      <point x="198" y="1490" type="line"/>
      <point x="244" y="1490" type="line"/>
      <point x="244" y="175" type="line" smooth="yes"/>
      <point x="244" y="77"/>
      <point x="343" y="26"/>
      <point x="422" y="45" type="qcurve"/>
      <point x="428" y="47"/>
      <point x="424" y="46"/>
      <point x="430" y="47" type="qcurve"/>
      <point x="442" y="3" type="line"/>
      <point x="438" y="2"/>
      <point x="429" y="0"/>
    </contour>
  </outline>
</glyph>
<glyph name="v" format="2">
  <advance width="1114"/>
  <unicode hex="0076"/>
  <anchor x="786" y="0" name="m.uni0326"/>
  <anchor x="786" y="1242" name="m.uni030F_1"/>
  <outline>
    <contour>
      <point x="527" y="0" type="line"/>
      <point x="100" y="1118" type="line"/>
      <point x="148" y="1118" type="line"/>
      <point x="447" y="336" type="line" smooth="yes"/>
      <point x="476" y="260"/>
      <point x="532" y="106"/>
      <point x="563" y="30" type="qcurve"/>
      <point x="551" y="30" type="line"/>
      <point x="582" y="106"/>
      <point x="638" y="260"/>
      <point x="667" y="336" type="qcurve" smooth="yes"/>
      <point x="966" y="1118" type="line"/>
      <point x="1014" y="1118" type="line"/>
      <point x="587" y="0" type="line"/>
    </contour>
  </outline>
</glyph>
<glyph name="braceright" format="2">
  <advance width="810"/>
  <unicode hex="007D"/>
  <outline>
    <contour>
      <point x="638" y="629" type="line"/>
      <point x="565" y="629"/>
      <point x="465" y="657"/>
      <point x="404" y="718"/>
      <point x="376" y="817"/>
      <point x="376" y="889" type="qcurve" smooth="yes"/>
      <point x="376" y="1271" type="line" smooth="yes"/>
      <point x="376" y="1411"/>
      <point x="272" y="1536"/>
      <point x="158" y="1536" type="qcurve"/>
      <point x="158" y="1582" type="line"/>
      <point x="226" y="1582"/>
      <point x="325" y="1544"/>
      <point x="390" y="1467"/>
      <point x="422" y="1350"/>
      <point x="422" y="1271" type="qcurve" smooth="yes"/>
      <point x="422" y="889" type="line" smooth="yes"/>
      <point x="422" y="765"/>
      <point x="512" y="675"/>
      <point x="638" y="675" type="qcurve"/>
    </contour>
    <contour>
      <point x="158" y="-280" type="qcurve"/>
      <point x="158" y="-234" type="line"/>
      <point x="272" y="-234"/>
      <point x="376" y="-108"/>
      <point x="376" y="31" type="qcurve" smooth="yes"/>
      <point x="376" y="413" type="line" smooth="yes"/>
      <point x="376" y="485"/>
      <point x="404" y="585"/>
      <point x="465" y="647"/>
      <point x="565" y="675"/>
      <point x="638" y="675" type="qcurve"/>
      <point x="638" y="629" type="line"/>
      <point x="512" y="629"/>
      <point x="422" y="538"/>
      <point x="422" y="413" type="qcurve" smooth="yes"/>
      <point x="422" y="31" type="line" smooth="yes"/>
      <point x="422" y="-48"/>
      <point x="390" y="-165"/>
      <point x="325" y="-242"/>
      <point x="226" y="-280"/>
    </contour>
    <contour>
      <point x="638" y="629" type="line"/>
      <point x="482" y="629" type="line"/>
      <point x="482" y="675" type="line"/>
      <point x="638" y="675" type="line"/>
    </contour>
  </outline>
</glyph>
<glyph name="currency" format="2">
  <advance width="1394"/>
  <unicode hex="00A4"/>
  <outline>
    <contour>
      <point x="694" y="-20" type="qcurve" smooth="yes"/>
      <point x="572" y="-20"/>
      <point x="362" y="75"/>
      <point x="204" y="246"/>
      <point x="116" y="475"/>
      <point x="116" y="608" type="qcurve" smooth="yes"/>
      <point x="116" y="741"/>
      <point x="204" y="969"/>
      <point x="362" y="1139"/>
      <point x="572" y="1234"/>
      <point x="694" y="1234" type="qcurve" smooth="yes"/>
      <point x="817" y="1234"/>
      <point x="1029" y="1139"/>
      <point x="1186" y="969"/>
      <point x="1274" y="741"/>
      <point x="1274" y="608" type="qcurve" smooth="yes"/>
      <point x="1274" y="475"/>
      <point x="1186" y="246"/>
      <point x="1029" y="75"/>
      <point x="817" y="-20"/>
    </contour>
    <contour>
      <point x="694" y="26" type="qcurve" smooth="yes"/>
      <point x="845" y="26"/>
      <point x="1086" y="180"/>
      <point x="1227" y="444"/>
      <point x="1228" y="608" type="qcurve"/>
      <point x="1228" y="773"/>
      <point x="1086" y="1035"/>
      <point x="844" y="1186"/>
      <point x="694" y="1186" type="qcurve" smooth="yes"/>
      <point x="546" y="1186"/>
      <point x="304" y="1035"/>
      <point x="162" y="773"/>
      <point x="162" y="608" type="qcurve" smooth="yes"/>
      <point x="162" y="444"/>
      <point x="304" y="180"/>
      <point x="545" y="26"/>
    </contour>
    <contour>
      <point x="1110" y="1004" type="line"/>
      <point x="1080" y="1038" type="line"/>
      <point x="1254" y="1218" type="line"/>
      <point x="1284" y="1184" type="line"/>
    </contour>
    <contour>
      <point x="1254" y="0" type="line"/>
      <point x="1080" y="180" type="line"/>
      <point x="1110" y="214" type="line"/>
      <point x="1284" y="34" type="line"/>
    </contour>
    <contour>
      <point x="136" y="0" type="line"/>
      <point x="104" y="34" type="line"/>
      <point x="280" y="214" type="line"/>
      <point x="310" y="180" type="line"/>
    </contour>
    <contour>
      <point x="280" y="1004" type="line"/>
      <point x="104" y="1184" type="line"/>
      <point x="136" y="1218" type="line"/>
      <point x="310" y="1038" type="line"/>
    </contour>
  </outline>
</glyph>
<glyph name="section" format="2">
  <advance width="1086"/>
  <unicode hex="00A7"/>
  <outline>
    <contour>
      <point x="866" y="1190" type="qcurve"/>
      <point x="820" y="1190" type="line"/>
      <point x="814" y="1303"/>
      <point x="671" y="1464"/>
      <point x="544" y="1464" type="qcurve" smooth="yes"/>
      <point x="461" y="1464"/>
      <point x="337" y="1392"/>
      <point x="268" y="1271"/>
      <point x="268" y="1198" type="qcurve" smooth="yes"/>
      <point x="268" y="1127"/>
      <point x="330" y="1033"/>
      <point x="433" y="962"/>
      <point x="494" y="926" type="qcurve" smooth="yes"/>
      <point x="616" y="852" type="line" smooth="yes"/>
      <point x="676" y="816"/>
      <point x="795" y="744"/>
      <point x="893" y="662"/>
      <point x="952" y="562"/>
      <point x="952" y="498" type="qcurve" smooth="yes"/>
      <point x="952" y="433"/>
      <point x="882" y="331"/>
      <point x="766" y="274"/>
      <point x="696" y="274" type="qcurve"/>
      <point x="696" y="270" type="line"/>
      <point x="813" y="192"/>
      <point x="894" y="72"/>
      <point x="894" y="0" type="qcurve" smooth="yes"/>
      <point x="894" y="-93"/>
      <point x="803" y="-228"/>
      <point x="644" y="-302"/>
      <point x="542" y="-302" type="qcurve" smooth="yes"/>
      <point x="440" y="-302"/>
      <point x="279" y="-221"/>
      <point x="184" y="-74"/>
      <point x="178" y="24" type="qcurve"/>
      <point x="224" y="24" type="line"/>
      <point x="233" y="-101"/>
      <point x="404" y="-256"/>
      <point x="542" y="-256" type="qcurve" smooth="yes"/>
      <point x="670" y="-256"/>
      <point x="846" y="-120"/>
      <point x="846" y="0" type="qcurve" smooth="yes"/>
      <point x="846" y="48"/>
      <point x="807" y="128"/>
      <point x="701" y="216"/>
      <point x="602" y="274" type="qcurve" smooth="yes"/>
      <point x="478" y="346" type="line" smooth="yes"/>
      <point x="384" y="401"/>
      <point x="253" y="490"/>
      <point x="171" y="571"/>
      <point x="134" y="655"/>
      <point x="134" y="704" type="qcurve" smooth="yes"/>
      <point x="134" y="771"/>
      <point x="195" y="879"/>
      <point x="307" y="939"/>
      <point x="384" y="934" type="qcurve"/>
      <point x="384" y="940" type="line"/>
      <point x="308" y="992"/>
      <point x="222" y="1111"/>
      <point x="222" y="1198" type="qcurve" smooth="yes"/>
      <point x="222" y="1284"/>
      <point x="304" y="1426"/>
      <point x="450" y="1510"/>
      <point x="544" y="1510" type="qcurve" smooth="yes"/>
      <point x="639" y="1510"/>
      <point x="779" y="1428"/>
      <point x="861" y="1283"/>
    </contour>
    <contour>
      <point x="904" y="498" type="qcurve"/>
      <point x="905" y="569"/>
      <point x="812" y="677"/>
      <point x="671" y="766"/>
      <point x="600" y="808" type="qcurve" smooth="yes"/>
      <point x="448" y="898" type="line"/>
      <point x="357" y="905"/>
      <point x="238" y="857"/>
      <point x="180" y="767"/>
      <point x="180" y="710" type="qcurve" smooth="yes"/>
      <point x="180" y="621"/>
      <point x="331" y="485"/>
      <point x="494" y="390" type="qcurve" smooth="yes"/>
      <point x="626" y="314" type="line"/>
      <point x="699" y="309"/>
      <point x="826" y="347"/>
      <point x="905" y="433"/>
    </contour>
  </outline>
</glyph>
<glyph name="ordfeminine" format="2">
  <advance width="738"/>
  <unicode hex="00AA"/>
  <outline>
    <contour>
      <point x="562" y="862" type="qcurve"/>
      <point x="562" y="1202" type="line"/>
      <point x="561" y="1321"/>
      <point x="474" y="1432"/>
      <point x="382" y="1432" type="qcurve" smooth="yes"/>
      <point x="282" y="1432"/>
      <point x="172" y="1336"/>
      <point x="164" y="1244" type="qcurve"/>
      <point x="118" y="1248" type="line"/>
      <point x="123" y="1353"/>
      <point x="265" y="1478"/>
      <point x="382" y="1478" type="qcurve" smooth="yes"/>
      <point x="498" y="1478"/>
      <point x="609" y="1344"/>
      <point x="610" y="1202" type="qcurve"/>
      <point x="610" y="888" type="line"/>
      <point x="609" y="835"/>
      <point x="620" y="748"/>
      <point x="632" y="710" type="qcurve"/>
      <point x="584" y="710" type="line"/>
      <point x="572" y="744"/>
      <point x="561" y="823"/>
    </contour>
    <contour>
      <point x="572" y="1126" type="line"/>
      <point x="572" y="1082" type="line"/>
      <point x="400" y="1082" type="line" smooth="yes"/>
      <point x="277" y="1082"/>
      <point x="152" y="993"/>
      <point x="152" y="904" type="qcurve" smooth="yes"/>
      <point x="152" y="829"/>
      <point x="242" y="740"/>
      <point x="318" y="738" type="qcurve"/>
      <point x="362" y="738"/>
      <point x="448" y="764"/>
      <point x="530" y="816"/>
      <point x="568" y="854" type="qcurve"/>
      <point x="584" y="824" type="line"/>
      <point x="509" y="753"/>
      <point x="386" y="692"/>
      <point x="318" y="692" type="qcurve" smooth="yes"/>
      <point x="222" y="692"/>
      <point x="104" y="809"/>
      <point x="104" y="904" type="qcurve"/>
      <point x="106" y="1013"/>
      <point x="256" y="1126"/>
      <point x="400" y="1126" type="qcurve" smooth="yes"/>
    </contour>
  </outline>
</glyph>
<glyph name="logicalnot" format="2">
  <advance width="1024"/>
  <unicode hex="00AC"/>
  <outline>
    <contour>
      <point x="920" y="806" type="line"/>
      <point x="920" y="760" type="line"/>
      <point x="108" y="760" type="line"/>
      <point x="108" y="806" type="line"/>
    </contour>
    <contour>
      <point x="920" y="786" type="line"/>
      <point x="920" y="376" type="line"/>
      <point x="872" y="376" type="line"/>
      <point x="872" y="786" type="line"/>
    </contour>
  </outline>
</glyph>
<glyph name="registered" format="2">
  <advance width="1374"/>
  <unicode hex="00AE"/>
  <outline>
    <contour>
      <point x="502" y="666" type="line"/>
      <point x="502" y="1202" type="line"/>
      <point x="732" y="1202" type="line"/>
      <point x="787" y="1203"/>
      <point x="864" y="1162"/>
      <point x="904" y="1089"/>
      <point x="904" y="1042" type="qcurve" smooth="yes"/>
      <point x="904" y="996"/>
      <point x="864" y="923"/>
      <point x="787" y="880"/>
      <point x="732" y="880" type="qcurve" smooth="yes"/>
      <point x="526" y="880" type="line"/>
      <point x="526" y="926" type="line"/>
      <point x="730" y="926" type="line"/>
      <point x="794" y="927"/>
      <point x="856" y="990"/>
      <point x="856" y="1042" type="qcurve" smooth="yes"/>
      <point x="856" y="1096"/>
      <point x="794" y="1156"/>
      <point x="730" y="1156" type="qcurve" smooth="yes"/>
      <point x="548" y="1156" type="line"/>
      <point x="548" y="666" type="line"/>
    </contour>
    <contour>
      <point x="792" y="908" type="line"/>
      <point x="926" y="666" type="line"/>
      <point x="872" y="666" type="line"/>
      <point x="742" y="908" type="line"/>
    </contour>
    <contour>
      <point x="686" y="346" type="qcurve" smooth="yes"/>
      <point x="566" y="346"/>
      <point x="355" y="437"/>
      <point x="195" y="597"/>
      <point x="104" y="808"/>
      <point x="104" y="928" type="qcurve" smooth="yes"/>
      <point x="104" y="1048"/>
      <point x="195" y="1259"/>
      <point x="355" y="1419"/>
      <point x="566" y="1510"/>
      <point x="686" y="1510" type="qcurve" smooth="yes"/>
      <point x="807" y="1510"/>
      <point x="1018" y="1419"/>
      <point x="1178" y="1259"/>
      <point x="1268" y="1048"/>
      <point x="1268" y="928" type="qcurve" smooth="yes"/>
      <point x="1268" y="808"/>
      <point x="1178" y="597"/>
      <point x="1018" y="437"/>
      <point x="807" y="346"/>
    </contour>
    <contour>
      <point x="686" y="392" type="qcurve"/>
      <point x="835" y="393"/>
      <point x="1078" y="537"/>
      <point x="1222" y="780"/>
      <point x="1222" y="928" type="qcurve" smooth="yes"/>
      <point x="1222" y="1076"/>
      <point x="1078" y="1319"/>
      <point x="835" y="1464"/>
      <point x="686" y="1464" type="qcurve" smooth="yes"/>
      <point x="539" y="1464"/>
      <point x="296" y="1319"/>
      <point x="152" y="1076"/>
      <point x="152" y="928" type="qcurve" smooth="yes"/>
      <point x="152" y="780"/>
      <point x="296" y="537"/>
      <point x="539" y="393"/>
    </contour>
  </outline>
</glyph>
<glyph name="degree" format="2">
  <advance width="930"/>
  <unicode hex="00B0"/>
  <outline>
    <contour>
      <point x="466" y="904" type="qcurve"/>
      <point x="382" y="905"/>
      <point x="244" y="986"/>
      <point x="162" y="1124"/>
      <point x="162" y="1208" type="qcurve" smooth="yes"/>
      <point x="162" y="1292"/>
      <point x="244" y="1429"/>
      <point x="382" y="1510"/>
      <point x="466" y="1510" type="qcurve" smooth="yes"/>
      <point x="550" y="1510"/>
      <point x="687" y="1429"/>
      <point x="768" y="1292"/>
      <point x="768" y="1208" type="qcurve" smooth="yes"/>
      <point x="768" y="1124"/>
      <point x="687" y="986"/>
      <point x="550" y="905"/>
    </contour>
    <contour>
      <point x="466" y="952" type="qcurve" smooth="yes"/>
      <point x="537" y="952"/>
      <point x="653" y="1020"/>
      <point x="722" y="1137"/>
      <point x="722" y="1208" type="qcurve" smooth="yes"/>
      <point x="722" y="1279"/>
      <point x="653" y="1395"/>
      <point x="537" y="1464"/>
      <point x="466" y="1464" type="qcurve" smooth="yes"/>
      <point x="395" y="1464"/>
      <point x="279" y="1395"/>
      <point x="210" y="1279"/>
      <point x="210" y="1208" type="qcurve" smooth="yes"/>
      <point x="210" y="1137"/>
      <point x="279" y="1020"/>
      <point x="395" y="952"/>
    </contour>
  </outline>
</glyph>
<glyph name="three.sups" format="2">
  <advance width="840"/>
  <unicode hex="00B3"/>
  <outline>
    <contour>
      <point x="424" y="734" type="qcurve" smooth="yes"/>
      <point x="339" y="734"/>
      <point x="202" y="794"/>
      <point x="122" y="900"/>
      <point x="122" y="968" type="qcurve"/>
      <point x="168" y="968" type="line"/>
      <point x="169" y="883"/>
      <point x="318" y="776"/>
      <point x="424" y="776" type="qcurve" smooth="yes"/>
      <point x="538" y="776"/>
      <point x="680" y="895"/>
      <point x="680" y="980" type="qcurve" smooth="yes"/>
      <point x="680" y="1070"/>
      <point x="522" y="1184"/>
      <point x="396" y="1184" type="qcurve" smooth="yes"/>
      <point x="370" y="1184" type="line"/>
      <point x="370" y="1228" type="line"/>
      <point x="396" y="1228" type="line" smooth="yes"/>
      <point x="503" y="1228"/>
      <point x="648" y="1330"/>
      <point x="648" y="1420" type="qcurve" smooth="yes"/>
      <point x="648" y="1500"/>
      <point x="523" y="1608"/>
      <point x="422" y="1608" type="qcurve" smooth="yes"/>
      <point x="324" y="1608"/>
      <point x="192" y="1501"/>
      <point x="190" y="1414" type="qcurve"/>
      <point x="146" y="1414" type="line"/>
      <point x="146" y="1484"/>
      <point x="218" y="1590"/>
      <point x="344" y="1650"/>
      <point x="422" y="1650" type="qcurve" smooth="yes"/>
      <point x="502" y="1650"/>
      <point x="626" y="1590"/>
      <point x="696" y="1486"/>
      <point x="696" y="1420" type="qcurve" smooth="yes"/>
      <point x="696" y="1341"/>
      <point x="596" y="1230"/>
      <point x="514" y="1210" type="qcurve"/>
      <point x="514" y="1204" type="line"/>
      <point x="611" y="1185"/>
      <point x="724" y="1063"/>
      <point x="724" y="980" type="qcurve" smooth="yes"/>
      <point x="724" y="911"/>
      <point x="647" y="799"/>
      <point x="512" y="734"/>
    </contour>
  </outline>
</glyph>
<glyph name="uni00B5" format="2">
  <advance width="1200"/>
  <unicode hex="00B5"/>
  <outline>
    <contour>
      <point x="198" y="-418" type="line"/>
      <point x="198" y="1118" type="line"/>
      <point x="244" y="1118" type="line"/>
      <point x="244" y="368" type="line" smooth="yes"/>
      <point x="244" y="272"/>
      <point x="336" y="119"/>
      <point x="497" y="30"/>
      <point x="598" y="30" type="qcurve" smooth="yes"/>
      <point x="700" y="30"/>
      <point x="860" y="119"/>
      <point x="952" y="272"/>
      <point x="952" y="368" type="qcurve" smooth="yes"/>
      <point x="952" y="1118" type="line"/>
      <point x="998" y="1118" type="line"/>
      <point x="998" y="198" type="line" smooth="yes"/>
      <point x="998" y="116"/>
      <point x="1064" y="46"/>
      <point x="1136" y="46" type="qcurve" smooth="yes"/>
      <point x="1160" y="46" type="line"/>
      <point x="1160" y="0" type="line"/>
      <point x="1136" y="0" type="line" smooth="yes"/>
      <point x="1044" y="0"/>
      <point x="952" y="96"/>
      <point x="952" y="198" type="qcurve" smooth="yes"/>
      <point x="952" y="368" type="line"/>
      <point x="988" y="368" type="line"/>
      <point x="988" y="262"/>
      <point x="914" y="115"/>
      <point x="796" y="25"/>
      <point x="660" y="-16"/>
      <point x="598" y="-16" type="qcurve" smooth="yes"/>
      <point x="536" y="-16"/>
      <point x="400" y="25"/>
      <point x="282" y="115"/>
      <point x="208" y="262"/>
      <point x="208" y="368" type="qcurve"/>
      <point x="244" y="368" type="line"/>
      <point x="244" y="-418" type="line"/>
    </contour>
  </outline>
</glyph>
<glyph name="one.sups" format="2">
  <advance width="558"/>
  <unicode hex="00B9"/>
  <outline>
    <contour>
      <point x="308" y="744" type="line"/>
      <point x="308" y="1588" type="line"/>
      <point x="300" y="1588" type="line"/>
      <point x="92" y="1450" type="line"/>
      <point x="92" y="1506" type="line"/>
      <point x="290" y="1638" type="line"/>
      <point x="354" y="1638" type="line"/>
      <point x="354" y="744" type="line"/>
    </contour>
  </outline>
</glyph>
<glyph name="ordmasculine" format="2">
  <advance width="800"/>
  <unicode hex="00BA"/>
  <outline>
    <contour>
      <point x="88" y="1046" type="qcurve"/>
      <point x="88" y="1130" type="line" smooth="yes"/>
      <point x="88" y="1240"/>
      <point x="162" y="1396"/>
      <point x="303" y="1478"/>
      <point x="402" y="1478" type="qcurve" smooth="yes"/>
      <point x="549" y="1478"/>
      <point x="712" y="1294"/>
      <point x="712" y="1130" type="qcurve" smooth="yes"/>
      <point x="712" y="1046" type="line"/>
      <point x="713" y="879"/>
      <point x="549" y="696"/>
      <point x="398" y="696" type="qcurve" smooth="yes"/>
      <point x="252" y="696"/>
      <point x="87" y="880"/>
    </contour>
    <contour>
      <point x="130" y="1130" type="qcurve"/>
      <point x="130" y="1046" type="line"/>
      <point x="131" y="903"/>
      <point x="273" y="740"/>
      <point x="398" y="738" type="qcurve"/>
      <point x="526" y="738"/>
      <point x="670" y="901"/>
      <point x="670" y="1046" type="qcurve" smooth="yes"/>
      <point x="670" y="1130" type="line"/>
      <point x="669" y="1272"/>
      <point x="527" y="1434"/>
      <point x="402" y="1434" type="qcurve" smooth="yes"/>
      <point x="275" y="1434"/>
      <point x="131" y="1273"/>
    </contour>
  </outline>
</glyph>
<glyph name="germandbls" format="2">
  <advance width="1178"/>
  <unicode hex="00DF"/>
  <outline>
    <contour>
      <point x="232" y="0" type="line"/>
      <point x="232" y="1152" type="line" smooth="yes"/>
      <point x="232" y="1263"/>
      <point x="320" y="1423"/>
      <point x="481" y="1510"/>
      <point x="592" y="1510" type="qcurve" smooth="yes"/>
      <point x="703" y="1510"/>
      <point x="865" y="1423"/>
      <point x="952" y="1263"/>
      <point x="952" y="1152" type="qcurve" smooth="yes"/>
      <point x="952" y="1008"/>
      <point x="809" y="811"/>
      <point x="672" y="775" type="qcurve"/>
      <point x="672" y="771" type="line"/>
      <point x="829" y="746"/>
      <point x="1020" y="539"/>
      <point x="1020" y="386" type="qcurve" smooth="yes"/>
      <point x="1020" y="271"/>
      <point x="912" y="97"/>
      <point x="717" y="0"/>
      <point x="588" y="0" type="qcurve" smooth="yes"/>
      <point x="486" y="0" type="line"/>
      <point x="486" y="46" type="line"/>
      <point x="588" y="46" type="line" smooth="yes"/>
      <point x="762" y="46"/>
      <point x="974" y="233"/>
      <point x="974" y="386" type="qcurve" smooth="yes"/>
      <point x="974" y="551"/>
      <point x="726" y="749"/>
      <point x="514" y="749" type="qcurve" smooth="yes"/>
      <point x="492" y="749" type="line"/>
      <point x="492" y="791" type="line"/>
      <point x="514" y="791" type="line" smooth="yes"/>
      <point x="636" y="791"/>
      <point x="812" y="878"/>
      <point x="906" y="1040"/>
      <point x="906" y="1152" type="qcurve" smooth="yes"/>
      <point x="906" y="1299"/>
      <point x="740" y="1464"/>
      <point x="592" y="1464" type="qcurve" smooth="yes"/>
      <point x="444" y="1464"/>
      <point x="278" y="1299"/>
      <point x="278" y="1152" type="qcurve" smooth="yes"/>
      <point x="278" y="0" type="line"/>
    </contour>
  </outline>
</glyph>
<glyph name="ae" format="2">
  <advance width="1874"/>
  <unicode hex="00E6"/>
  <anchor x="1065" y="1242" name="m.uni030F_1"/>
  <outline>
    <contour>
      <point x="452" y="-24" type="qcurve" smooth="yes"/>
      <point x="360" y="-24"/>
      <point x="204" y="50"/>
      <point x="110" y="193"/>
      <point x="110" y="294" type="qcurve" smooth="yes"/>
      <point x="110" y="373"/>
      <point x="172" y="489"/>
      <point x="292" y="566"/>
      <point x="467" y="604"/>
      <point x="580" y="604" type="qcurve" smooth="yes"/>
      <point x="1727" y="604" type="line"/>
      <point x="1707" y="584" type="line"/>
      <point x="1707" y="724"/>
      <point x="1600" y="953"/>
      <point x="1415" y="1088"/>
      <point x="1296" y="1088" type="qcurve" smooth="yes"/>
      <point x="1181" y="1088"/>
      <point x="991" y="951"/>
      <point x="878" y="716"/>
      <point x="878" y="568" type="qcurve" smooth="yes"/>
      <point x="878" y="562" type="line" smooth="yes"/>
      <point x="878" y="415"/>
      <point x="981" y="170"/>
      <point x="1178" y="22"/>
      <point x="1318" y="22" type="qcurve" smooth="yes"/>
      <point x="1422" y="22"/>
      <point x="1562" y="95"/>
      <point x="1648" y="191"/>
      <point x="1668" y="224" type="qcurve"/>
      <point x="1706" y="198" type="line"/>
      <point x="1681" y="156"/>
      <point x="1582" y="52"/>
      <point x="1427" y="-24"/>
      <point x="1318" y="-24" type="qcurve" smooth="yes"/>
      <point x="1178" y="-24"/>
      <point x="965" y="117"/>
      <point x="841" y="361"/>
      <point x="833" y="515" type="qcurve"/>
      <point x="833" y="596" type="line"/>
      <point x="841" y="750"/>
      <point x="965" y="993"/>
      <point x="1169" y="1134"/>
      <point x="1296" y="1134" type="qcurve" smooth="yes"/>
      <point x="1394" y="1134"/>
      <point x="1560" y="1051"/>
      <point x="1684" y="902"/>
      <point x="1752" y="702"/>
      <point x="1752" y="584" type="qcurve" smooth="yes"/>
      <point x="1752" y="558" type="line"/>
      <point x="580" y="558" type="line" smooth="yes"/>
      <point x="444" y="558"/>
      <point x="255" y="501"/>
      <point x="156" y="384"/>
      <point x="156" y="294" type="qcurve" smooth="yes"/>
      <point x="156" y="174"/>
      <point x="322" y="22"/>
      <point x="452" y="22" type="qcurve" smooth="yes"/>
      <point x="567" y="22"/>
      <point x="738" y="135"/>
      <point x="832" y="340"/>
      <point x="832" y="478" type="qcurve" smooth="yes"/>
      <point x="832" y="802" type="line" smooth="yes"/>
      <point x="832" y="889"/>
      <point x="754" y="1017"/>
      <point x="612" y="1088"/>
      <point x="516" y="1088" type="qcurve" smooth="yes"/>
      <point x="437" y="1088"/>
      <point x="305" y="1041"/>
      <point x="210" y="953"/>
      <point x="186" y="890" type="qcurve"/>
      <point x="142" y="908" type="line"/>
      <point x="169" y="978"/>
      <point x="278" y="1079"/>
      <point x="429" y="1134"/>
      <point x="516" y="1134" type="qcurve" smooth="yes"/>
      <point x="629" y="1134"/>
      <point x="791" y="1047"/>
      <point x="878" y="897"/>
      <point x="878" y="802" type="qcurve" smooth="yes"/>
      <point x="878" y="467" type="line"/>
      <point x="874" y="459" type="line"/>
      <point x="874" y="352"/>
      <point x="814" y="175"/>
      <point x="703" y="46"/>
      <point x="547" y="-24"/>
    </contour>
  </outline>
</glyph>
<glyph name="eth" format="2">
  <advance width="1214"/>
  <unicode hex="00F0"/>
  <outline>
    <contour>
      <point x="980" y="1462" type="line"/>
      <point x="410" y="1202" type="line"/>
      <point x="398" y="1248" type="line"/>
      <point x="968" y="1506" type="line"/>
    </contour>
    <contour>
      <point x="608" y="-24" type="qcurve"/>
      <point x="474" y="-23"/>
      <point x="257" y="121"/>
      <point x="130" y="368"/>
      <point x="130" y="520" type="qcurve" smooth="yes"/>
      <point x="130" y="672"/>
      <point x="257" y="918"/>
      <point x="474" y="1062"/>
      <point x="608" y="1062" type="qcurve" smooth="yes"/>
      <point x="692" y="1062"/>
      <point x="835" y="1008"/>
      <point x="953" y="900"/>
      <point x="998" y="820" type="qcurve"/>
      <point x="1006" y="820" type="line"/>
      <point x="959" y="970"/>
      <point x="792" y="1236"/>
      <point x="560" y="1457"/>
      <point x="414" y="1536" type="qcurve"/>
      <point x="430" y="1582" type="line"/>
      <point x="581" y="1501"/>
      <point x="822" y="1275"/>
      <point x="993" y="1003"/>
      <point x="1083" y="703"/>
      <point x="1084" y="548" type="qcurve"/>
      <point x="1084" y="374"/>
      <point x="958" y="117"/>
      <point x="742" y="-23"/>
    </contour>
    <contour>
      <point x="608" y="24" type="qcurve" smooth="yes"/>
      <point x="729" y="24"/>
      <point x="923" y="155"/>
      <point x="1038" y="381"/>
      <point x="1038" y="520" type="qcurve" smooth="yes"/>
      <point x="1038" y="659"/>
      <point x="923" y="883"/>
      <point x="729" y="1016"/>
      <point x="608" y="1016" type="qcurve" smooth="yes"/>
      <point x="488" y="1016"/>
      <point x="293" y="883"/>
      <point x="178" y="658"/>
      <point x="178" y="520" type="qcurve" smooth="yes"/>
      <point x="178" y="381"/>
      <point x="293" y="155"/>
      <point x="487" y="24"/>
    </contour>
  </outline>
</glyph>
<glyph name="divide" format="2">
  <advance width="1304"/>
  <unicode hex="00F7"/>
  <outline>
    <contour>
      <point x="1074" y="606" type="line"/>
      <point x="1074" y="558" type="line"/>
      <point x="230" y="558" type="line"/>
      <point x="230" y="606" type="line"/>
    </contour>
    <contour>
      <point x="652" y="198" type="qcurve" smooth="yes"/>
      <point x="630" y="198"/>
      <point x="600" y="228"/>
      <point x="600" y="250" type="qcurve" smooth="yes"/>
      <point x="600" y="272"/>
      <point x="630" y="302"/>
      <point x="652" y="302" type="qcurve" smooth="yes"/>
      <point x="674" y="302"/>
      <point x="704" y="272"/>
      <point x="704" y="250" type="qcurve" smooth="yes"/>
      <point x="704" y="228"/>
      <point x="674" y="198"/>
    </contour>
    <contour>
      <point x="652" y="862" type="qcurve"/>
      <point x="630" y="861"/>
      <point x="600" y="892"/>
      <point x="600" y="914" type="qcurve" smooth="yes"/>
      <point x="600" y="936"/>
      <point x="630" y="966"/>
      <point x="652" y="966" type="qcurve" smooth="yes"/>
      <point x="674" y="966"/>
      <point x="704" y="936"/>
      <point x="704" y="914" type="qcurve" smooth="yes"/>
      <point x="704" y="892"/>
      <point x="674" y="861"/>
    </contour>
  </outline>
</glyph>
<glyph name="uni0184" format="2">
  <advance width="1290"/>
  <unicode hex="0184"/>
  <outline>
    <contour>
      <point x="402" y="1490" type="line"/>
      <point x="402" y="1442" type="line"/>
      <point x="16" y="1442" type="line"/>
      <point x="16" y="1490" type="line"/>
    </contour>
    <contour>
      <point x="382" y="776" type="line"/>
      <point x="914" y="776" type="line"/>
      <point x="1040" y="777"/>
      <point x="1227" y="685"/>
      <point x="1330" y="518"/>
      <point x="1330" y="404" type="qcurve" smooth="yes"/>
      <point x="1330" y="280"/>
      <point x="1229" y="98"/>
      <point x="1042" y="0"/>
      <point x="914" y="0" type="qcurve" smooth="yes"/>
      <point x="354" y="0" type="line"/>
      <point x="354" y="1490" type="line"/>
      <point x="402" y="1490" type="line"/>
      <point x="402" y="46" type="line"/>
      <point x="914" y="46" type="line"/>
      <point x="1030" y="47"/>
      <point x="1195" y="132"/>
      <point x="1282" y="294"/>
      <point x="1282" y="408" type="qcurve"/>
      <point x="1284" y="554"/>
      <point x="1081" y="730"/>
      <point x="914" y="730" type="qcurve" smooth="yes"/>
      <point x="382" y="730" type="line"/>
    </contour>
  </outline>
</glyph>
<glyph name="uni0188" format="2">
  <advance width="1028"/>
  <unicode hex="0188"/>
  <anchor x="739" y="0" name="m.uni0326"/>
  <anchor x="739" y="1242" name="m.uni030F_1"/>
  <anchor x="739" y="0" name="m.uni0327_3"/>
  <outline>
    <contour>
      <point x="932" y="886" type="line"/>
      <point x="805" y="1084" type="line" smooth="yes"/>
      <point x="745" y="1177"/>
      <point x="818" y="1304"/>
      <point x="916" y="1304" type="qcurve" smooth="yes"/>
      <point x="929" y="1304"/>
      <point x="969" y="1304"/>
      <point x="988" y="1304" type="qcurve"/>
      <point x="988" y="1258" type="line"/>
      <point x="969" y="1258"/>
      <point x="929" y="1258"/>
      <point x="916" y="1258" type="qcurve" smooth="yes"/>
      <point x="844" y="1258"/>
      <point x="799" y="1176"/>
      <point x="842" y="1106" type="qcurve" smooth="yes"/>
      <point x="970" y="899" type="line"/>
    </contour>
    <contour>
      <point x="594" y="-16" type="qcurve" smooth="yes"/>
      <point x="462" y="-16"/>
      <point x="252" y="134"/>
      <point x="130" y="394"/>
      <point x="130" y="559" type="qcurve" smooth="yes"/>
      <point x="130" y="724"/>
      <point x="252" y="984"/>
      <point x="462" y="1134"/>
      <point x="594" y="1134" type="qcurve" smooth="yes"/>
      <point x="687" y="1134"/>
      <point x="825" y="1068"/>
      <point x="917" y="979"/>
      <point x="966" y="906"/>
      <point x="970" y="899" type="qcurve"/>
      <point x="930" y="876" type="line"/>
      <point x="926" y="883"/>
      <point x="882" y="950"/>
      <point x="799" y="1029"/>
      <point x="677" y="1088"/>
      <point x="594" y="1088" type="qcurve" smooth="yes"/>
      <point x="476" y="1088"/>
      <point x="287" y="951"/>
      <point x="176" y="713"/>
      <point x="176" y="559" type="qcurve" smooth="yes"/>
      <point x="176" y="405"/>
      <point x="287" y="166"/>
      <point x="476" y="30"/>
      <point x="594" y="30" type="qcurve" smooth="yes"/>
      <point x="677" y="30"/>
      <point x="802" y="89"/>
      <point x="886" y="169"/>
      <point x="931" y="236"/>
      <point x="935" y="242" type="qcurve"/>
      <point x="975" y="220" type="line"/>
      <point x="971" y="213"/>
      <point x="921" y="140"/>
      <point x="827" y="51"/>
      <point x="687" y="-16"/>
    </contour>
  </outline>
</glyph>
<glyph name="uni018C" format="2">
  <advance width="1190"/>
  <unicode hex="018C"/>
  <anchor x="560" y="1430" name="m.uni030F_1"/>
  <outline>
    <contour>
      <point x="968" y="1444" type="line"/>
      <point x="305" y="1444" type="line"/>
      <point x="305" y="1490" type="line"/>
      <point x="992" y="1490" type="line"/>
    </contour>
    <contour>
      <point x="560" y="-24" type="qcurve" smooth="yes"/>
      <point x="429" y="-24"/>
      <point x="235" y="128"/>
      <point x="130" y="391"/>
      <point x="130" y="556" type="qcurve" smooth="yes"/>
      <point x="130" y="720"/>
      <point x="236" y="982"/>
      <point x="430" y="1134"/>
      <point x="560" y="1134" type="qcurve" smooth="yes"/>
      <point x="649" y="1134"/>
      <point x="800" y="1061"/>
      <point x="912" y="925"/>
      <point x="940" y="832" type="qcurve"/>
      <point x="946" y="832" type="line"/>
      <point x="946" y="1490" type="line"/>
      <point x="992" y="1490" type="line"/>
      <point x="992" y="0" type="line"/>
      <point x="946" y="0" type="line"/>
      <point x="946" y="280" type="line"/>
      <point x="940" y="280" type="line"/>
      <point x="911" y="187"/>
      <point x="800" y="50"/>
      <point x="650" y="-24"/>
    </contour>
    <contour>
      <point x="560" y="22" type="qcurve" smooth="yes"/>
      <point x="679" y="22"/>
      <point x="852" y="163"/>
      <point x="946" y="405"/>
      <point x="946" y="556" type="qcurve" smooth="yes"/>
      <point x="946" y="707"/>
      <point x="851" y="948"/>
      <point x="678" y="1088"/>
      <point x="560" y="1088" type="qcurve" smooth="yes"/>
      <point x="443" y="1088"/>
      <point x="270" y="948"/>
      <point x="176" y="707"/>
      <point x="176" y="556" type="qcurve" smooth="yes"/>
      <point x="176" y="405"/>
      <point x="270" y="163"/>
      <point x="442" y="22"/>
    </contour>
  </outline>
</glyph>
<glyph name="uni018F" format="2">
  <advance width="1512"/>
  <unicode hex="018F"/>
  <outline>
    <contour>
      <point x="758" y="-20" type="qcurve" smooth="yes"/>
      <point x="628" y="-20"/>
      <point x="411" y="72"/>
      <point x="252" y="242"/>
      <point x="166" y="481"/>
      <point x="166" y="628" type="qcurve" smooth="yes"/>
      <point x="166" y="672" type="line"/>
      <point x="1335" y="672" type="line"/>
      <point x="1335" y="626" type="line"/>
      <point x="192" y="626" type="line"/>
      <point x="212" y="636" type="line"/>
      <point x="212" y="449"/>
      <point x="350" y="175"/>
      <point x="596" y="26"/>
      <point x="758" y="26" type="qcurve" smooth="yes"/>
      <point x="934" y="26"/>
      <point x="1184" y="208"/>
      <point x="1318" y="532"/>
      <point x="1318" y="744" type="qcurve" smooth="yes"/>
      <point x="1318" y="960"/>
      <point x="1175" y="1284"/>
      <point x="918" y="1464"/>
      <point x="746" y="1464" type="qcurve" smooth="yes"/>
      <point x="632" y="1464"/>
      <point x="450" y="1385"/>
      <point x="317" y="1255"/>
      <point x="236" y="1100"/>
      <point x="223" y="1024" type="qcurve"/>
      <point x="176" y="1024" type="line"/>
      <point x="190" y="1104"/>
      <point x="273" y="1274"/>
      <point x="415" y="1420"/>
      <point x="616" y="1510"/>
      <point x="746" y="1510" type="qcurve" smooth="yes"/>
      <point x="931" y="1510"/>
      <point x="1209" y="1318"/>
      <point x="1364" y="974"/>
      <point x="1364" y="744" type="qcurve" smooth="yes"/>
      <point x="1364" y="517"/>
      <point x="1218" y="172"/>
      <point x="947" y="-20"/>
    </contour>
  </outline>
</glyph>
<glyph name="Epsilon1" format="2">
  <advance width="1256"/>
  <unicode hex="0190"/>
  <anchor x="735" y="1490" name="m.uni030F_1"/>
  <outline>
    <contour>
      <point x="622" y="-20" type="qcurve" smooth="yes"/>
      <point x="492" y="-20"/>
      <point x="292" y="88"/>
      <point x="180" y="272"/>
      <point x="180" y="386" type="qcurve" smooth="yes"/>
      <point x="180" y="481"/>
      <point x="259" y="636"/>
      <point x="403" y="744"/>
      <point x="500" y="768" type="qcurve"/>
      <point x="500" y="774" type="line"/>
      <point x="373" y="810"/>
      <point x="224" y="998"/>
      <point x="224" y="1128" type="qcurve" smooth="yes"/>
      <point x="224" y="1238"/>
      <point x="327" y="1410"/>
      <point x="508" y="1510"/>
      <point x="624" y="1510" type="qcurve" smooth="yes"/>
      <point x="742" y="1510"/>
      <point x="924" y="1409"/>
      <point x="1030" y="1233"/>
      <point x="1030" y="1118" type="qcurve"/>
      <point x="982" y="1118" type="line"/>
      <point x="982" y="1220"/>
      <point x="890" y="1376"/>
      <point x="729" y="1464"/>
      <point x="624" y="1464" type="qcurve" smooth="yes"/>
      <point x="520" y="1464"/>
      <point x="360" y="1376"/>
      <point x="270" y="1224"/>
      <point x="270" y="1128" type="qcurve" smooth="yes"/>
      <point x="270" y="1025"/>
      <point x="375" y="874"/>
      <point x="554" y="792"/>
      <point x="666" y="792" type="qcurve" smooth="yes"/>
      <point x="688" y="792" type="line"/>
      <point x="688" y="744" type="line"/>
      <point x="666" y="744" type="line" smooth="yes"/>
      <point x="539" y="744"/>
      <point x="340" y="655"/>
      <point x="226" y="494"/>
      <point x="226" y="386" type="qcurve" smooth="yes"/>
      <point x="226" y="287"/>
      <point x="325" y="123"/>
      <point x="504" y="26"/>
      <point x="622" y="26" type="qcurve" smooth="yes"/>
      <point x="734" y="26"/>
      <point x="913" y="116"/>
      <point x="1018" y="272"/>
      <point x="1018" y="372" type="qcurve"/>
      <point x="1064" y="372" type="line"/>
      <point x="1064" y="259"/>
      <point x="948" y="81"/>
      <point x="748" y="-20"/>
    </contour>
  </outline>
</glyph>
<glyph name="florin" format="2">
  <advance width="608"/>
  <unicode hex="0192"/>
  <outline>
    <contour>
      <point x="526" y="1074" type="line"/>
      <point x="526" y="1026" type="line"/>
      <point x="328" y="1026" type="line"/>
      <point x="328" y="-162" type="line"/>
      <point x="327" y="-280"/>
      <point x="174" y="-418"/>
      <point x="72" y="-418" type="qcurve" smooth="yes"/>
      <point x="45" y="-418"/>
      <point x="3" y="-410"/>
      <point x="-18" y="-402" type="qcurve"/>
      <point x="-4" y="-360" type="line"/>
      <point x="14" y="-366"/>
      <point x="50" y="-372"/>
      <point x="72" y="-372" type="qcurve" smooth="yes"/>
      <point x="155" y="-372"/>
      <point x="280" y="-261"/>
      <point x="280" y="-162" type="qcurve" smooth="yes"/>
      <point x="280" y="1026" type="line"/>
      <point x="82" y="1026" type="line"/>
      <point x="82" y="1074" type="line"/>
      <point x="280" y="1074" type="line"/>
      <point x="280" y="1300" type="line"/>
      <point x="281" y="1418"/>
      <point x="434" y="1556"/>
      <point x="536" y="1556" type="qcurve" smooth="yes"/>
      <point x="563" y="1556"/>
      <point x="605" y="1548"/>
      <point x="626" y="1540" type="qcurve"/>
      <point x="610" y="1496" type="line"/>
      <point x="594" y="1503"/>
      <point x="559" y="1510"/>
      <point x="536" y="1510" type="qcurve" smooth="yes"/>
      <point x="454" y="1510"/>
      <point x="328" y="1398"/>
      <point x="328" y="1300" type="qcurve" smooth="yes"/>
      <point x="328" y="1074" type="line"/>
    </contour>
  </outline>
</glyph>
<glyph name="uni0195" format="2">
  <advance width="1880"/>
  <unicode hex="0195"/>
  <outline>
    <contour>
      <point x="1228" y="-18" type="qcurve" smooth="yes"/>
      <point x="1125" y="-18"/>
      <point x="988" y="81"/>
      <point x="920" y="284"/>
      <point x="920" y="440" type="qcurve" smooth="yes"/>
      <point x="920" y="750" type="line"/>
      <point x="919" y="899"/>
      <point x="733" y="1086"/>
      <point x="584" y="1086" type="qcurve" smooth="yes"/>
      <point x="486" y="1086"/>
      <point x="332" y="999"/>
      <point x="244" y="848"/>
      <point x="244" y="750" type="qcurve" smooth="yes"/>
      <point x="244" y="0" type="line"/>
      <point x="198" y="0" type="line"/>
      <point x="198" y="1490" type="line"/>
      <point x="244" y="1490" type="line"/>
      <point x="244" y="940" type="line"/>
      <point x="250" y="940" type="line"/>
      <point x="290" y="1028"/>
      <point x="471" y="1132"/>
      <point x="584" y="1132" type="qcurve" smooth="yes"/>
      <point x="697" y="1132"/>
      <point x="869" y="1035"/>
      <point x="966" y="863"/>
      <point x="966" y="750" type="qcurve" smooth="yes"/>
      <point x="966" y="440" type="line" smooth="yes"/>
      <point x="966" y="297"/>
      <point x="1022" y="114"/>
      <point x="1138" y="28"/>
      <point x="1228" y="28" type="qcurve" smooth="yes"/>
      <point x="1367" y="28"/>
      <point x="1546" y="252"/>
      <point x="1634" y="698"/>
      <point x="1634" y="1032" type="qcurve" smooth="yes"/>
      <point x="1634" y="1118" type="line"/>
      <point x="1682" y="1118" type="line"/>
      <point x="1682" y="1016" type="line" smooth="yes"/>
      <point x="1682" y="673"/>
      <point x="1582" y="212"/>
      <point x="1382" y="-18"/>
    </contour>
  </outline>
</glyph>
<glyph name="lambdabar" format="2">
  <advance width="1291"/>
  <unicode hex="019B"/>
  <outline>
    <contour>
      <point x="296" y="1171" type="line"/>
      <point x="296" y="1221" type="line"/>
      <point x="690" y="1407" type="line"/>
      <point x="690" y="1357" type="line"/>
    </contour>
    <contour>
      <point x="100" y="0" type="line"/>
      <point x="532" y="1132" type="line"/>
      <point x="478" y="1275" type="line" smooth="yes"/>
      <point x="448" y="1356"/>
      <point x="360" y="1448"/>
      <point x="246" y="1470"/>
      <point x="177" y="1442" type="qcurve" smooth="yes"/>
      <point x="167" y="1438" type="line"/>
      <point x="149" y="1478" type="line"/>
      <point x="181" y="1492"/>
      <point x="245" y="1506"/>
      <point x="273" y="1506" type="qcurve" smooth="yes"/>
      <point x="328" y="1506"/>
      <point x="421" y="1457"/>
      <point x="495" y="1362"/>
      <point x="521" y="1292" type="qcurve" smooth="yes"/>
      <point x="932" y="215" type="line" smooth="yes"/>
      <point x="963" y="134"/>
      <point x="1051" y="41"/>
      <point x="1164" y="21"/>
      <point x="1233" y="48" type="qcurve" smooth="yes"/>
      <point x="1243" y="52" type="line"/>
      <point x="1261" y="12" type="line"/>
      <point x="1229" y="-2"/>
      <point x="1165" y="-16"/>
      <point x="1137" y="-16" type="qcurve" smooth="yes"/>
      <point x="1082" y="-16"/>
      <point x="990" y="33"/>
      <point x="916" y="128"/>
      <point x="889" y="198" type="qcurve" smooth="yes"/>
      <point x="666" y="782" type="line" smooth="yes"/>
      <point x="635" y="862"/>
      <point x="578" y="1022"/>
      <point x="549" y="1102" type="qcurve"/>
      <point x="561" y="1102" type="line"/>
      <point x="534" y="1022"/>
      <point x="478" y="862"/>
      <point x="447" y="782" type="qcurve" smooth="yes"/>
      <point x="150" y="0" type="line"/>
    </contour>
  </outline>
</glyph>
<glyph name="Trthook" format="2">
  <advance width="1262"/>
  <unicode hex="01AE"/>
  <anchor x="766" y="0" name="m.uni0326"/>
  <anchor x="766" y="1490" name="m.uni030F_1"/>
  <anchor x="766" y="0" name="m.uni0327_3"/>
  <outline>
    <contour>
      <point x="792" y="-418" type="qcurve" smooth="yes"/>
      <point x="700" y="-418"/>
      <point x="608" y="-322"/>
      <point x="608" y="-220" type="qcurve" smooth="yes"/>
      <point x="608" y="160" type="line"/>
      <point x="654" y="160" type="line"/>
      <point x="654" y="-220" type="line" smooth="yes"/>
      <point x="654" y="-302"/>
      <point x="720" y="-372"/>
      <point x="792" y="-372" type="qcurve" smooth="yes"/>
      <point x="805" y="-372"/>
      <point x="845" y="-372"/>
      <point x="864" y="-372" type="qcurve"/>
      <point x="864" y="-418" type="line"/>
      <point x="847" y="-418"/>
      <point x="806" y="-418"/>
    </contour>
    <contour>
      <point x="128" y="1444" type="line"/>
      <point x="128" y="1490" type="line"/>
      <point x="1134" y="1490" type="line"/>
      <point x="1134" y="1444" type="line"/>
      <point x="654" y="1444" type="line"/>
      <point x="654" y="0" type="line"/>
      <point x="608" y="0" type="line"/>
      <point x="608" y="1444" type="line"/>
    </contour>
  </outline>
</glyph>
<glyph name="Vcursive" format="2">
  <advance width="1216"/>
  <unicode hex="01B2"/>
  <outline>
    <contour>
      <point x="600" y="-24" type="qcurve"/>
      <point x="456" y="-23"/>
      <point x="242" y="92"/>
      <point x="124" y="314"/>
      <point x="124" y="474" type="qcurve" smooth="yes"/>
      <point x="124" y="1490" type="line"/>
      <point x="170" y="1490" type="line"/>
      <point x="170" y="474" type="line" smooth="yes"/>
      <point x="170" y="254"/>
      <point x="403" y="24"/>
      <point x="600" y="24" type="qcurve" smooth="yes"/>
      <point x="803" y="24"/>
      <point x="1046" y="257"/>
      <point x="1046" y="474" type="qcurve" smooth="yes"/>
      <point x="1046" y="1262" type="line" smooth="yes"/>
      <point x="1046" y="1369"/>
      <point x="968" y="1464"/>
      <point x="878" y="1464" type="qcurve" smooth="yes"/>
      <point x="856" y="1464"/>
      <point x="819" y="1458"/>
      <point x="796" y="1450" type="qcurve"/>
      <point x="796" y="1496" type="line"/>
      <point x="818" y="1504"/>
      <point x="860" y="1510"/>
      <point x="882" y="1510" type="qcurve" smooth="yes"/>
      <point x="989" y="1510"/>
      <point x="1092" y="1386"/>
      <point x="1092" y="1262" type="qcurve" smooth="yes"/>
      <point x="1092" y="474" type="line" smooth="yes"/>
      <point x="1092" y="317"/>
      <point x="969" y="94"/>
      <point x="748" y="-23"/>
    </contour>
  </outline>
</glyph>
<glyph name="uni021C" format="2">
  <advance width="1210"/>
  <unicode hex="021C"/>
  <outline>
    <contour>
      <point x="204" y="372" type="qcurve"/>
      <point x="204" y="418" type="line"/>
      <point x="383" y="471"/>
      <point x="679" y="623"/>
      <point x="894" y="809"/>
      <point x="1009" y="1018"/>
      <point x="1008" y="1128" type="qcurve" smooth="yes"/>
      <point x="1007" y="1279"/>
      <point x="787" y="1464"/>
      <point x="610" y="1464" type="qcurve" smooth="yes"/>
      <point x="484" y="1464"/>
      <point x="288" y="1372"/>
      <point x="177" y="1214"/>
      <point x="178" y="1116" type="qcurve"/>
      <point x="130" y="1116" type="line"/>
      <point x="131" y="1228"/>
      <point x="254" y="1406"/>
      <point x="470" y="1510"/>
      <point x="610" y="1510" type="qcurve" smooth="yes"/>
      <point x="742" y="1510"/>
      <point x="942" y="1412"/>
      <point x="1054" y="1238"/>
      <point x="1054" y="1124" type="qcurve" smooth="yes"/>
      <point x="1054" y="1004"/>
      <point x="930" y="778"/>
      <point x="702" y="580"/>
      <point x="391" y="423"/>
    </contour>
    <contour>
      <point x="826" y="718" type="qcurve"/>
      <point x="856" y="754" type="line"/>
      <point x="930" y="713"/>
      <point x="1029" y="591"/>
      <point x="1080" y="425"/>
      <point x="1080" y="318" type="qcurve" smooth="yes"/>
      <point x="1080" y="183"/>
      <point x="991" y="-29"/>
      <point x="788" y="-204"/>
      <point x="452" y="-359"/>
      <point x="204" y="-436" type="qcurve"/>
      <point x="204" y="-388" type="line"/>
      <point x="440" y="-313"/>
      <point x="758" y="-166"/>
      <point x="949" y="-4"/>
      <point x="1032" y="192"/>
      <point x="1032" y="316" type="qcurve" smooth="yes"/>
      <point x="1032" y="467"/>
      <point x="926" y="670"/>
    </contour>
  </outline>
</glyph>
<glyph name="uni0221" format="2">
  <advance width="1510"/>
  <unicode hex="0221"/>
  <anchor x="560" y="1430" name="m.uni030F_1"/>
  <outline>
    <contour>
      <point x="1204" y="-410" type="qcurve" smooth="yes"/>
      <point x="1130" y="-410"/>
      <point x="1013" y="-348"/>
      <point x="946" y="-236"/>
      <point x="946" y="-160" type="qcurve" smooth="yes"/>
      <point x="946" y="60" type="line"/>
      <point x="992" y="60" type="line"/>
      <point x="992" y="-160" type="line" smooth="yes"/>
      <point x="992" y="-254"/>
      <point x="1112" y="-364"/>
      <point x="1204" y="-364" type="qcurve" smooth="yes"/>
      <point x="1292" y="-364"/>
      <point x="1410" y="-266"/>
      <point x="1410" y="-184" type="qcurve" smooth="yes"/>
      <point x="1410" y="-102"/>
      <point x="1287" y="-2"/>
      <point x="1200" y="-2" type="qcurve" smooth="yes"/>
      <point x="1143" y="-2"/>
      <point x="1039" y="-59"/>
      <point x="929" y="-187"/>
      <point x="862" y="-294" type="qcurve" smooth="yes"/>
      <point x="798" y="-396" type="line"/>
      <point x="758" y="-372" type="line"/>
      <point x="824" y="-268" type="line" smooth="yes"/>
      <point x="933" y="-97"/>
      <point x="1103" y="44"/>
      <point x="1200" y="44" type="qcurve" smooth="yes"/>
      <point x="1307" y="44"/>
      <point x="1456" y="-82"/>
      <point x="1456" y="-184" type="qcurve" smooth="yes"/>
      <point x="1456" y="-286"/>
      <point x="1311" y="-410"/>
    </contour>
    <contour>
      <point x="560" y="-24" type="qcurve" smooth="yes"/>
      <point x="429" y="-24"/>
      <point x="235" y="128"/>
      <point x="130" y="391"/>
      <point x="130" y="556" type="qcurve" smooth="yes"/>
      <point x="130" y="720"/>
      <point x="236" y="982"/>
      <point x="430" y="1134"/>
      <point x="560" y="1134" type="qcurve" smooth="yes"/>
      <point x="649" y="1134"/>
      <point x="800" y="1061"/>
      <point x="912" y="925"/>
      <point x="940" y="832" type="qcurve"/>
      <point x="946" y="832" type="line"/>
      <point x="946" y="1490" type="line"/>
      <point x="992" y="1490" type="line"/>
      <point x="992" y="0" type="line"/>
      <point x="946" y="0" type="line"/>
      <point x="946" y="280" type="line"/>
      <point x="940" y="280" type="line"/>
      <point x="911" y="187"/>
      <point x="800" y="50"/>
      <point x="650" y="-24"/>
    </contour>
    <contour>
      <point x="560" y="22" type="qcurve" smooth="yes"/>
      <point x="679" y="22"/>
      <point x="852" y="163"/>
      <point x="946" y="405"/>
      <point x="946" y="556" type="qcurve" smooth="yes"/>
      <point x="946" y="707"/>
      <point x="851" y="948"/>
      <point x="678" y="1088"/>
      <point x="560" y="1088" type="qcurve" smooth="yes"/>
      <point x="443" y="1088"/>
      <point x="270" y="948"/>
      <point x="176" y="707"/>
      <point x="176" y="556" type="qcurve" smooth="yes"/>
      <point x="176" y="405"/>
      <point x="270" y="163"/>
      <point x="442" y="22"/>
    </contour>
  </outline>
</glyph>
<glyph name="uni0237" format="2">
  <advance width="448"/>
  <unicode hex="0237"/>
  <anchor x="379" y="-297" name="m.uni0326"/>
  <anchor x="385" y="1242" name="m.uni030F_1"/>
  <outline>
    <contour>
      <point x="204" y="1118" type="line"/>
      <point x="250" y="1118" type="line"/>
      <point x="250" y="-162" type="line" smooth="yes"/>
      <point x="250" y="-241"/>
      <point x="179" y="-356"/>
      <point x="63" y="-418"/>
      <point x="-6" y="-418" type="qcurve" smooth="yes"/>
      <point x="-24" y="-418" type="line"/>
      <point x="-24" y="-372" type="line"/>
      <point x="-6" y="-372" type="line" smooth="yes"/>
      <point x="77" y="-372"/>
      <point x="204" y="-260"/>
      <point x="204" y="-162" type="qcurve" smooth="yes"/>
    </contour>
  </outline>
</glyph>
<glyph name="uni023A" format="2">
  <advance width="1310"/>
  <unicode hex="023A"/>
  <anchor x="875" y="0" name="m.uni0326"/>
  <anchor x="875" y="1490" name="m.uni030F_1"/>
  <anchor x="1678" y="0" name="m.uni0328_4"/>
  <outline>
    <contour>
      <point x="990" y="1678" type="line"/>
      <point x="326" y="-190" type="line"/>
      <point x="276" y="-190" type="line"/>
      <point x="940" y="1678" type="line"/>
    </contour>
    <contour>
      <point x="66" y="0" type="line"/>
      <point x="623" y="1490" type="line"/>
      <point x="686" y="1490" type="line"/>
      <point x="1244" y="0" type="line"/>
      <point x="1195" y="0" type="line"/>
      <point x="763" y="1154" type="line" smooth="yes"/>
      <point x="733" y="1234"/>
      <point x="674" y="1394"/>
      <point x="645" y="1474" type="qcurve"/>
      <point x="663" y="1474" type="line"/>
      <point x="634" y="1394"/>
      <point x="575" y="1234"/>
      <point x="545" y="1154" type="qcurve" smooth="yes"/>
      <point x="115" y="0" type="line"/>
    </contour>
    <contour>
      <point x="285" y="496" type="line"/>
      <point x="285" y="542" type="line"/>
      <point x="1025" y="542" type="line"/>
      <point x="1025" y="496" type="line"/>
    </contour>
  </outline>
</glyph>
<glyph name="uni023F" format="2">
  <advance width="1010"/>
  <unicode hex="023F"/>
  <anchor x="761" y="0" name="m.uni0326"/>
  <anchor x="757" y="1242" name="m.uni030F_1"/>
  <anchor x="724" y="0" name="m.uni0327_3"/>
  <outline>
    <contour>
      <point x="217" y="161" type="line"/>
      <point x="320" y="-19"/>
      <point x="442" y="-233"/>
      <point x="514" y="-338"/>
      <point x="568" y="-372"/>
      <point x="604" y="-372" type="qcurve" smooth="yes"/>
      <point x="632" y="-372"/>
      <point x="693" y="-345"/>
      <point x="734" y="-314" type="qcurve"/>
      <point x="756" y="-354" type="line"/>
      <point x="707" y="-391"/>
      <point x="638" y="-418"/>
      <point x="606" y="-418" type="qcurve" smooth="yes"/>
      <point x="570" y="-418"/>
      <point x="510" y="-391"/>
      <point x="456" y="-335"/>
      <point x="430" y="-290" type="qcurve" smooth="yes"/>
      <point x="181" y="142" type="line"/>
    </contour>
    <contour>
      <point x="504" y="-24" type="qcurve" smooth="yes"/>
      <point x="405" y="-24"/>
      <point x="253" y="42"/>
      <point x="156" y="167"/>
      <point x="136" y="256" type="qcurve"/>
      <point x="182" y="267" type="line"/>
      <point x="207" y="148"/>
      <point x="371" y="22"/>
      <point x="504" y="22" type="qcurve" smooth="yes"/>
      <point x="649" y="22"/>
      <point x="830" y="166"/>
      <point x="830" y="282" type="qcurve" smooth="yes"/>
      <point x="830" y="369"/>
      <point x="721" y="487"/>
      <point x="614" y="514" type="qcurve" smooth="yes"/>
      <point x="440" y="558" type="line" smooth="yes"/>
      <point x="311" y="590"/>
      <point x="178" y="736"/>
      <point x="178" y="840" type="qcurve" smooth="yes"/>
      <point x="178" y="928"/>
      <point x="266" y="1060"/>
      <point x="422" y="1134"/>
      <point x="524" y="1134" type="qcurve" smooth="yes"/>
      <point x="610" y="1134"/>
      <point x="744" y="1078"/>
      <point x="839" y="966"/>
      <point x="866" y="882" type="qcurve"/>
      <point x="820" y="870" type="line"/>
      <point x="786" y="979"/>
      <point x="639" y="1088"/>
      <point x="524" y="1088" type="qcurve" smooth="yes"/>
      <point x="390" y="1088"/>
      <point x="224" y="952"/>
      <point x="224" y="840" type="qcurve" smooth="yes"/>
      <point x="224" y="753"/>
      <point x="335" y="632"/>
      <point x="448" y="603" type="qcurve" smooth="yes"/>
      <point x="624" y="559" type="line" smooth="yes"/>
      <point x="746" y="528"/>
      <point x="876" y="386"/>
      <point x="876" y="282" type="qcurve" smooth="yes"/>
      <point x="876" y="191"/>
      <point x="781" y="53"/>
      <point x="613" y="-24"/>
    </contour>
  </outline>
</glyph>
<glyph name="uni0240" format="2">
  <advance width="1072"/>
  <unicode hex="0240"/>
  <outline>
    <contour>
      <point x="158" y="0" type="line"/>
      <point x="158" y="46" type="line"/>
      <point x="827" y="1066" type="line"/>
      <point x="827" y="1072" type="line"/>
      <point x="200" y="1072" type="line"/>
      <point x="200" y="1118" type="line"/>
      <point x="884" y="1118" type="line"/>
      <point x="884" y="1070" type="line"/>
      <point x="216" y="52" type="line"/>
      <point x="216" y="0" type="line"/>
    </contour>
    <contour>
      <point x="895" y="-418" type="qcurve" smooth="yes"/>
      <point x="833" y="-418"/>
      <point x="738" y="-346"/>
      <point x="650" y="-236"/>
      <point x="600" y="-180" type="qcurve" smooth="yes"/>
      <point x="559" y="-133"/>
      <point x="458" y="-51"/>
      <point x="330" y="0"/>
      <point x="245" y="0" type="qcurve" smooth="yes"/>
      <point x="191" y="0" type="line"/>
      <point x="191" y="46" type="line"/>
      <point x="245" y="46" type="line" smooth="yes"/>
      <point x="339" y="46"/>
      <point x="482" y="-11"/>
      <point x="592" y="-101"/>
      <point x="634" y="-150" type="qcurve"/>
      <point x="686" y="-208"/>
      <point x="767" y="-309"/>
      <point x="847" y="-372"/>
      <point x="895" y="-372" type="qcurve" smooth="yes"/>
      <point x="912" y="-372"/>
      <point x="947" y="-365"/>
      <point x="966" y="-356" type="qcurve"/>
      <point x="985" y="-398" type="line"/>
      <point x="962" y="-408"/>
      <point x="915" y="-418"/>
    </contour>
  </outline>
</glyph>
<glyph name="qrthook" format="2">
  <advance width="1190"/>
  <unicode hex="024B"/>
  <anchor x="815" y="0" name="m.uni0326"/>
  <anchor x="787" y="1242" name="m.uni030F_1"/>
  <anchor x="1344" y="0" name="m.uni0328_4"/>
  <outline>
    <contour>
      <point x="1130" y="-418" type="qcurve" smooth="yes"/>
      <point x="1038" y="-418"/>
      <point x="946" y="-322"/>
      <point x="946" y="-220" type="qcurve" smooth="yes"/>
      <point x="946" y="290" type="line"/>
      <point x="992" y="290" type="line"/>
      <point x="992" y="-220" type="line" smooth="yes"/>
      <point x="992" y="-302"/>
      <point x="1058" y="-372"/>
      <point x="1130" y="-372" type="qcurve" smooth="yes"/>
      <point x="1143" y="-372"/>
      <point x="1183" y="-372"/>
      <point x="1202" y="-372" type="qcurve"/>
      <point x="1202" y="-418" type="line"/>
      <point x="1185" y="-418"/>
      <point x="1144" y="-418"/>
    </contour>
    <contour>
      <point x="562" y="-24" type="qcurve" smooth="yes"/>
      <point x="430" y="-24"/>
      <point x="236" y="128"/>
      <point x="130" y="391"/>
      <point x="130" y="556" type="qcurve" smooth="yes"/>
      <point x="130" y="720"/>
      <point x="237" y="982"/>
      <point x="431" y="1134"/>
      <point x="562" y="1134" type="qcurve" smooth="yes"/>
      <point x="651" y="1134"/>
      <point x="800" y="1061"/>
      <point x="911" y="925"/>
      <point x="940" y="832" type="qcurve"/>
      <point x="946" y="832" type="line"/>
      <point x="946" y="1118" type="line"/>
      <point x="992" y="1118" type="line"/>
      <point x="992" y="0" type="line"/>
      <point x="946" y="0" type="line"/>
      <point x="946" y="280" type="line"/>
      <point x="940" y="280" type="line"/>
      <point x="910" y="188"/>
      <point x="800" y="51"/>
      <point x="651" y="-24"/>
    </contour>
    <contour>
      <point x="562" y="22" type="qcurve" smooth="yes"/>
      <point x="681" y="22"/>
      <point x="853" y="163"/>
      <point x="946" y="405"/>
      <point x="946" y="556" type="qcurve" smooth="yes"/>
      <point x="946" y="707"/>
      <point x="852" y="948"/>
      <point x="680" y="1088"/>
      <point x="562" y="1088" type="qcurve" smooth="yes"/>
      <point x="444" y="1088"/>
      <point x="271" y="948"/>
      <point x="176" y="707"/>
      <point x="176" y="556" type="qcurve" smooth="yes"/>
      <point x="176" y="405"/>
      <point x="270" y="163"/>
      <point x="443" y="22"/>
    </contour>
  </outline>
</glyph>
<glyph name="epsilon1revclosed" format="2">
  <advance width="1090"/>
  <unicode hex="025E"/>
  <outline>
    <contour>
      <point x="558" y="-20" type="qcurve" smooth="yes"/>
      <point x="417" y="-20"/>
      <point x="227" y="109"/>
      <point x="131" y="367"/>
      <point x="130" y="559" type="qcurve"/>
      <point x="178" y="559" type="line"/>
      <point x="178" y="380"/>
      <point x="262" y="143"/>
      <point x="431" y="26"/>
      <point x="558" y="26" type="qcurve" smooth="yes"/>
      <point x="716" y="26"/>
      <point x="908" y="167"/>
      <point x="908" y="282" type="qcurve" smooth="yes"/>
      <point x="908" y="400"/>
      <point x="726" y="554"/>
      <point x="586" y="554" type="qcurve" smooth="yes"/>
      <point x="476" y="554" type="line"/>
      <point x="476" y="600" type="line"/>
      <point x="554" y="600" type="line" smooth="yes"/>
      <point x="645" y="600"/>
      <point x="792" y="555"/>
      <point x="897" y="472"/>
      <point x="954" y="357"/>
      <point x="954" y="286" type="qcurve" smooth="yes"/>
      <point x="954" y="194"/>
      <point x="855" y="56"/>
      <point x="677" y="-20"/>
    </contour>
    <contour>
      <point x="554" y="554" type="qcurve" smooth="yes"/>
      <point x="476" y="554" type="line"/>
      <point x="476" y="600" type="line"/>
      <point x="586" y="600" type="line" smooth="yes"/>
      <point x="729" y="600"/>
      <point x="886" y="724"/>
      <point x="884" y="834" type="qcurve"/>
      <point x="883" y="950"/>
      <point x="707" y="1086"/>
      <point x="560" y="1086" type="qcurve" smooth="yes"/>
      <point x="432" y="1086"/>
      <point x="262" y="970"/>
      <point x="178" y="736"/>
      <point x="178" y="559" type="qcurve"/>
      <point x="130" y="559" type="line"/>
      <point x="130" y="700"/>
      <point x="185" y="915"/>
      <point x="294" y="1059"/>
      <point x="455" y="1132"/>
      <point x="560" y="1132" type="qcurve" smooth="yes"/>
      <point x="672" y="1132"/>
      <point x="838" y="1057"/>
      <point x="930" y="921"/>
      <point x="930" y="830" type="qcurve"/>
      <point x="931" y="763"/>
      <point x="882" y="660"/>
      <point x="785" y="590"/>
      <point x="645" y="554"/>
    </contour>
  </outline>
</glyph>
<glyph name="uni0266" format="2">
  <advance width="1196"/>
  <unicode hex="0266"/>
  <anchor x="793" y="0" name="m.uni0326"/>
  <anchor x="797" y="1242" name="m.uni030F_1"/>
  <outline>
    <contour>
      <point x="198" y="928" type="line"/>
      <point x="198" y="1292" type="line" smooth="yes"/>
      <point x="198" y="1394"/>
      <point x="290" y="1490"/>
      <point x="382" y="1490" type="qcurve" smooth="yes"/>
      <point x="396" y="1490"/>
      <point x="437" y="1490"/>
      <point x="454" y="1490" type="qcurve"/>
      <point x="454" y="1444" type="line"/>
      <point x="435" y="1444"/>
      <point x="395" y="1444"/>
      <point x="382" y="1444" type="qcurve" smooth="yes"/>
      <point x="310" y="1444"/>
      <point x="244" y="1374"/>
      <point x="244" y="1292" type="qcurve" smooth="yes"/>
      <point x="244" y="928" type="line"/>
    </contour>
    <contour>
      <point x="244" y="750" type="qcurve" smooth="yes"/>
      <point x="244" y="0" type="line"/>
      <point x="198" y="0" type="line"/>
      <point x="198" y="1118" type="line"/>
      <point x="244" y="1118" type="line"/>
      <point x="244" y="878" type="line"/>
      <point x="232" y="878" type="line"/>
      <point x="268" y="1006"/>
      <point x="481" y="1134"/>
      <point x="608" y="1134" type="qcurve" smooth="yes"/>
      <point x="723" y="1134"/>
      <point x="898" y="1037"/>
      <point x="998" y="865"/>
      <point x="998" y="750" type="qcurve" smooth="yes"/>
      <point x="998" y="0" type="line"/>
      <point x="952" y="0" type="line"/>
      <point x="952" y="750" type="line" smooth="yes"/>
      <point x="952" y="902"/>
      <point x="760" y="1088"/>
      <point x="608" y="1088" type="qcurve" smooth="yes"/>
      <point x="504" y="1088"/>
      <point x="339" y="1001"/>
      <point x="244" y="848"/>
    </contour>
  </outline>
</glyph>
<glyph name="uni026C.ss02" format="2">
  <advance width="702"/>
  <unicode hex="026C"/>
  <unicode hex="E054"/>
  <anchor x="823" y="0" name="m.uni0326"/>
  <anchor x="763" y="1490" name="m.uni030F_1"/>
  <outline>
    <contour>
      <point x="266" y="676" type="line" smooth="yes"/>
      <point x="185" y="676"/>
      <point x="70" y="734"/>
      <point x="10" y="837"/>
      <point x="10" y="904" type="qcurve" smooth="yes"/>
      <point x="10" y="971"/>
      <point x="67" y="1072"/>
      <point x="168" y="1130"/>
      <point x="234" y="1130" type="qcurve" smooth="yes"/>
      <point x="304" y="1130"/>
      <point x="399" y="1066"/>
      <point x="448" y="954"/>
      <point x="448" y="880" type="qcurve" smooth="yes"/>
      <point x="448" y="788" type="line"/>
      <point x="418" y="788" type="line"/>
      <point x="418" y="880" type="line" smooth="yes"/>
      <point x="418" y="970"/>
      <point x="319" y="1084"/>
      <point x="234" y="1084" type="qcurve" smooth="yes"/>
      <point x="155" y="1084"/>
      <point x="58" y="985"/>
      <point x="58" y="904" type="qcurve" smooth="yes"/>
      <point x="58" y="822"/>
      <point x="163" y="722"/>
      <point x="266" y="722" type="qcurve" smooth="yes"/>
      <point x="640" y="722" type="line"/>
      <point x="640" y="676" type="line"/>
    </contour>
    <contour>
      <point x="644" y="-2" type="qcurve"/>
      <point x="544" y="-24"/>
      <point x="418" y="59"/>
      <point x="418" y="175" type="qcurve" smooth="yes"/>
      <point x="418" y="1490" type="line"/>
      <point x="464" y="1490" type="line"/>
      <point x="464" y="175" type="line" smooth="yes"/>
      <point x="464" y="77"/>
      <point x="563" y="26"/>
      <point x="642" y="45" type="qcurve"/>
      <point x="648" y="47"/>
      <point x="644" y="46"/>
      <point x="650" y="47" type="qcurve"/>
      <point x="662" y="3" type="line"/>
      <point x="658" y="2"/>
      <point x="649" y="0"/>
    </contour>
  </outline>
</glyph>
<glyph name="yturn" format="2">
  <advance width="1114"/>
  <unicode hex="028E"/>
  <anchor x="816" y="0" name="m.uni0326"/>
  <anchor x="906" y="1658" name="m.uni030F_1"/>
  <anchor x="543" y="1242" name="m.uni0328_4"/>
  <outline>
    <contour>
      <point x="980" y="1516" type="qcurve"/>
      <point x="962" y="1476" type="line"/>
      <point x="952" y="1480" type="line" smooth="yes"/>
      <point x="883" y="1508"/>
      <point x="769" y="1486"/>
      <point x="682" y="1394"/>
      <point x="651" y="1313" type="qcurve" smooth="yes"/>
      <point x="582" y="1132" type="line"/>
      <point x="1014" y="0" type="line"/>
      <point x="964" y="0" type="line"/>
      <point x="667" y="782" type="line" smooth="yes"/>
      <point x="636" y="862"/>
      <point x="580" y="1022"/>
      <point x="553" y="1102" type="qcurve"/>
      <point x="565" y="1102" type="line"/>
      <point x="536" y="1022"/>
      <point x="479" y="862"/>
      <point x="448" y="782" type="qcurve" smooth="yes"/>
      <point x="149" y="0" type="line"/>
      <point x="100" y="0" type="line"/>
      <point x="608" y="1330" type="line" smooth="yes"/>
      <point x="635" y="1400"/>
      <point x="709" y="1495"/>
      <point x="801" y="1544"/>
      <point x="856" y="1544" type="qcurve" smooth="yes"/>
      <point x="884" y="1544"/>
      <point x="948" y="1530"/>
    </contour>
  </outline>
</glyph>
<glyph name="uni02A6" format="2">
  <advance width="1401"/>
  <unicode hex="02A6"/>
  <outline>
    <contour>
      <point x="430" y="0" type="line" smooth="yes"/>
      <point x="327" y="0"/>
      <point x="174" y="138"/>
      <point x="174" y="256" type="qcurve" smooth="yes"/>
      <point x="174" y="1384" type="line"/>
      <point x="220" y="1384" type="line"/>
      <point x="220" y="256" type="line" smooth="yes"/>
      <point x="220" y="158"/>
      <point x="346" y="46"/>
      <point x="430" y="46" type="qcurve" smooth="yes"/>
      <point x="895" y="46" type="line" smooth="yes"/>
      <point x="1052" y="46"/>
      <point x="1221" y="174"/>
      <point x="1221" y="290" type="qcurve" smooth="yes"/>
      <point x="1221" y="377"/>
      <point x="1112" y="487"/>
      <point x="1005" y="514" type="qcurve" smooth="yes"/>
      <point x="831" y="558" type="line" smooth="yes"/>
      <point x="702" y="590"/>
      <point x="569" y="736"/>
      <point x="569" y="840" type="qcurve" smooth="yes"/>
      <point x="569" y="928"/>
      <point x="657" y="1060"/>
      <point x="813" y="1134"/>
      <point x="915" y="1134" type="qcurve" smooth="yes"/>
      <point x="1001" y="1134"/>
      <point x="1135" y="1078"/>
      <point x="1230" y="966"/>
      <point x="1257" y="882" type="qcurve"/>
      <point x="1211" y="870" type="line"/>
      <point x="1177" y="979"/>
      <point x="1030" y="1088"/>
      <point x="915" y="1088" type="qcurve" smooth="yes"/>
      <point x="781" y="1088"/>
      <point x="615" y="952"/>
      <point x="615" y="840" type="qcurve" smooth="yes"/>
      <point x="615" y="753"/>
      <point x="726" y="632"/>
      <point x="839" y="603" type="qcurve" smooth="yes"/>
      <point x="1015" y="559" type="line" smooth="yes"/>
      <point x="1137" y="528"/>
      <point x="1267" y="394"/>
      <point x="1267" y="290" type="qcurve" smooth="yes"/>
      <point x="1267" y="199"/>
      <point x="1178" y="69"/>
      <point x="1012" y="0"/>
      <point x="895" y="0" type="qcurve" smooth="yes"/>
    </contour>
    <contour>
      <point x="10" y="1072" type="line"/>
      <point x="10" y="1118" type="line"/>
      <point x="870" y="1118" type="line"/>
      <point x="736" y="1072" type="line"/>
    </contour>
  </outline>
</glyph>
<glyph name="hturnhook2" format="2">
  <advance width="1218"/>
  <unicode hex="02AF"/>
  <outline>
    <contour>
      <point x="1158" y="-418" type="qcurve" smooth="yes"/>
      <point x="1066" y="-418"/>
      <point x="974" y="-322"/>
      <point x="974" y="-220" type="qcurve" smooth="yes"/>
      <point x="974" y="240" type="line"/>
      <point x="986" y="240" type="line"/>
      <point x="950" y="112"/>
      <point x="738" y="-16"/>
      <point x="610" y="-16" type="qcurve" smooth="yes"/>
      <point x="495" y="-16"/>
      <point x="320" y="81"/>
      <point x="220" y="254"/>
      <point x="220" y="368" type="qcurve" smooth="yes"/>
      <point x="220" y="912" type="line" smooth="yes"/>
      <point x="220" y="1004"/>
      <point x="159" y="1080"/>
      <point x="82" y="1080" type="qcurve" smooth="yes"/>
      <point x="72" y="1080"/>
      <point x="49" y="1079"/>
      <point x="23" y="1077"/>
      <point x="10" y="1076" type="qcurve"/>
      <point x="10" y="1122" type="line"/>
      <point x="29" y="1124"/>
      <point x="67" y="1126"/>
      <point x="82" y="1126" type="qcurve" smooth="yes"/>
      <point x="130" y="1126"/>
      <point x="199" y="1101"/>
      <point x="244" y="1049"/>
      <point x="266" y="968"/>
      <point x="266" y="912" type="qcurve" smooth="yes"/>
      <point x="266" y="368" type="line" smooth="yes"/>
      <point x="266" y="216"/>
      <point x="458" y="30"/>
      <point x="610" y="30" type="qcurve" smooth="yes"/>
      <point x="714" y="30"/>
      <point x="879" y="117"/>
      <point x="974" y="270"/>
      <point x="974" y="368" type="qcurve" smooth="yes"/>
      <point x="974" y="1118" type="line"/>
      <point x="1020" y="1118" type="line"/>
      <point x="1020" y="-220" type="line" smooth="yes"/>
      <point x="1020" y="-302"/>
      <point x="1086" y="-372"/>
      <point x="1158" y="-372" type="qcurve" smooth="yes"/>
      <point x="1171" y="-372"/>
      <point x="1211" y="-372"/>
      <point x="1230" y="-372" type="qcurve"/>
      <point x="1230" y="-418" type="line"/>
      <point x="1219" y="-418"/>
      <point x="1192" y="-418"/>
      <point x="1167" y="-418"/>
    </contour>
  </outline>
</glyph>
<glyph name="uni02C0" format="2">
  <advance width="742"/>
  <unicode hex="02C0"/>
  <outline>
    <contour>
      <point x="102" y="1538" type="line"/>
      <point x="117" y="1661"/>
      <point x="275" y="1808"/>
      <point x="390" y="1806" type="qcurve"/>
      <point x="469" y="1806"/>
      <point x="581" y="1736"/>
      <point x="640" y="1604"/>
      <point x="640" y="1512" type="qcurve" smooth="yes"/>
      <point x="640" y="1280" type="line" smooth="yes"/>
      <point x="640" y="1135"/>
      <point x="515" y="986"/>
      <point x="392" y="986" type="qcurve" smooth="yes"/>
      <point x="386" y="986" type="line"/>
      <point x="386" y="1032" type="line"/>
      <point x="392" y="1032" type="line" smooth="yes"/>
      <point x="460" y="1032"/>
      <point x="548" y="1082"/>
      <point x="592" y="1190"/>
      <point x="594" y="1274" type="qcurve"/>
      <point x="594" y="1518" type="line"/>
      <point x="593" y="1634"/>
      <point x="485" y="1760"/>
      <point x="386" y="1760" type="qcurve" smooth="yes"/>
      <point x="292" y="1760"/>
      <point x="164" y="1641"/>
      <point x="148" y="1538" type="qcurve"/>
    </contour>
    <contour>
      <point x="372" y="1032" type="line"/>
      <point x="418" y="1032" type="line"/>
      <point x="418" y="652" type="line"/>
      <point x="372" y="652" type="line"/>
    </contour>
  </outline>
</glyph>
<glyph name="uni0295.numr" format="2">
  <advance width="792"/>
  <unicode hex="02E4"/>
  <outline>
    <contour>
      <point x="686" y="1178" type="line"/>
      <point x="670" y="1297"/>
      <point x="528" y="1420"/>
      <point x="404" y="1420" type="qcurve" smooth="yes"/>
      <point x="268" y="1420"/>
      <point x="108" y="1266"/>
      <point x="108" y="1130" type="qcurve" smooth="yes"/>
      <point x="108" y="1000"/>
      <point x="261" y="855"/>
      <point x="392" y="856" type="qcurve"/>
      <point x="402" y="856" type="line"/>
      <point x="402" y="810" type="line"/>
      <point x="384" y="810" type="line" smooth="yes"/>
      <point x="288" y="810"/>
      <point x="143" y="888"/>
      <point x="62" y="1033"/>
      <point x="62" y="1130" type="qcurve" smooth="yes"/>
      <point x="62" y="1234"/>
      <point x="146" y="1384"/>
      <point x="300" y="1466"/>
      <point x="404" y="1466" type="qcurve" smooth="yes"/>
      <point x="500" y="1466"/>
      <point x="639" y="1400"/>
      <point x="723" y="1272"/>
      <point x="734" y="1178" type="qcurve"/>
    </contour>
    <contour>
      <point x="410" y="652" type="line"/>
      <point x="364" y="652" type="line"/>
      <point x="364" y="856" type="line"/>
      <point x="410" y="856" type="line"/>
    </contour>
  </outline>
</glyph>
<glyph name="uni02F7" format="2">
  <advance width="850"/>
  <unicode hex="02F7"/>
  <outline>
    <contour>
      <point x="704" y="-226" type="qcurve"/>
      <point x="750" y="-228" type="line"/>
      <point x="752" y="-295"/>
      <point x="704" y="-388"/>
      <point x="622" y="-436"/>
      <point x="572" y="-436" type="qcurve" smooth="yes"/>
      <point x="517" y="-436"/>
      <point x="445" y="-386"/>
      <point x="387" y="-322"/>
      <point x="323" y="-272"/>
      <point x="276" y="-272" type="qcurve" smooth="yes"/>
      <point x="214" y="-272"/>
      <point x="146" y="-368"/>
      <point x="148" y="-436" type="qcurve"/>
      <point x="102" y="-434" type="line"/>
      <point x="101" y="-367"/>
      <point x="149" y="-274"/>
      <point x="231" y="-226"/>
      <point x="280" y="-226" type="qcurve" smooth="yes"/>
      <point x="334" y="-226"/>
      <point x="406" y="-276"/>
      <point x="464" y="-340"/>
      <point x="528" y="-390"/>
      <point x="576" y="-390" type="qcurve" smooth="yes"/>
      <point x="639" y="-390"/>
      <point x="707" y="-294"/>
    </contour>
  </outline>
</glyph>
<glyph name="acutecomb" format="2">
  <unicode hex="0301"/>
  <anchor x="455" y="1242" name="_m.uni030F_1"/>
  <anchor x="455" y="1242" name="_t.uni030F"/>
  <anchor x="459" y="1734" name="t.uni030F"/>
  <outline>
    <contour>
      <point x="188" y="1283" type="line"/>
      <point x="341" y="1557" type="line"/>
      <point x="401" y="1557" type="line"/>
      <point x="234" y="1283" type="line"/>
    </contour>
  </outline>
</glyph>
<glyph name="uni0304" format="2">
  <unicode hex="0304"/>
  <anchor x="409" y="1242" name="_m.uni030F_1"/>
  <anchor x="409" y="1242" name="_t.uni030F"/>
  <anchor x="409" y="1639" name="t.uni030F"/>
  <outline>
    <contour>
      <point x="633" y="1443" type="line"/>
      <point x="633" y="1397" type="line"/>
      <point x="167" y="1397" type="line"/>
      <point x="167" y="1443" type="line"/>
    </contour>
  </outline>
</glyph>
<glyph name="uni030C" format="2">
  <unicode hex="030C"/>
  <anchor x="551" y="1242" name="_m.uni030F_1"/>
  <anchor x="551" y="1242" name="_t.uni030F"/>
  <anchor x="551" y="1759" name="t.uni030F"/>
  <outline>
    <contour>
      <point x="213" y="1557" type="line"/>
      <point x="431" y="1333" type="line"/>
      <point x="649" y="1557" type="line"/>
      <point x="705" y="1557" type="line"/>
      <point x="705" y="1551" type="line"/>
      <point x="437" y="1277" type="line"/>
      <point x="425" y="1277" type="line"/>
      <point x="159" y="1551" type="line"/>
      <point x="159" y="1557" type="line"/>
    </contour>
  </outline>
</glyph>
<glyph name="uni0315" format="2">
  <unicode hex="0315"/>
  <outline>
    <contour>
      <point x="-8" y="1502" type="line"/>
      <point x="-8" y="1352" type="line" smooth="yes"/>
      <point x="-8" y="1267"/>
      <point x="-52" y="1121"/>
      <point x="-134" y="995"/>
      <point x="-192" y="938" type="qcurve"/>
      <point x="-218" y="972" type="line"/>
      <point x="-145" y="1048"/>
      <point x="-56" y="1226"/>
      <point x="-56" y="1346" type="qcurve" smooth="yes"/>
      <point x="-56" y="1502" type="line"/>
    </contour>
  </outline>
</glyph>
<glyph name="uni035D" format="2">
  <unicode hex="035D"/>
  <outline>
    <contour>
      <point x="50" y="1250" type="qcurve" smooth="yes"/>
      <point x="-46" y="1250"/>
      <point x="-235" y="1285"/>
      <point x="-407" y="1348"/>
      <point x="-550" y="1434"/>
      <point x="-600" y="1486" type="qcurve"/>
      <point x="-552" y="1486" type="line"/>
      <point x="-501" y="1444"/>
      <point x="-361" y="1375"/>
      <point x="-199" y="1325"/>
      <point x="-32" y="1298"/>
      <point x="46" y="1298" type="qcurve" smooth="yes"/>
      <point x="127" y="1298"/>
      <point x="294" y="1325"/>
      <point x="454" y="1375"/>
      <point x="594" y="1444"/>
      <point x="648" y="1486" type="qcurve"/>
      <point x="696" y="1486" type="line"/>
      <point x="646" y="1433"/>
      <point x="502" y="1346"/>
      <point x="329" y="1284"/>
      <point x="143" y="1250"/>
    </contour>
  </outline>
</glyph>
<glyph name="uni0365" format="2">
  <unicode hex="0365"/>
  <outline>
    <contour>
      <point x="-466" y="1754" type="line"/>
      <point x="-466" y="1202" type="line"/>
      <point x="-514" y="1202" type="line"/>
      <point x="-514" y="1754" type="line"/>
    </contour>
    <contour>
      <point x="-536" y="1880" type="qcurve"/>
      <point x="-537" y="1900"/>
      <point x="-509" y="1928"/>
      <point x="-490" y="1928" type="qcurve" smooth="yes"/>
      <point x="-471" y="1928"/>
      <point x="-444" y="1900"/>
      <point x="-444" y="1880" type="qcurve" smooth="yes"/>
      <point x="-444" y="1862"/>
      <point x="-471" y="1834"/>
      <point x="-490" y="1834" type="qcurve" smooth="yes"/>
      <point x="-509" y="1834"/>
      <point x="-537" y="1862"/>
    </contour>
  </outline>
</glyph>
<glyph name="uni0366" format="2">
  <unicode hex="0366"/>
  <outline>
    <contour>
      <point x="-474" y="1186" type="qcurve"/>
      <point x="-579" y="1187"/>
      <point x="-730" y="1334"/>
      <point x="-730" y="1466" type="qcurve" smooth="yes"/>
      <point x="-730" y="1478" type="line" smooth="yes"/>
      <point x="-730" y="1613"/>
      <point x="-577" y="1760"/>
      <point x="-474" y="1760" type="qcurve" smooth="yes"/>
      <point x="-370" y="1760"/>
      <point x="-226" y="1615"/>
      <point x="-226" y="1478" type="qcurve" smooth="yes"/>
      <point x="-226" y="1466" type="line"/>
      <point x="-227" y="1334"/>
      <point x="-370" y="1187"/>
    </contour>
    <contour>
      <point x="-474" y="1234" type="qcurve"/>
      <point x="-380" y="1233"/>
      <point x="-274" y="1361"/>
      <point x="-274" y="1464" type="qcurve" smooth="yes"/>
      <point x="-274" y="1480" type="line"/>
      <point x="-273" y="1587"/>
      <point x="-380" y="1714"/>
      <point x="-472" y="1714" type="qcurve" smooth="yes"/>
      <point x="-569" y="1714"/>
      <point x="-684" y="1580"/>
      <point x="-684" y="1480" type="qcurve" smooth="yes"/>
      <point x="-684" y="1464" type="line" smooth="yes"/>
      <point x="-684" y="1367"/>
      <point x="-570" y="1233"/>
    </contour>
  </outline>
</glyph>
<glyph name="Sigma" format="2">
  <advance width="1394"/>
  <unicode hex="03A3"/>
  <outline>
    <contour>
      <point x="148" y="0" type="line"/>
      <point x="148" y="46" type="line"/>
      <point x="697" y="632" type="line" smooth="yes"/>
      <point x="721" y="657"/>
      <point x="768" y="708"/>
      <point x="815" y="758"/>
      <point x="838" y="783" type="qcurve"/>
      <point x="838" y="753" type="line"/>
      <point x="815" y="778"/>
      <point x="768" y="828"/>
      <point x="721" y="877"/>
      <point x="697" y="902" type="qcurve" smooth="yes"/>
      <point x="182" y="1444" type="line"/>
      <point x="182" y="1490" type="line"/>
      <point x="1236" y="1490" type="line"/>
      <point x="1236" y="1444" type="line"/>
      <point x="377" y="1444" type="line" smooth="yes"/>
      <point x="339" y="1444"/>
      <point x="262" y="1444"/>
      <point x="224" y="1444" type="qcurve"/>
      <point x="231" y="1459" type="line"/>
      <point x="248" y="1442"/>
      <point x="280" y="1407"/>
      <point x="313" y="1373"/>
      <point x="329" y="1356" type="qcurve" smooth="yes"/>
      <point x="876" y="780" type="line"/>
      <point x="876" y="756" type="line"/>
      <point x="329" y="172" type="line" smooth="yes"/>
      <point x="307" y="149"/>
      <point x="263" y="102"/>
      <point x="219" y="55"/>
      <point x="197" y="31" type="qcurve"/>
      <point x="190" y="46" type="line"/>
      <point x="237" y="46"/>
      <point x="331" y="46"/>
      <point x="377" y="46" type="qcurve" smooth="yes"/>
      <point x="1246" y="46" type="line"/>
      <point x="1246" y="0" type="line"/>
    </contour>
  </outline>
</glyph>
<glyph name="Phi" format="2">
  <advance width="1773"/>
  <unicode hex="03A6"/>
  <outline>
    <contour>
      <point x="879" y="74" type="line" smooth="yes"/>
      <point x="665" y="74"/>
      <point x="335" y="245"/>
      <point x="148" y="548"/>
      <point x="148" y="745" type="qcurve" smooth="yes"/>
      <point x="148" y="942"/>
      <point x="335" y="1245"/>
      <point x="665" y="1416"/>
      <point x="879" y="1416" type="qcurve" smooth="yes"/>
      <point x="893" y="1416" type="line" smooth="yes"/>
      <point x="1108" y="1416"/>
      <point x="1438" y="1245"/>
      <point x="1625" y="942"/>
      <point x="1625" y="745" type="qcurve" smooth="yes"/>
      <point x="1625" y="548"/>
      <point x="1438" y="245"/>
      <point x="1108" y="74"/>
      <point x="893" y="74" type="qcurve" smooth="yes"/>
    </contour>
    <contour>
      <point x="879" y="120" type="qcurve" smooth="yes"/>
      <point x="893" y="120" type="line" smooth="yes"/>
      <point x="1096" y="120"/>
      <point x="1405" y="280"/>
      <point x="1579" y="562"/>
      <point x="1579" y="745" type="qcurve" smooth="yes"/>
      <point x="1579" y="929"/>
      <point x="1405" y="1210"/>
      <point x="1096" y="1370"/>
      <point x="893" y="1370" type="qcurve" smooth="yes"/>
      <point x="879" y="1370" type="line" smooth="yes"/>
      <point x="677" y="1370"/>
      <point x="368" y="1210"/>
      <point x="194" y="929"/>
      <point x="194" y="745" type="qcurve" smooth="yes"/>
      <point x="194" y="562"/>
      <point x="368" y="280"/>
      <point x="677" y="120"/>
    </contour>
    <contour>
      <point x="863" y="-48" type="line"/>
      <point x="863" y="1538" type="line"/>
      <point x="909" y="1538" type="line"/>
      <point x="909" y="-48" type="line"/>
    </contour>
  </outline>
</glyph>
<glyph name="Psi" format="2">
  <advance width="1752"/>
  <unicode hex="03A8"/>
  <outline>
    <contour>
      <point x="1474" y="1490" type="line"/>
      <point x="1520" y="1490" type="line"/>
      <point x="1520" y="1056" type="line" smooth="yes"/>
      <point x="1520" y="908"/>
      <point x="1437" y="679"/>
      <point x="1276" y="521"/>
      <point x="1042" y="440"/>
      <point x="891" y="440" type="qcurve" smooth="yes"/>
      <point x="861" y="440" type="line" smooth="yes"/>
      <point x="710" y="440"/>
      <point x="476" y="521"/>
      <point x="315" y="679"/>
      <point x="232" y="908"/>
      <point x="232" y="1056" type="qcurve" smooth="yes"/>
      <point x="232" y="1490" type="line"/>
      <point x="278" y="1490" type="line"/>
      <point x="278" y="1056" type="line" smooth="yes"/>
      <point x="278" y="871"/>
      <point x="412" y="616"/>
      <point x="672" y="486"/>
      <point x="861" y="486" type="qcurve" smooth="yes"/>
      <point x="891" y="486" type="line" smooth="yes"/>
      <point x="1081" y="486"/>
      <point x="1340" y="617"/>
      <point x="1474" y="871"/>
      <point x="1474" y="1056" type="qcurve" smooth="yes"/>
    </contour>
    <contour>
      <point x="853" y="1490" type="line"/>
      <point x="899" y="1490" type="line"/>
      <point x="899" y="0" type="line"/>
      <point x="853" y="0" type="line"/>
    </contour>
  </outline>
</glyph>
<glyph name="uni03A9" format="2">
  <advance width="1542"/>
  <unicode hex="03A9"/>
  <unicode hex="2126"/>
  <anchor x="845" y="0" name="m.uni0326"/>
  <anchor x="847" y="1490" name="m.uni030F_1"/>
  <outline>
    <contour>
      <point x="148" y="0" type="line"/>
      <point x="148" y="46" type="line"/>
      <point x="572" y="46" type="line"/>
      <point x="572" y="182" type="line"/>
      <point x="437" y="230"/>
      <point x="247" y="409"/>
      <point x="148" y="661"/>
      <point x="148" y="816" type="qcurve" smooth="yes"/>
      <point x="148" y="967"/>
      <point x="240" y="1220"/>
      <point x="408" y="1407"/>
      <point x="636" y="1510"/>
      <point x="771" y="1510" type="qcurve" smooth="yes"/>
      <point x="906" y="1510"/>
      <point x="1134" y="1407"/>
      <point x="1302" y="1220"/>
      <point x="1394" y="967"/>
      <point x="1394" y="816" type="qcurve" smooth="yes"/>
      <point x="1394" y="661"/>
      <point x="1295" y="409"/>
      <point x="1106" y="230"/>
      <point x="970" y="182" type="qcurve"/>
      <point x="970" y="46" type="line"/>
      <point x="1394" y="46" type="line"/>
      <point x="1394" y="0" type="line"/>
      <point x="924" y="0" type="line"/>
      <point x="924" y="209" type="line"/>
      <point x="1130" y="276"/>
      <point x="1348" y="591"/>
      <point x="1348" y="816" type="qcurve" smooth="yes"/>
      <point x="1348" y="1004"/>
      <point x="1199" y="1297"/>
      <point x="939" y="1464"/>
      <point x="771" y="1464" type="qcurve" smooth="yes"/>
      <point x="604" y="1464"/>
      <point x="343" y="1297"/>
      <point x="194" y="1004"/>
      <point x="194" y="816" type="qcurve" smooth="yes"/>
      <point x="194" y="591"/>
      <point x="412" y="276"/>
      <point x="618" y="209" type="qcurve"/>
      <point x="618" y="0" type="line"/>
    </contour>
  </outline>
</glyph>
<glyph name="gamma" format="2">
  <advance width="1114"/>
  <unicode hex="03B3"/>
  <outline>
    <contour>
      <point x="537" y="-25" type="line"/>
      <point x="100" y="1118" type="line"/>
      <point x="148" y="1118" type="line"/>
      <point x="447" y="336" type="line" smooth="yes"/>
      <point x="476" y="260"/>
      <point x="532" y="106"/>
      <point x="563" y="30" type="qcurve"/>
      <point x="551" y="30" type="line"/>
      <point x="582" y="106"/>
      <point x="638" y="260"/>
      <point x="667" y="336" type="qcurve" smooth="yes"/>
      <point x="966" y="1118" type="line"/>
      <point x="1014" y="1118" type="line"/>
      <point x="577" y="-25" type="line"/>
    </contour>
    <contour>
      <point x="534" y="-418" type="line"/>
      <point x="534" y="8" type="line"/>
      <point x="580" y="8" type="line"/>
      <point x="580" y="-418" type="line"/>
    </contour>
  </outline>
</glyph>
<glyph name="rho" format="2">
  <advance width="1190"/>
  <unicode hex="03C1"/>
  <anchor x="793" y="1242" name="m.uni030F_1"/>
  <outline>
    <contour>
      <point x="198" y="-418" type="line"/>
      <point x="198" y="556" type="line" smooth="yes"/>
      <point x="198" y="721"/>
      <point x="305" y="982"/>
      <point x="500" y="1134"/>
      <point x="630" y="1134" type="qcurve" smooth="yes"/>
      <point x="761" y="1134"/>
      <point x="954" y="982"/>
      <point x="1060" y="720"/>
      <point x="1060" y="556" type="qcurve" smooth="yes"/>
      <point x="1060" y="391"/>
      <point x="955" y="128"/>
      <point x="762" y="-24"/>
      <point x="630" y="-24" type="qcurve" smooth="yes"/>
      <point x="540" y="-24"/>
      <point x="390" y="50"/>
      <point x="280" y="187"/>
      <point x="250" y="280" type="qcurve"/>
      <point x="244" y="280" type="line"/>
      <point x="244" y="-418" type="line"/>
    </contour>
    <contour>
      <point x="630" y="22" type="qcurve" smooth="yes"/>
      <point x="748" y="22"/>
      <point x="920" y="163"/>
      <point x="1014" y="405"/>
      <point x="1014" y="556" type="qcurve" smooth="yes"/>
      <point x="1014" y="707"/>
      <point x="920" y="948"/>
      <point x="748" y="1088"/>
      <point x="630" y="1088" type="qcurve" smooth="yes"/>
      <point x="512" y="1088"/>
      <point x="339" y="948"/>
      <point x="244" y="707"/>
      <point x="244" y="556" type="qcurve" smooth="yes"/>
      <point x="244" y="405"/>
      <point x="338" y="163"/>
      <point x="511" y="22"/>
    </contour>
  </outline>
</glyph>
<glyph name="uni03C2" format="2">
  <advance width="1090"/>
  <unicode hex="03C2"/>
  <outline>
    <contour>
      <point x="889" y="-264" type="line"/>
      <point x="889" y="-140" type="line" smooth="yes"/>
      <point x="889" y="-71"/>
      <point x="808" y="0"/>
      <point x="723" y="0" type="qcurve" smooth="yes"/>
      <point x="594" y="0" type="line" smooth="yes"/>
      <point x="462" y="0"/>
      <point x="252" y="142"/>
      <point x="130" y="394"/>
      <point x="130" y="559" type="qcurve" smooth="yes"/>
      <point x="130" y="724"/>
      <point x="252" y="984"/>
      <point x="462" y="1134"/>
      <point x="594" y="1134" type="qcurve" smooth="yes"/>
      <point x="687" y="1134"/>
      <point x="825" y="1068"/>
      <point x="917" y="979"/>
      <point x="966" y="906"/>
      <point x="970" y="899" type="qcurve"/>
      <point x="930" y="876" type="line"/>
      <point x="926" y="883"/>
      <point x="882" y="950"/>
      <point x="799" y="1029"/>
      <point x="677" y="1088"/>
      <point x="594" y="1088" type="qcurve" smooth="yes"/>
      <point x="476" y="1088"/>
      <point x="287" y="951"/>
      <point x="176" y="713"/>
      <point x="176" y="559" type="qcurve" smooth="yes"/>
      <point x="176" y="405"/>
      <point x="287" y="174"/>
      <point x="476" y="46"/>
      <point x="594" y="46" type="qcurve" smooth="yes"/>
      <point x="723" y="46" type="line" smooth="yes"/>
      <point x="791" y="46"/>
      <point x="886" y="3"/>
      <point x="935" y="-80"/>
      <point x="935" y="-140" type="qcurve" smooth="yes"/>
      <point x="935" y="-264" type="line"/>
    </contour>
  </outline>
</glyph>
<glyph name="sigma" format="2">
  <advance width="1200"/>
  <unicode hex="03C3"/>
  <outline>
    <contour>
      <point x="594" y="-24" type="qcurve" smooth="yes"/>
      <point x="462" y="-24"/>
      <point x="252" y="125"/>
      <point x="130" y="383"/>
      <point x="130" y="548" type="qcurve" smooth="yes"/>
      <point x="130" y="713"/>
      <point x="252" y="970"/>
      <point x="462" y="1118"/>
      <point x="594" y="1118" type="qcurve" smooth="yes"/>
      <point x="1160" y="1118" type="line"/>
      <point x="1160" y="1072" type="line"/>
      <point x="706" y="1072" type="line"/>
      <point x="594" y="1072" type="line" smooth="yes"/>
      <point x="476" y="1072"/>
      <point x="287" y="935"/>
      <point x="176" y="699"/>
      <point x="176" y="548" type="qcurve" smooth="yes"/>
      <point x="176" y="396"/>
      <point x="286" y="158"/>
      <point x="475" y="22"/>
      <point x="594" y="22" type="qcurve" smooth="yes"/>
      <point x="713" y="22"/>
      <point x="901" y="158"/>
      <point x="1010" y="396"/>
      <point x="1010" y="548" type="qcurve" smooth="yes"/>
      <point x="1010" y="699"/>
      <point x="900" y="936"/>
      <point x="712" y="1072"/>
      <point x="594" y="1072" type="qcurve"/>
      <point x="594" y="1110" type="line"/>
      <point x="692" y="1110"/>
      <point x="860" y="1027"/>
      <point x="986" y="877"/>
      <point x="1056" y="671"/>
      <point x="1056" y="548" type="qcurve" smooth="yes"/>
      <point x="1056" y="383"/>
      <point x="935" y="125"/>
      <point x="726" y="-24"/>
    </contour>
  </outline>
</glyph>
<glyph name="kappa1" format="2">
  <advance width="1226"/>
  <unicode hex="03F0"/>
  <outline>
    <contour>
      <point x="192" y="0" type="line"/>
      <point x="974" y="1118" type="line"/>
      <point x="1030" y="1118" type="line"/>
      <point x="248" y="0" type="line"/>
    </contour>
    <contour>
      <point x="276" y="72" type="line"/>
      <point x="276" y="980" type="line" smooth="yes"/>
      <point x="276" y="1047"/>
      <point x="239" y="1090"/>
      <point x="184" y="1090" type="qcurve" smooth="yes"/>
      <point x="165" y="1090"/>
      <point x="128" y="1088"/>
      <point x="110" y="1086" type="qcurve"/>
      <point x="110" y="1128" type="line"/>
      <point x="127" y="1133"/>
      <point x="166" y="1138"/>
      <point x="186" y="1138" type="qcurve" smooth="yes"/>
      <point x="222" y="1138"/>
      <point x="273" y="1121"/>
      <point x="306" y="1086"/>
      <point x="322" y="1032"/>
      <point x="322" y="994" type="qcurve" smooth="yes"/>
      <point x="322" y="114" type="line"/>
    </contour>
    <contour>
      <point x="1038" y="-18" type="qcurve"/>
      <point x="1002" y="-18"/>
      <point x="950" y="-1"/>
      <point x="916" y="34"/>
      <point x="900" y="89"/>
      <point x="900" y="126" type="qcurve" smooth="yes"/>
      <point x="900" y="1006" type="line"/>
      <point x="946" y="1048" type="line"/>
      <point x="946" y="140" type="line"/>
      <point x="947" y="73"/>
      <point x="985" y="30"/>
      <point x="1040" y="30" type="qcurve" smooth="yes"/>
      <point x="1059" y="30"/>
      <point x="1095" y="32"/>
      <point x="1112" y="34" type="qcurve"/>
      <point x="1112" y="-8" type="line"/>
      <point x="1096" y="-13"/>
      <point x="1058" y="-17"/>
    </contour>
  </outline>
</glyph>
<glyph name="rho1" format="2">
  <advance width="1188"/>
  <unicode hex="03F1"/>
  <outline>
    <contour>
      <point x="972" y="-474" type="qcurve"/>
      <point x="926" y="-472" type="line"/>
      <point x="926" y="-412"/>
      <point x="879" y="-329"/>
      <point x="761" y="-268"/>
      <point x="652" y="-242" type="qcurve" smooth="yes"/>
      <point x="545" y="-217"/>
      <point x="374" y="-135"/>
      <point x="251" y="9"/>
      <point x="179" y="247"/>
      <point x="170" y="428" type="qcurve" smooth="yes"/>
      <point x="162" y="582" type="line"/>
      <point x="210" y="554" type="line"/>
      <point x="216" y="428" type="line"/>
      <point x="226" y="261"/>
      <point x="287" y="42"/>
      <point x="395" y="-93"/>
      <point x="555" y="-171"/>
      <point x="664" y="-198" type="qcurve" smooth="yes"/>
      <point x="749" y="-219"/>
      <point x="867" y="-267"/>
      <point x="939" y="-331"/>
      <point x="972" y="-417"/>
    </contour>
    <contour>
      <point x="596" y="64" type="qcurve" smooth="yes"/>
      <point x="490" y="64"/>
      <point x="328" y="152"/>
      <point x="218" y="311"/>
      <point x="186" y="418" type="qcurve"/>
      <point x="181" y="443"/>
      <point x="173" y="496"/>
      <point x="166" y="552"/>
      <point x="162" y="580" type="qcurve"/>
      <point x="162" y="584" type="line"/>
      <point x="163" y="750"/>
      <point x="270" y="997"/>
      <point x="465" y="1134"/>
      <point x="596" y="1134" type="qcurve" smooth="yes"/>
      <point x="728" y="1134"/>
      <point x="923" y="996"/>
      <point x="1030" y="749"/>
      <point x="1030" y="584" type="qcurve" smooth="yes"/>
      <point x="1030" y="582" type="line" smooth="yes"/>
      <point x="1030" y="433"/>
      <point x="923" y="199"/>
      <point x="728" y="64"/>
    </contour>
    <contour>
      <point x="596" y="110" type="qcurve"/>
      <point x="714" y="111"/>
      <point x="888" y="233"/>
      <point x="984" y="445"/>
      <point x="984" y="580" type="qcurve" smooth="yes"/>
      <point x="984" y="584" type="line" smooth="yes"/>
      <point x="984" y="736"/>
      <point x="888" y="962"/>
      <point x="715" y="1088"/>
      <point x="596" y="1088" type="qcurve" smooth="yes"/>
      <point x="478" y="1088"/>
      <point x="305" y="962"/>
      <point x="210" y="736"/>
      <point x="210" y="584" type="qcurve" smooth="yes"/>
      <point x="210" y="582" type="line" smooth="yes"/>
      <point x="210" y="447"/>
      <point x="305" y="234"/>
      <point x="478" y="111"/>
    </contour>
  </outline>
</glyph>
<glyph name="uni042A" format="2">
  <advance width="1626"/>
  <unicode hex="042A"/>
  <outline>
    <contour>
      <point x="128" y="1444" type="line"/>
      <point x="128" y="1490" type="line"/>
      <point x="582" y="1490" type="line"/>
      <point x="582" y="1444" type="line"/>
    </contour>
    <contour>
      <point x="602" y="840" type="line"/>
      <point x="1080" y="840" type="line" smooth="yes"/>
      <point x="1208" y="840"/>
      <point x="1395" y="727"/>
      <point x="1496" y="537"/>
      <point x="1496" y="421" type="qcurve" smooth="yes"/>
      <point x="1496" y="298"/>
      <point x="1395" y="108"/>
      <point x="1208" y="0"/>
      <point x="1080" y="0" type="qcurve" smooth="yes"/>
      <point x="576" y="0" type="line"/>
      <point x="576" y="1490" type="line"/>
      <point x="622" y="1490" type="line"/>
      <point x="622" y="46" type="line"/>
      <point x="1080" y="46" type="line" smooth="yes"/>
      <point x="1253" y="46"/>
      <point x="1450" y="257"/>
      <point x="1450" y="421" type="qcurve" smooth="yes"/>
      <point x="1450" y="524"/>
      <point x="1361" y="693"/>
      <point x="1196" y="794"/>
      <point x="1080" y="794" type="qcurve" smooth="yes"/>
      <point x="602" y="794" type="line"/>
    </contour>
  </outline>
</glyph>
<glyph name="uni0434" format="2">
  <advance width="1182"/>
  <unicode hex="0434"/>
  <outline>
    <contour>
      <point x="42" y="-314" type="line"/>
      <point x="42" y="46" type="line"/>
      <point x="144" y="46" type="line"/>
      <point x="184" y="97"/>
      <point x="246" y="214"/>
      <point x="293" y="351"/>
      <point x="324" y="509"/>
      <point x="332" y="600" type="qcurve" smooth="yes"/>
      <point x="378" y="1118" type="line"/>
      <point x="942" y="1118" type="line"/>
      <point x="942" y="46" type="line"/>
      <point x="1096" y="46" type="line"/>
      <point x="1096" y="-314" type="line"/>
      <point x="1050" y="-314" type="line"/>
      <point x="1050" y="0" type="line"/>
      <point x="88" y="0" type="line"/>
      <point x="88" y="-314" type="line"/>
    </contour>
    <contour>
      <point x="202" y="46" type="qcurve"/>
      <point x="896" y="46" type="line"/>
      <point x="896" y="1072" type="line"/>
      <point x="420" y="1072" type="line"/>
      <point x="378" y="600" type="line" smooth="yes"/>
      <point x="362" y="422"/>
      <point x="278" y="159"/>
    </contour>
  </outline>
</glyph>
<glyph name="uni0437" format="2">
  <advance width="997"/>
  <unicode hex="0437"/>
  <anchor x="706" y="1242" name="m.uni030F_1"/>
  <anchor x="706" y="0" name="m.uni0327_3"/>
  <outline>
    <contour>
      <point x="503" y="-15" type="qcurve" smooth="yes"/>
      <point x="401" y="-15"/>
      <point x="238" y="63"/>
      <point x="144" y="200"/>
      <point x="144" y="287" type="qcurve"/>
      <point x="190" y="287" type="line"/>
      <point x="191" y="173"/>
      <point x="370" y="31"/>
      <point x="503" y="31" type="qcurve" smooth="yes"/>
      <point x="643" y="31"/>
      <point x="816" y="182"/>
      <point x="816" y="291" type="qcurve" smooth="yes"/>
      <point x="816" y="410"/>
      <point x="620" y="554"/>
      <point x="469" y="554" type="qcurve" smooth="yes"/>
      <point x="445" y="554" type="line"/>
      <point x="445" y="599" type="line"/>
      <point x="469" y="599" type="line" smooth="yes"/>
      <point x="602" y="599"/>
      <point x="781" y="733"/>
      <point x="781" y="845" type="qcurve" smooth="yes"/>
      <point x="781" y="951"/>
      <point x="625" y="1088"/>
      <point x="501" y="1088" type="qcurve" smooth="yes"/>
      <point x="377" y="1088"/>
      <point x="218" y="948"/>
      <point x="218" y="834" type="qcurve"/>
      <point x="171" y="834" type="line"/>
      <point x="172" y="922"/>
      <point x="257" y="1057"/>
      <point x="406" y="1134"/>
      <point x="501" y="1134" type="qcurve" smooth="yes"/>
      <point x="596" y="1134"/>
      <point x="743" y="1059"/>
      <point x="827" y="929"/>
      <point x="827" y="846" type="qcurve" smooth="yes"/>
      <point x="827" y="749"/>
      <point x="707" y="609"/>
      <point x="606" y="581" type="qcurve"/>
      <point x="606" y="576" type="line"/>
      <point x="723" y="550"/>
      <point x="862" y="398"/>
      <point x="862" y="291" type="qcurve" smooth="yes"/>
      <point x="862" y="205"/>
      <point x="770" y="66"/>
      <point x="609" y="-15"/>
    </contour>
  </outline>
</glyph>
<glyph name="uni0466" format="2">
  <advance width="1310"/>
  <unicode hex="0466"/>
  <outline>
    <contour>
      <point x="678" y="559" type="line"/>
      <point x="678" y="0" type="line"/>
      <point x="632" y="0" type="line"/>
      <point x="632" y="559" type="line"/>
    </contour>
    <contour>
      <point x="66" y="0" type="line"/>
      <point x="623" y="1490" type="line"/>
      <point x="686" y="1490" type="line"/>
      <point x="1244" y="0" type="line"/>
      <point x="1195" y="0" type="line"/>
      <point x="763" y="1154" type="line" smooth="yes"/>
      <point x="733" y="1234"/>
      <point x="674" y="1394"/>
      <point x="645" y="1474" type="qcurve"/>
      <point x="663" y="1474" type="line"/>
      <point x="634" y="1394"/>
      <point x="575" y="1234"/>
      <point x="545" y="1154" type="qcurve" smooth="yes"/>
      <point x="115" y="0" type="line"/>
    </contour>
    <contour>
      <point x="285" y="536" type="line"/>
      <point x="285" y="582" type="line"/>
      <point x="1025" y="582" type="line"/>
      <point x="1025" y="536" type="line"/>
    </contour>
  </outline>
</glyph>
<glyph name="uni046E" format="2">
  <advance width="1040"/>
  <unicode hex="046E"/>
  <outline>
    <contour>
      <point x="136" y="1490" type="line"/>
      <point x="478" y="1490" type="line" smooth="yes"/>
      <point x="607" y="1490"/>
      <point x="793" y="1407"/>
      <point x="894" y="1250"/>
      <point x="894" y="1138" type="qcurve" smooth="yes"/>
      <point x="894" y="1018"/>
      <point x="778" y="841"/>
      <point x="558" y="744"/>
      <point x="402" y="744" type="qcurve" smooth="yes"/>
      <point x="296" y="744" type="line"/>
      <point x="296" y="792" type="line"/>
      <point x="398" y="792" type="line"/>
      <point x="615" y="791"/>
      <point x="846" y="978"/>
      <point x="846" y="1138" type="qcurve" smooth="yes"/>
      <point x="846" y="1287"/>
      <point x="653" y="1442"/>
      <point x="478" y="1442" type="qcurve" smooth="yes"/>
      <point x="136" y="1442" type="line"/>
    </contour>
    <contour>
      <point x="296" y="792" type="line"/>
      <point x="410" y="792" type="line"/>
      <point x="645" y="791"/>
      <point x="890" y="586"/>
      <point x="890" y="406" type="qcurve"/>
      <point x="891" y="287"/>
      <point x="787" y="93"/>
      <point x="590" y="-20"/>
      <point x="450" y="-20" type="qcurve" smooth="yes"/>
      <point x="444" y="-20" type="line" smooth="yes"/>
      <point x="319" y="-20"/>
      <point x="196" y="-103"/>
      <point x="194" y="-184" type="qcurve"/>
      <point x="194" y="-235"/>
      <point x="242" y="-319"/>
      <point x="324" y="-385"/>
      <point x="374" y="-412" type="qcurve"/>
      <point x="350" y="-448" type="line"/>
      <point x="295" y="-422"/>
      <point x="203" y="-345"/>
      <point x="148" y="-243"/>
      <point x="148" y="-182" type="qcurve" smooth="yes"/>
      <point x="148" y="-81"/>
      <point x="302" y="26"/>
      <point x="444" y="26" type="qcurve" smooth="yes"/>
      <point x="450" y="26" type="line" smooth="yes"/>
      <point x="575" y="26"/>
      <point x="750" y="125"/>
      <point x="843" y="297"/>
      <point x="844" y="404" type="qcurve"/>
      <point x="844" y="566"/>
      <point x="627" y="744"/>
      <point x="408" y="744" type="qcurve" smooth="yes"/>
      <point x="296" y="744" type="line"/>
    </contour>
    <contour>
      <point x="350" y="1920" type="line"/>
      <point x="536" y="1714" type="line"/>
      <point x="728" y="1920" type="line"/>
      <point x="760" y="1920" type="line"/>
      <point x="760" y="1908" type="line"/>
      <point x="538" y="1644" type="line"/>
      <point x="532" y="1644" type="line"/>
      <point x="320" y="1908" type="line"/>
      <point x="320" y="1920" type="line"/>
    </contour>
  </outline>
</glyph>
<glyph name="uni0481" format="2">
  <advance width="1118"/>
  <unicode hex="0481"/>
  <outline>
    <contour>
      <point x="623" y="22" type="line"/>
      <point x="623" y="-330" type="line"/>
      <point x="577" y="-330" type="line"/>
      <point x="577" y="22" type="line"/>
    </contour>
    <contour>
      <point x="600" y="-24" type="line"/>
      <point x="464" y="-24"/>
      <point x="252" y="128"/>
      <point x="130" y="391"/>
      <point x="130" y="556" type="qcurve" smooth="yes"/>
      <point x="130" y="720"/>
      <point x="251" y="981"/>
      <point x="464" y="1134"/>
      <point x="600" y="1134" type="qcurve" smooth="yes"/>
      <point x="700" y="1134"/>
      <point x="868" y="1048"/>
      <point x="981" y="894"/>
      <point x="998" y="792" type="qcurve"/>
      <point x="952" y="792" type="line"/>
      <point x="938" y="877"/>
      <point x="837" y="1010"/>
      <point x="688" y="1088"/>
      <point x="600" y="1088" type="qcurve" smooth="yes"/>
      <point x="479" y="1088"/>
      <point x="288" y="949"/>
      <point x="176" y="709"/>
      <point x="176" y="556" type="qcurve" smooth="yes"/>
      <point x="176" y="407"/>
      <point x="284" y="165"/>
      <point x="476" y="22"/>
      <point x="600" y="22" type="qcurve"/>
    </contour>
  </outline>
</glyph>
<glyph name="uni04A7" format="2">
  <advance width="1824"/>
  <unicode hex="04A7"/>
  <outline>
    <contour>
      <point x="962" y="536" type="line"/>
      <point x="962" y="582" type="line"/>
      <point x="1112" y="582" type="line" smooth="yes"/>
      <point x="1312" y="582"/>
      <point x="1570" y="494"/>
      <point x="1695" y="321"/>
      <point x="1694" y="192" type="qcurve"/>
      <point x="1694" y="107"/>
      <point x="1640" y="-38"/>
      <point x="1540" y="-145"/>
      <point x="1401" y="-204"/>
      <point x="1316" y="-204" type="qcurve"/>
      <point x="1304" y="-158" type="line"/>
      <point x="1465" y="-157"/>
      <point x="1648" y="42"/>
      <point x="1648" y="194" type="qcurve" smooth="yes"/>
      <point x="1648" y="310"/>
      <point x="1533" y="462"/>
      <point x="1296" y="536"/>
      <point x="1112" y="536" type="qcurve" smooth="yes"/>
    </contour>
    <contour>
      <point x="978" y="1118" type="line"/>
      <point x="978" y="0" type="line"/>
      <point x="932" y="0" type="line"/>
      <point x="932" y="1072" type="line"/>
      <point x="244" y="1072" type="line"/>
      <point x="244" y="0" type="line"/>
      <point x="198" y="0" type="line"/>
      <point x="198" y="1118" type="line"/>
    </contour>
  </outline>
</glyph>
<glyph name="uni04A8" format="2">
  <advance width="2073"/>
  <unicode hex="04A8"/>
  <outline>
    <contour>
      <point x="1662" y="-25" type="qcurve" smooth="yes"/>
      <point x="1591" y="-25"/>
      <point x="1456" y="-2"/>
      <point x="1336" y="43"/>
      <point x="1286" y="75" type="qcurve"/>
      <point x="1170" y="132"/>
      <point x="986" y="344"/>
      <point x="880" y="620"/>
      <point x="880" y="771" type="qcurve" smooth="yes"/>
      <point x="880" y="932"/>
      <point x="1004" y="1178"/>
      <point x="1224" y="1317"/>
      <point x="1366" y="1317" type="qcurve" smooth="yes"/>
      <point x="1509" y="1317"/>
      <point x="1729" y="1183"/>
      <point x="1853" y="947"/>
      <point x="1853" y="793" type="qcurve" smooth="yes"/>
      <point x="1853" y="657"/>
      <point x="1758" y="412"/>
      <point x="1585" y="209"/>
      <point x="1348" y="61"/>
      <point x="1061" y="-20"/>
      <point x="901" y="-20" type="qcurve" smooth="yes"/>
      <point x="653" y="-20"/>
      <point x="317" y="173"/>
      <point x="148" y="518"/>
      <point x="148" y="744" type="qcurve" smooth="yes"/>
      <point x="148" y="972"/>
      <point x="304" y="1317"/>
      <point x="582" y="1510"/>
      <point x="766" y="1510" type="qcurve"/>
      <point x="766" y="1464" type="line"/>
      <point x="597" y="1464"/>
      <point x="339" y="1284"/>
      <point x="194" y="960"/>
      <point x="194" y="744" type="qcurve" smooth="yes"/>
      <point x="194" y="532"/>
      <point x="351" y="208"/>
      <point x="666" y="26"/>
      <point x="901" y="26" type="qcurve" smooth="yes"/>
      <point x="1092" y="26"/>
      <point x="1421" y="144"/>
      <point x="1668" y="354"/>
      <point x="1807" y="632"/>
      <point x="1807" y="793" type="qcurve" smooth="yes"/>
      <point x="1807" y="935"/>
      <point x="1694" y="1150"/>
      <point x="1496" y="1271"/>
      <point x="1366" y="1271" type="qcurve" smooth="yes"/>
      <point x="1237" y="1271"/>
      <point x="1038" y="1144"/>
      <point x="926" y="919"/>
      <point x="926" y="771" type="qcurve" smooth="yes"/>
      <point x="926" y="618"/>
      <point x="1036" y="351"/>
      <point x="1221" y="151"/>
      <point x="1332" y="98" type="qcurve"/>
      <point x="1396" y="61"/>
      <point x="1571" y="21"/>
      <point x="1662" y="21" type="qcurve" smooth="yes"/>
      <point x="1736" y="21"/>
      <point x="1858" y="49"/>
      <point x="1925" y="81" type="qcurve"/>
      <point x="1945" y="39" type="line"/>
      <point x="1898" y="17"/>
      <point x="1807" y="-12"/>
      <point x="1714" y="-25"/>
    </contour>
  </outline>
</glyph>
<glyph name="uni04A9" format="2">
  <advance width="1524"/>
  <unicode hex="04A9"/>
  <outline>
    <contour>
      <point x="710" y="-24" type="qcurve" smooth="yes"/>
      <point x="523" y="-24"/>
      <point x="264" y="129"/>
      <point x="130" y="391"/>
      <point x="130" y="556" type="qcurve" smooth="yes"/>
      <point x="130" y="721"/>
      <point x="252" y="982"/>
      <point x="462" y="1134"/>
      <point x="594" y="1134" type="qcurve"/>
      <point x="594" y="1088" type="line"/>
      <point x="476" y="1088"/>
      <point x="286" y="948"/>
      <point x="176" y="708"/>
      <point x="176" y="556" type="qcurve" smooth="yes"/>
      <point x="176" y="404"/>
      <point x="298" y="162"/>
      <point x="536" y="22"/>
      <point x="710" y="22" type="qcurve" smooth="yes"/>
      <point x="839" y="22"/>
      <point x="1063" y="100"/>
      <point x="1231" y="243"/>
      <point x="1326" y="437"/>
      <point x="1326" y="554" type="qcurve" smooth="yes"/>
      <point x="1326" y="666"/>
      <point x="1234" y="838"/>
      <point x="1073" y="936"/>
      <point x="967" y="936" type="qcurve" smooth="yes"/>
      <point x="862" y="936"/>
      <point x="701" y="838"/>
      <point x="610" y="666"/>
      <point x="610" y="554" type="qcurve" smooth="yes"/>
      <point x="610" y="442"/>
      <point x="705" y="246"/>
      <point x="880" y="98"/>
      <point x="999" y="57" type="qcurve"/>
      <point x="1052" y="34"/>
      <point x="1185" y="22"/>
      <point x="1228" y="22" type="qcurve" smooth="yes"/>
      <point x="1304" y="22"/>
      <point x="1401" y="46"/>
      <point x="1464" y="77" type="qcurve"/>
      <point x="1484" y="36" type="line"/>
      <point x="1418" y="2"/>
      <point x="1296" y="-24"/>
      <point x="1228" y="-24" type="qcurve" smooth="yes"/>
      <point x="1165" y="-24"/>
      <point x="1000" y="1"/>
      <point x="933" y="35" type="qcurve"/>
      <point x="764" y="104"/>
      <point x="564" y="382"/>
      <point x="564" y="554" type="qcurve" smooth="yes"/>
      <point x="564" y="680"/>
      <point x="668" y="873"/>
      <point x="851" y="982"/>
      <point x="967" y="982" type="qcurve" smooth="yes"/>
      <point x="1084" y="982"/>
      <point x="1267" y="873"/>
      <point x="1372" y="680"/>
      <point x="1372" y="554" type="qcurve" smooth="yes"/>
      <point x="1372" y="429"/>
      <point x="1271" y="218"/>
      <point x="1090" y="62"/>
      <point x="850" y="-24"/>
    </contour>
  </outline>
</glyph>
<glyph name="uni04D8" format="2">
  <advance width="1536"/>
  <unicode hex="04D8"/>
  <anchor x="756" y="0" name="m.uni0326"/>
  <anchor x="756" y="1490" name="m.uni030F_1"/>
  <outline>
    <contour>
      <point x="766" y="-20" type="qcurve" smooth="yes"/>
      <point x="583" y="-20"/>
      <point x="314" y="171"/>
      <point x="166" y="507"/>
      <point x="166" y="724" type="qcurve" smooth="yes"/>
      <point x="166" y="768" type="line"/>
      <point x="1357" y="768" type="line"/>
      <point x="1357" y="722" type="line"/>
      <point x="192" y="722" type="line"/>
      <point x="212" y="732" type="line"/>
      <point x="212" y="525"/>
      <point x="346" y="206"/>
      <point x="595" y="26"/>
      <point x="766" y="26" type="qcurve" smooth="yes"/>
      <point x="942" y="26"/>
      <point x="1201" y="207"/>
      <point x="1342" y="531"/>
      <point x="1342" y="744" type="qcurve" smooth="yes"/>
      <point x="1342" y="960"/>
      <point x="1199" y="1284"/>
      <point x="942" y="1464"/>
      <point x="770" y="1464" type="qcurve" smooth="yes"/>
      <point x="655" y="1464"/>
      <point x="473" y="1385"/>
      <point x="341" y="1255"/>
      <point x="260" y="1100"/>
      <point x="247" y="1024" type="qcurve"/>
      <point x="200" y="1024" type="line"/>
      <point x="214" y="1104"/>
      <point x="297" y="1274"/>
      <point x="439" y="1420"/>
      <point x="640" y="1510"/>
      <point x="770" y="1510" type="qcurve" smooth="yes"/>
      <point x="955" y="1510"/>
      <point x="1233" y="1318"/>
      <point x="1388" y="974"/>
      <point x="1388" y="744" type="qcurve" smooth="yes"/>
      <point x="1388" y="573"/>
      <point x="1300" y="293"/>
      <point x="1137" y="90"/>
      <point x="907" y="-20"/>
    </contour>
  </outline>
</glyph>
<glyph name="e.sups" format="2">
  <advance width="788"/>
  <unicode hex="1D49"/>
  <outline>
    <contour>
      <point x="414" y="730" type="qcurve" smooth="yes"/>
      <point x="315" y="730"/>
      <point x="166" y="830"/>
      <point x="84" y="1003"/>
      <point x="84" y="1114" type="qcurve" smooth="yes"/>
      <point x="84" y="1225"/>
      <point x="166" y="1400"/>
      <point x="307" y="1502"/>
      <point x="396" y="1502" type="qcurve" smooth="yes"/>
      <point x="482" y="1502"/>
      <point x="621" y="1409"/>
      <point x="704" y="1247"/>
      <point x="704" y="1144" type="qcurve" smooth="yes"/>
      <point x="704" y="1112" type="line"/>
      <point x="110" y="1112" type="line"/>
      <point x="110" y="1152" type="line"/>
      <point x="658" y="1152" type="line"/>
      <point x="658" y="1237"/>
      <point x="588" y="1375"/>
      <point x="470" y="1458"/>
      <point x="396" y="1458" type="qcurve" smooth="yes"/>
      <point x="322" y="1458"/>
      <point x="201" y="1370"/>
      <point x="130" y="1220"/>
      <point x="130" y="1128" type="qcurve" smooth="yes"/>
      <point x="130" y="1114" type="line"/>
      <point x="129" y="966"/>
      <point x="283" y="770"/>
      <point x="414" y="770" type="qcurve" smooth="yes"/>
      <point x="478" y="770"/>
      <point x="566" y="815"/>
      <point x="623" y="877"/>
      <point x="638" y="902" type="qcurve"/>
      <point x="674" y="884" type="line"/>
      <point x="651" y="834"/>
      <point x="521" y="730"/>
    </contour>
  </outline>
</glyph>
<glyph name="m.sups" format="2">
  <advance width="1150"/>
  <unicode hex="1D50"/>
  <outline>
    <contour>
      <point x="128" y="744" type="line"/>
      <point x="128" y="1490" type="line"/>
      <point x="172" y="1490" type="line"/>
      <point x="172" y="1376" type="line"/>
      <point x="178" y="1376" type="line"/>
      <point x="198" y="1433"/>
      <point x="306" y="1498"/>
      <point x="376" y="1498" type="qcurve" smooth="yes"/>
      <point x="459" y="1498"/>
      <point x="559" y="1418"/>
      <point x="578" y="1350" type="qcurve"/>
      <point x="584" y="1350" type="line"/>
      <point x="604" y="1418"/>
      <point x="717" y="1498"/>
      <point x="800" y="1498" type="qcurve" smooth="yes"/>
      <point x="909" y="1498"/>
      <point x="1022" y="1361"/>
      <point x="1022" y="1246" type="qcurve" smooth="yes"/>
      <point x="1022" y="744" type="line"/>
      <point x="974" y="744" type="line"/>
      <point x="974" y="1246" type="line"/>
      <point x="975" y="1341"/>
      <point x="886" y="1454"/>
      <point x="794" y="1454" type="qcurve" smooth="yes"/>
      <point x="698" y="1454"/>
      <point x="596" y="1334"/>
      <point x="596" y="1242" type="qcurve" smooth="yes"/>
      <point x="596" y="744" type="line"/>
      <point x="552" y="744" type="line"/>
      <point x="552" y="1246" type="line"/>
      <point x="553" y="1339"/>
      <point x="464" y="1454"/>
      <point x="370" y="1454" type="qcurve" smooth="yes"/>
      <point x="278" y="1454"/>
      <point x="172" y="1333"/>
      <point x="172" y="1240" type="qcurve" smooth="yes"/>
      <point x="172" y="744" type="line"/>
    </contour>
  </outline>
</glyph>
<glyph name="o.sups" format="2">
  <advance width="794"/>
  <unicode hex="1D52"/>
  <outline>
    <contour>
      <point x="398" y="730" type="qcurve" smooth="yes"/>
      <point x="308" y="730"/>
      <point x="166" y="830"/>
      <point x="84" y="1003"/>
      <point x="84" y="1114" type="qcurve" smooth="yes"/>
      <point x="84" y="1225"/>
      <point x="166" y="1400"/>
      <point x="308" y="1502"/>
      <point x="398" y="1502" type="qcurve" smooth="yes"/>
      <point x="487" y="1502"/>
      <point x="628" y="1400"/>
      <point x="710" y="1225"/>
      <point x="710" y="1114" type="qcurve" smooth="yes"/>
      <point x="710" y="1003"/>
      <point x="628" y="830"/>
      <point x="487" y="730"/>
    </contour>
    <contour>
      <point x="398" y="770" type="qcurve"/>
      <point x="477" y="771"/>
      <point x="598" y="864"/>
      <point x="666" y="1020"/>
      <point x="666" y="1114" type="qcurve" smooth="yes"/>
      <point x="666" y="1210"/>
      <point x="597" y="1366"/>
      <point x="476" y="1458"/>
      <point x="398" y="1458" type="qcurve" smooth="yes"/>
      <point x="320" y="1458"/>
      <point x="198" y="1366"/>
      <point x="128" y="1210"/>
      <point x="128" y="1114" type="qcurve" smooth="yes"/>
      <point x="128" y="1018"/>
      <point x="198" y="862"/>
      <point x="320" y="771"/>
    </contour>
  </outline>
</glyph>
<glyph name="v.sups" format="2">
  <advance width="722"/>
  <unicode hex="1D5B"/>
  <outline>
    <contour>
      <point x="654" y="1490" type="line"/>
      <point x="390" y="744" type="line"/>
      <point x="334" y="744" type="line"/>
      <point x="66" y="1490" type="line"/>
      <point x="116" y="1490" type="line"/>
      <point x="358" y="802" type="line"/>
      <point x="364" y="802" type="line"/>
      <point x="608" y="1490" type="line"/>
    </contour>
  </outline>
</glyph>
<glyph name="c.sups" format="2">
  <advance width="756"/>
  <unicode hex="1D9C"/>
  <outline>
    <contour>
      <point x="402" y="730" type="qcurve" smooth="yes"/>
      <point x="309" y="730"/>
      <point x="165" y="831"/>
      <point x="84" y="1005"/>
      <point x="84" y="1114" type="qcurve" smooth="yes"/>
      <point x="84" y="1223"/>
      <point x="165" y="1399"/>
      <point x="309" y="1502"/>
      <point x="402" y="1502" type="qcurve" smooth="yes"/>
      <point x="502" y="1502"/>
      <point x="654" y="1374"/>
      <point x="670" y="1272" type="qcurve"/>
      <point x="622" y="1272" type="line"/>
      <point x="609" y="1352"/>
      <point x="485" y="1458"/>
      <point x="402" y="1458" type="qcurve" smooth="yes"/>
      <point x="323" y="1458"/>
      <point x="199" y="1369"/>
      <point x="128" y="1213"/>
      <point x="128" y="1114" type="qcurve" smooth="yes"/>
      <point x="128" y="1020"/>
      <point x="197" y="863"/>
      <point x="321" y="770"/>
      <point x="402" y="770" type="qcurve" smooth="yes"/>
      <point x="485" y="770"/>
      <point x="613" y="876"/>
      <point x="626" y="962" type="qcurve"/>
      <point x="672" y="962" type="line"/>
      <point x="657" y="858"/>
      <point x="504" y="730"/>
    </contour>
  </outline>
</glyph>
<glyph name="z.sups" format="2">
  <advance width="704"/>
  <unicode hex="1DBB"/>
  <outline>
    <contour>
      <point x="102" y="744" type="line"/>
      <point x="102" y="786" type="line"/>
      <point x="544" y="1440" type="line"/>
      <point x="544" y="1446" type="line"/>
      <point x="128" y="1446" type="line"/>
      <point x="128" y="1490" type="line"/>
      <point x="600" y="1490" type="line"/>
      <point x="600" y="1448" type="line"/>
      <point x="160" y="794" type="line"/>
      <point x="160" y="788" type="line"/>
      <point x="620" y="788" type="line"/>
      <point x="620" y="744" type="line"/>
    </contour>
  </outline>
</glyph>
<glyph name="uni1DCA" format="2">
  <unicode hex="1DCA"/>
  <outline>
    <contour>
      <point x="-574" y="-252" type="line"/>
      <point x="-574" y="-550" type="line"/>
      <point x="-622" y="-550" type="line"/>
      <point x="-622" y="-130" type="line"/>
      <point x="-588" y="-130" type="line"/>
    </contour>
    <contour>
      <point x="-394" y="-130" type="qcurve"/>
      <point x="-394" y="-178" type="line"/>
      <point x="-410" y="-174"/>
      <point x="-433" y="-172"/>
      <point x="-440" y="-172" type="qcurve" smooth="yes"/>
      <point x="-497" y="-172"/>
      <point x="-578" y="-300"/>
      <point x="-578" y="-392" type="qcurve"/>
      <point x="-600" y="-392" type="line"/>
      <point x="-601" y="-259"/>
      <point x="-516" y="-124"/>
      <point x="-434" y="-124" type="qcurve" smooth="yes"/>
      <point x="-423" y="-124"/>
      <point x="-405" y="-126"/>
    </contour>
  </outline>
</glyph>
<glyph name="uni1DD1" format="2">
  <unicode hex="1DD1"/>
  <outline>
    <contour>
      <point x="-374" y="1204" type="qcurve"/>
      <point x="-339" y="1206"/>
      <point x="-290" y="1252"/>
      <point x="-290" y="1292" type="qcurve" smooth="yes"/>
      <point x="-290" y="1339"/>
      <point x="-361" y="1398"/>
      <point x="-418" y="1400" type="qcurve"/>
      <point x="-418" y="1446" type="line"/>
      <point x="-367" y="1445"/>
      <point x="-289" y="1405"/>
      <point x="-244" y="1336"/>
      <point x="-244" y="1292" type="qcurve" smooth="yes"/>
      <point x="-244" y="1232"/>
      <point x="-322" y="1158"/>
      <point x="-378" y="1158" type="qcurve" smooth="yes"/>
      <point x="-423" y="1158"/>
      <point x="-498" y="1217"/>
      <point x="-542" y="1288" type="qcurve"/>
      <point x="-580" y="1352"/>
      <point x="-630" y="1394"/>
      <point x="-662" y="1394" type="qcurve" smooth="yes"/>
      <point x="-702" y="1394"/>
      <point x="-750" y="1344"/>
      <point x="-750" y="1306" type="qcurve" smooth="yes"/>
      <point x="-750" y="1259"/>
      <point x="-680" y="1200"/>
      <point x="-622" y="1198" type="qcurve"/>
      <point x="-622" y="1152" type="line"/>
      <point x="-698" y="1153"/>
      <point x="-798" y="1239"/>
      <point x="-798" y="1306" type="qcurve" smooth="yes"/>
      <point x="-798" y="1363"/>
      <point x="-720" y="1440"/>
      <point x="-658" y="1440" type="qcurve" smooth="yes"/>
      <point x="-614" y="1440"/>
      <point x="-548" y="1387"/>
      <point x="-502" y="1310" type="qcurve" smooth="yes"/>
      <point x="-467" y="1252"/>
      <point x="-408" y="1204"/>
    </contour>
  </outline>
</glyph>
<glyph name="uni1DD2" format="2">
  <unicode hex="1DD2"/>
  <outline>
    <contour>
      <point x="-536" y="1426" type="qcurve"/>
      <point x="-603" y="1426"/>
      <point x="-709" y="1486"/>
      <point x="-770" y="1590"/>
      <point x="-770" y="1656" type="qcurve" smooth="yes"/>
      <point x="-770" y="1726"/>
      <point x="-701" y="1843"/>
      <point x="-583" y="1914"/>
      <point x="-510" y="1914" type="qcurve" smooth="yes"/>
      <point x="-406" y="1914"/>
      <point x="-264" y="1760"/>
      <point x="-264" y="1614" type="qcurve" smooth="yes"/>
      <point x="-264" y="1539"/>
      <point x="-303" y="1406"/>
      <point x="-385" y="1290"/>
      <point x="-510" y="1191"/>
      <point x="-596" y="1150" type="qcurve"/>
      <point x="-614" y="1192" type="line"/>
      <point x="-508" y="1245"/>
      <point x="-375" y="1371"/>
      <point x="-312" y="1522"/>
      <point x="-312" y="1610" type="qcurve" smooth="yes"/>
      <point x="-312" y="1735"/>
      <point x="-425" y="1868"/>
      <point x="-512" y="1868" type="qcurve" smooth="yes"/>
      <point x="-603" y="1868"/>
      <point x="-724" y="1741"/>
      <point x="-724" y="1656" type="qcurve" smooth="yes"/>
      <point x="-724" y="1574"/>
      <point x="-611" y="1472"/>
      <point x="-524" y="1472" type="qcurve" smooth="yes"/>
      <point x="-495" y="1472"/>
      <point x="-423" y="1486"/>
      <point x="-384" y="1502" type="qcurve"/>
      <point x="-376" y="1458" type="line"/>
      <point x="-413" y="1442"/>
      <point x="-501" y="1425"/>
    </contour>
  </outline>
</glyph>
<glyph name="uni1DE7" format="2">
  <unicode hex="1DE7"/>
  <outline>
    <contour>
      <point x="-578" y="1186" type="qcurve"/>
      <point x="-677" y="1187"/>
      <point x="-802" y="1336"/>
      <point x="-802" y="1452" type="qcurve" smooth="yes"/>
      <point x="-802" y="1464" type="line"/>
      <point x="-803" y="1593"/>
      <point x="-669" y="1760"/>
      <point x="-568" y="1760" type="qcurve" smooth="yes"/>
      <point x="-510" y="1760"/>
      <point x="-420" y="1706"/>
      <point x="-367" y="1594"/>
      <point x="-364" y="1506" type="qcurve"/>
      <point x="-364" y="1440" type="line"/>
      <point x="-366" y="1353"/>
      <point x="-428" y="1241"/>
      <point x="-524" y="1187"/>
    </contour>
    <contour>
      <point x="-574" y="1234" type="qcurve"/>
      <point x="-514" y="1233"/>
      <point x="-415" y="1305"/>
      <point x="-382" y="1382" type="qcurve"/>
      <point x="-382" y="1566" type="line"/>
      <point x="-411" y="1633"/>
      <point x="-516" y="1714"/>
      <point x="-574" y="1714" type="qcurve" smooth="yes"/>
      <point x="-650" y="1714"/>
      <point x="-756" y="1574"/>
      <point x="-756" y="1464" type="qcurve" smooth="yes"/>
      <point x="-756" y="1450" type="line" smooth="yes"/>
      <point x="-756" y="1350"/>
      <point x="-653" y="1233"/>
    </contour>
    <contour>
      <point x="-376" y="1752" type="line"/>
      <point x="-344" y="1752" type="line"/>
      <point x="-344" y="1288" type="line"/>
      <point x="-343" y="1258"/>
      <point x="-329" y="1236"/>
      <point x="-310" y="1236" type="qcurve" smooth="yes"/>
      <point x="-298" y="1236"/>
      <point x="-286" y="1240" type="qcurve"/>
      <point x="-282" y="1198" type="line"/>
      <point x="-295" y="1194"/>
      <point x="-322" y="1190"/>
      <point x="-330" y="1190" type="qcurve" smooth="yes"/>
      <point x="-358" y="1190"/>
      <point x="-390" y="1230"/>
      <point x="-390" y="1262" type="qcurve" smooth="yes"/>
      <point x="-390" y="1626" type="line"/>
    </contour>
  </outline>
</glyph>
<glyph name="uni1DFC" format="2">
  <unicode hex="1DFC"/>
  <outline>
    <contour>
      <point x="644" y="-360" type="qcurve"/>
      <point x="596" y="-360" type="line"/>
      <point x="543" y="-318"/>
      <point x="404" y="-248"/>
      <point x="245" y="-197"/>
      <point x="78" y="-170"/>
      <point x="-4" y="-170" type="qcurve" smooth="yes"/>
      <point x="-83" y="-170"/>
      <point x="-250" y="-197"/>
      <point x="-411" y="-248"/>
      <point x="-551" y="-318"/>
      <point x="-602" y="-360" type="qcurve"/>
      <point x="-650" y="-360" type="line"/>
      <point x="-600" y="-308"/>
      <point x="-458" y="-221"/>
      <point x="-286" y="-158"/>
      <point x="-97" y="-124"/>
      <point x="-2" y="-124" type="qcurve" smooth="yes"/>
      <point x="91" y="-124"/>
      <point x="278" y="-157"/>
      <point x="451" y="-219"/>
      <point x="595" y="-306"/>
    </contour>
  </outline>
</glyph>
<glyph name="uni1DFD" format="2">
  <unicode hex="1DFD"/>
  <outline>
    <contour>
      <point x="-876" y="-266" type="qcurve"/>
      <point x="-922" y="-260" type="line"/>
      <point x="-911" y="-222"/>
      <point x="-858" y="-166"/>
      <point x="-779" y="-136"/>
      <point x="-730" y="-136" type="qcurve" smooth="yes"/>
      <point x="-662" y="-136"/>
      <point x="-576" y="-181"/>
      <point x="-501" y="-226"/>
      <point x="-450" y="-226" type="qcurve" smooth="yes"/>
      <point x="-397" y="-226"/>
      <point x="-316" y="-170"/>
      <point x="-300" y="-142" type="qcurve"/>
      <point x="-252" y="-152" type="line"/>
      <point x="-266" y="-182"/>
      <point x="-324" y="-237"/>
      <point x="-404" y="-272"/>
      <point x="-452" y="-272" type="qcurve" smooth="yes"/>
      <point x="-510" y="-272"/>
      <point x="-588" y="-227"/>
      <point x="-668" y="-182"/>
      <point x="-730" y="-182" type="qcurve" smooth="yes"/>
      <point x="-786" y="-182"/>
      <point x="-863" y="-228"/>
    </contour>
    <contour>
      <point x="-876" y="-456" type="qcurve"/>
      <point x="-922" y="-450" type="line"/>
      <point x="-911" y="-411"/>
      <point x="-858" y="-355"/>
      <point x="-779" y="-324"/>
      <point x="-730" y="-324" type="qcurve" smooth="yes"/>
      <point x="-662" y="-324"/>
      <point x="-576" y="-369"/>
      <point x="-501" y="-414"/>
      <point x="-450" y="-414" type="qcurve" smooth="yes"/>
      <point x="-397" y="-414"/>
      <point x="-316" y="-359"/>
      <point x="-300" y="-330" type="qcurve"/>
      <point x="-252" y="-342" type="line"/>
      <point x="-266" y="-371"/>
      <point x="-324" y="-427"/>
      <point x="-404" y="-462"/>
      <point x="-452" y="-462" type="qcurve" smooth="yes"/>
      <point x="-510" y="-462"/>
      <point x="-588" y="-416"/>
      <point x="-668" y="-370"/>
      <point x="-730" y="-370" type="qcurve" smooth="yes"/>
      <point x="-786" y="-370"/>
      <point x="-863" y="-417"/>
    </contour>
  </outline>
</glyph>
<glyph name="uni1E9D" format="2">
  <advance width="584"/>
  <unicode hex="1E9D"/>
  <outline>
    <contour>
      <point x="248" y="0" type="line"/>
      <point x="200" y="0" type="line"/>
      <point x="200" y="1300" type="line"/>
      <point x="201" y="1410"/>
      <point x="350" y="1556"/>
      <point x="462" y="1556" type="qcurve" smooth="yes"/>
      <point x="483" y="1556"/>
      <point x="523" y="1551"/>
      <point x="542" y="1544" type="qcurve"/>
      <point x="542" y="1500" type="line"/>
      <point x="520" y="1505"/>
      <point x="481" y="1510"/>
      <point x="462" y="1510" type="qcurve" smooth="yes"/>
      <point x="370" y="1510"/>
      <point x="248" y="1391"/>
      <point x="248" y="1300" type="qcurve" smooth="yes"/>
    </contour>
    <contour>
      <point x="488" y="1288" type="line"/>
      <point x="488" y="1242" type="line"/>
      <point x="46" y="1242" type="line"/>
      <point x="46" y="1288" type="line"/>
    </contour>
  </outline>
</glyph>
<glyph name="uni1EFE" format="2">
  <advance width="1414"/>
  <unicode hex="1EFE"/>
  <outline>
    <contour>
      <point x="724" y="274" type="line"/>
      <point x="1226" y="1490" type="line"/>
      <point x="1278" y="1490" type="line"/>
      <point x="728" y="168" type="line"/>
      <point x="724" y="232" type="line"/>
    </contour>
    <contour>
      <point x="282" y="1490" type="line"/>
      <point x="772" y="318" type="line"/>
      <point x="752" y="304" type="line"/>
      <point x="734" y="292" type="line"/>
      <point x="232" y="1490" type="line"/>
    </contour>
    <contour>
      <point x="472" y="-18" type="qcurve"/>
      <point x="400" y="-18"/>
      <point x="279" y="54"/>
      <point x="206" y="175"/>
      <point x="206" y="248" type="qcurve" smooth="yes"/>
      <point x="206" y="322"/>
      <point x="279" y="443"/>
      <point x="400" y="514"/>
      <point x="472" y="514" type="qcurve" smooth="yes"/>
      <point x="547" y="514"/>
      <point x="667" y="443"/>
      <point x="738" y="322"/>
      <point x="738" y="248" type="qcurve"/>
      <point x="739" y="175"/>
      <point x="668" y="54"/>
      <point x="547" y="-17"/>
    </contour>
    <contour>
      <point x="472" y="30" type="qcurve"/>
      <point x="565" y="30"/>
      <point x="694" y="157"/>
      <point x="692" y="248" type="qcurve"/>
      <point x="692" y="340"/>
      <point x="565" y="468"/>
      <point x="472" y="468" type="qcurve" smooth="yes"/>
      <point x="383" y="468"/>
      <point x="254" y="340"/>
      <point x="254" y="248" type="qcurve" smooth="yes"/>
      <point x="254" y="188"/>
      <point x="313" y="88"/>
      <point x="413" y="29"/>
    </contour>
  </outline>
</glyph>
<glyph name="uni1EFF" format="2">
  <advance width="1254"/>
  <unicode hex="1EFF"/>
  <outline>
    <contour>
      <point x="260" y="1118" type="line"/>
      <point x="614" y="108" type="line"/>
      <point x="694" y="-120" type="line"/>
      <point x="646" y="-120" type="line"/>
      <point x="210" y="1118" type="line"/>
    </contour>
    <contour>
      <point x="412" y="-392" type="qcurve"/>
      <point x="504" y="-392"/>
      <point x="632" y="-265"/>
      <point x="632" y="-174" type="qcurve"/>
      <point x="631" y="-81"/>
      <point x="503" y="46"/>
      <point x="412" y="46" type="qcurve" smooth="yes"/>
      <point x="321" y="46"/>
      <point x="192" y="-82"/>
      <point x="192" y="-174" type="qcurve" smooth="yes"/>
      <point x="192" y="-265"/>
      <point x="322" y="-393"/>
    </contour>
    <contour>
      <point x="412" y="-440" type="qcurve"/>
      <point x="339" y="-440"/>
      <point x="218" y="-368"/>
      <point x="146" y="-247"/>
      <point x="146" y="-174" type="qcurve" smooth="yes"/>
      <point x="146" y="-100"/>
      <point x="218" y="22"/>
      <point x="339" y="94"/>
      <point x="412" y="94" type="qcurve" smooth="yes"/>
      <point x="467" y="94"/>
      <point x="563" y="53"/>
      <point x="636" y="-20"/>
      <point x="677" y="-118"/>
      <point x="678" y="-174" type="qcurve"/>
      <point x="656" y="-174" type="line"/>
      <point x="656" y="-136" type="line"/>
      <point x="1070" y="1118" type="line"/>
      <point x="1118" y="1118" type="line"/>
      <point x="664" y="-264" type="line"/>
      <point x="646" y="-316"/>
      <point x="571" y="-395"/>
      <point x="469" y="-439"/>
    </contour>
  </outline>
</glyph>
<glyph name="uni1FCD" format="2">
  <advance width="624"/>
  <unicode hex="1FCD"/>
  <outline>
    <contour>
      <point x="128" y="1272" type="qcurve" smooth="yes"/>
      <point x="112" y="1272" type="line"/>
      <point x="112" y="1318" type="line"/>
      <point x="128" y="1318" type="line" smooth="yes"/>
      <point x="187" y="1318"/>
      <point x="259" y="1378"/>
      <point x="259" y="1424" type="qcurve" smooth="yes"/>
      <point x="259" y="1471"/>
      <point x="187" y="1519"/>
      <point x="128" y="1519" type="qcurve" smooth="yes"/>
      <point x="80" y="1519" type="line"/>
      <point x="80" y="1565" type="line"/>
      <point x="128" y="1565" type="line" smooth="yes"/>
      <point x="206" y="1565"/>
      <point x="305" y="1492"/>
      <point x="305" y="1424" type="qcurve" smooth="yes"/>
      <point x="305" y="1357"/>
      <point x="206" y="1272"/>
    </contour>
    <contour>
      <point x="504" y="1283" type="line"/>
      <point x="468" y="1283" type="line"/>
      <point x="417" y="1557" type="line"/>
      <point x="466" y="1557" type="line"/>
    </contour>
  </outline>
</glyph>
<glyph name="uni1FED" format="2">
  <advance width="1028"/>
  <unicode hex="1FED"/>
  <outline>
    <contour>
      <point x="566" y="1420" type="line"/>
      <point x="530" y="1420" type="line"/>
      <point x="479" y="1694" type="line"/>
      <point x="528" y="1694" type="line"/>
    </contour>
    <contour>
      <point x="346" y="1373" type="qcurve" smooth="yes"/>
      <point x="327" y="1373"/>
      <point x="299" y="1401"/>
      <point x="299" y="1420" type="qcurve" smooth="yes"/>
      <point x="299" y="1440"/>
      <point x="327" y="1467"/>
      <point x="346" y="1467" type="qcurve" smooth="yes"/>
      <point x="366" y="1467"/>
      <point x="393" y="1440"/>
      <point x="393" y="1420" type="qcurve" smooth="yes"/>
      <point x="393" y="1401"/>
      <point x="366" y="1373"/>
    </contour>
    <contour>
      <point x="750" y="1373" type="qcurve" smooth="yes"/>
      <point x="731" y="1373"/>
      <point x="703" y="1401"/>
      <point x="703" y="1420" type="qcurve" smooth="yes"/>
      <point x="703" y="1440"/>
      <point x="731" y="1467"/>
      <point x="750" y="1467" type="qcurve" smooth="yes"/>
      <point x="770" y="1467"/>
      <point x="797" y="1440"/>
      <point x="797" y="1420" type="qcurve" smooth="yes"/>
      <point x="797" y="1401"/>
      <point x="770" y="1373"/>
    </contour>
  </outline>
</glyph>
<glyph name="bullet" format="2">
  <advance width="1152"/>
  <unicode hex="2022"/>
  <outline>
    <contour>
      <point x="576" y="407" type="qcurve" smooth="yes"/>
      <point x="525" y="407"/>
      <point x="440" y="458"/>
      <point x="389" y="543"/>
      <point x="389" y="594" type="qcurve" smooth="yes"/>
      <point x="389" y="646"/>
      <point x="440" y="730"/>
      <point x="525" y="781"/>
      <point x="576" y="781" type="qcurve" smooth="yes"/>
      <point x="628" y="781"/>
      <point x="712" y="730"/>
      <point x="763" y="646"/>
      <point x="763" y="594" type="qcurve" smooth="yes"/>
      <point x="763" y="543"/>
      <point x="712" y="458"/>
      <point x="628" y="407"/>
    </contour>
  </outline>
</glyph>
<glyph name="uni203F" format="2">
  <advance width="1584"/>
  <unicode hex="203F"/>
  <outline>
    <contour>
      <point x="792" y="-478" type="qcurve" smooth="yes"/>
      <point x="649" y="-478"/>
      <point x="407" y="-417"/>
      <point x="197" y="-283"/>
      <point x="102" y="-174" type="qcurve"/>
      <point x="138" y="-156" type="line"/>
      <point x="266" y="-292"/>
      <point x="582" y="-432"/>
      <point x="792" y="-432" type="qcurve" smooth="yes"/>
      <point x="1001" y="-432"/>
      <point x="1317" y="-293"/>
      <point x="1444" y="-156" type="qcurve"/>
      <point x="1480" y="-174" type="line"/>
      <point x="1385" y="-284"/>
      <point x="1176" y="-418"/>
      <point x="935" y="-478"/>
    </contour>
  </outline>
</glyph>
<glyph name="etTironian" format="2">
  <advance width="954"/>
  <unicode hex="204A"/>
  <outline>
    <contour>
      <point x="632" y="-418" type="line"/>
      <point x="776" y="1072" type="line"/>
      <point x="120" y="1072" type="line"/>
      <point x="120" y="1118" type="line"/>
      <point x="826" y="1118" type="line"/>
      <point x="677" y="-418" type="line"/>
    </contour>
  </outline>
</glyph>
<glyph name="uni2053" format="2">
  <advance width="1392"/>
  <unicode hex="2053"/>
  <outline>
    <contour>
      <point x="1222" y="782" type="qcurve"/>
      <point x="1248" y="744" type="line"/>
      <point x="1192" y="698"/>
      <point x="1053" y="634"/>
      <point x="980" y="634" type="qcurve" smooth="yes"/>
      <point x="902" y="634"/>
      <point x="762" y="702"/>
      <point x="629" y="791"/>
      <point x="493" y="859"/>
      <point x="418" y="858" type="qcurve"/>
      <point x="361" y="858"/>
      <point x="249" y="806"/>
      <point x="184" y="756" type="qcurve"/>
      <point x="158" y="794" type="line"/>
      <point x="214" y="841"/>
      <point x="352" y="904"/>
      <point x="424" y="904" type="qcurve" smooth="yes"/>
      <point x="502" y="904"/>
      <point x="642" y="836"/>
      <point x="776" y="748"/>
      <point x="912" y="680"/>
      <point x="986" y="680" type="qcurve" smooth="yes"/>
      <point x="1044" y="680"/>
      <point x="1157" y="733"/>
    </contour>
  </outline>
</glyph>
<glyph name="uni2054" format="2">
  <advance width="1584"/>
  <unicode hex="2054"/>
  <outline>
    <contour>
      <point x="792" y="-116" type="qcurve" smooth="yes"/>
      <point x="935" y="-116"/>
      <point x="1176" y="-177"/>
      <point x="1385" y="-311"/>
      <point x="1480" y="-422" type="qcurve"/>
      <point x="1444" y="-440" type="line"/>
      <point x="1360" y="-348"/>
      <point x="1164" y="-226"/>
      <point x="932" y="-163"/>
      <point x="792" y="-162" type="qcurve"/>
      <point x="582" y="-162"/>
      <point x="266" y="-302"/>
      <point x="138" y="-440" type="qcurve"/>
      <point x="102" y="-422" type="line"/>
      <point x="197" y="-311"/>
      <point x="407" y="-177"/>
      <point x="649" y="-116"/>
    </contour>
  </outline>
</glyph>
<glyph name="uni205C" format="2">
  <advance width="1118"/>
  <unicode hex="205C"/>
  <outline>
    <contour>
      <point x="0" y="536" type="line"/>
      <point x="0" y="582" type="line"/>
      <point x="1118" y="582" type="line"/>
      <point x="1118" y="536" type="line"/>
    </contour>
    <contour>
      <point x="536" y="0" type="line"/>
      <point x="536" y="1118" type="line"/>
      <point x="582" y="1118" type="line"/>
      <point x="582" y="0" type="line"/>
    </contour>
    <contour>
      <point x="920" y="146" type="qcurve"/>
      <point x="898" y="145"/>
      <point x="866" y="176"/>
      <point x="866" y="198" type="qcurve" smooth="yes"/>
      <point x="866" y="220"/>
      <point x="898" y="250"/>
      <point x="920" y="250" type="qcurve" smooth="yes"/>
      <point x="941" y="250"/>
      <point x="972" y="220"/>
      <point x="972" y="198" type="qcurve" smooth="yes"/>
      <point x="972" y="176"/>
      <point x="941" y="145"/>
    </contour>
    <contour>
      <point x="198" y="146" type="qcurve"/>
      <point x="176" y="145"/>
      <point x="146" y="176"/>
      <point x="146" y="198" type="qcurve" smooth="yes"/>
      <point x="146" y="220"/>
      <point x="176" y="250"/>
      <point x="198" y="250" type="qcurve" smooth="yes"/>
      <point x="220" y="250"/>
      <point x="250" y="220"/>
      <point x="250" y="198" type="qcurve" smooth="yes"/>
      <point x="250" y="176"/>
      <point x="220" y="145"/>
    </contour>
    <contour>
      <point x="198" y="866" type="qcurve"/>
      <point x="176" y="867"/>
      <point x="146" y="898"/>
      <point x="146" y="920" type="qcurve" smooth="yes"/>
      <point x="146" y="941"/>
      <point x="176" y="972"/>
      <point x="198" y="972" type="qcurve" smooth="yes"/>
      <point x="220" y="972"/>
      <point x="250" y="941"/>
      <point x="250" y="920" type="qcurve" smooth="yes"/>
      <point x="250" y="898"/>
      <point x="220" y="867"/>
    </contour>
    <contour>
      <point x="920" y="866" type="qcurve"/>
      <point x="898" y="867"/>
      <point x="866" y="898"/>
      <point x="866" y="920" type="qcurve" smooth="yes"/>
      <point x="866" y="941"/>
      <point x="898" y="972"/>
      <point x="920" y="972" type="qcurve" smooth="yes"/>
      <point x="941" y="972"/>
      <point x="972" y="941"/>
      <point x="972" y="920" type="qcurve" smooth="yes"/>
      <point x="972" y="898"/>
      <point x="941" y="867"/>
    </contour>
  </outline>
</glyph>
<glyph name="zero.sups" format="2">
  <advance width="814"/>
  <unicode hex="2070"/>
  <outline>
    <contour>
      <point x="408" y="734" type="qcurve"/>
      <point x="263" y="733"/>
      <point x="96" y="977"/>
      <point x="96" y="1192" type="qcurve" smooth="yes"/>
      <point x="96" y="1407"/>
      <point x="263" y="1650"/>
      <point x="408" y="1650" type="qcurve" smooth="yes"/>
      <point x="551" y="1650"/>
      <point x="718" y="1407"/>
      <point x="718" y="1192" type="qcurve" smooth="yes"/>
      <point x="718" y="977"/>
      <point x="551" y="733"/>
    </contour>
    <contour>
      <point x="408" y="776" type="qcurve"/>
      <point x="530" y="777"/>
      <point x="672" y="996"/>
      <point x="672" y="1192" type="qcurve" smooth="yes"/>
      <point x="672" y="1385"/>
      <point x="532" y="1608"/>
      <point x="408" y="1608" type="qcurve" smooth="yes"/>
      <point x="283" y="1608"/>
      <point x="142" y="1385"/>
      <point x="142" y="1192" type="qcurve" smooth="yes"/>
      <point x="142" y="999"/>
      <point x="283" y="777"/>
    </contour>
  </outline>
</glyph>
<glyph name="six.sups" format="2">
  <advance width="806"/>
  <unicode hex="2076"/>
  <outline>
    <contour>
      <point x="410" y="734" type="qcurve" smooth="yes"/>
      <point x="348" y="734"/>
      <point x="238" y="782"/>
      <point x="155" y="883"/>
      <point x="108" y="1042"/>
      <point x="108" y="1152" type="qcurve" smooth="yes"/>
      <point x="108" y="1280"/>
      <point x="165" y="1509"/>
      <point x="303" y="1652"/>
      <point x="422" y="1652" type="qcurve" smooth="yes"/>
      <point x="529" y="1652"/>
      <point x="673" y="1525"/>
      <point x="684" y="1414" type="qcurve"/>
      <point x="638" y="1414" type="line"/>
      <point x="628" y="1501"/>
      <point x="514" y="1608"/>
      <point x="422" y="1608" type="qcurve" smooth="yes"/>
      <point x="289" y="1608"/>
      <point x="152" y="1371"/>
      <point x="152" y="1154" type="qcurve"/>
      <point x="158" y="1154" type="line"/>
      <point x="184" y="1218"/>
      <point x="325" y="1300"/>
      <point x="410" y="1300" type="qcurve" smooth="yes"/>
      <point x="489" y="1300"/>
      <point x="619" y="1226"/>
      <point x="698" y="1097"/>
      <point x="698" y="1016" type="qcurve" smooth="yes"/>
      <point x="698" y="940"/>
      <point x="626" y="811"/>
      <point x="496" y="734"/>
    </contour>
    <contour>
      <point x="410" y="776" type="qcurve"/>
      <point x="515" y="777"/>
      <point x="652" y="917"/>
      <point x="652" y="1016" type="qcurve" smooth="yes"/>
      <point x="652" y="1083"/>
      <point x="586" y="1191"/>
      <point x="474" y="1256"/>
      <point x="404" y="1256" type="qcurve" smooth="yes"/>
      <point x="330" y="1256"/>
      <point x="214" y="1185"/>
      <point x="156" y="1071"/>
      <point x="168" y="1004" type="qcurve" smooth="yes"/>
      <point x="188" y="897"/>
      <point x="319" y="777"/>
    </contour>
  </outline>
</glyph>
<glyph name="nine.sups" format="2">
  <advance width="806"/>
  <unicode hex="2079"/>
  <outline>
    <contour>
      <point x="396" y="1652" type="qcurve" smooth="yes"/>
      <point x="459" y="1652"/>
      <point x="569" y="1602"/>
      <point x="651" y="1499"/>
      <point x="698" y="1342"/>
      <point x="698" y="1234" type="qcurve" smooth="yes"/>
      <point x="698" y="1106"/>
      <point x="641" y="877"/>
      <point x="504" y="734"/>
      <point x="384" y="734" type="qcurve" smooth="yes"/>
      <point x="314" y="734"/>
      <point x="201" y="789"/>
      <point x="130" y="894"/>
      <point x="122" y="968" type="qcurve"/>
      <point x="168" y="968" type="line"/>
      <point x="177" y="883"/>
      <point x="293" y="776"/>
      <point x="384" y="776" type="qcurve" smooth="yes"/>
      <point x="515" y="776"/>
      <point x="654" y="1010"/>
      <point x="654" y="1230" type="qcurve"/>
      <point x="648" y="1230" type="line"/>
      <point x="623" y="1167"/>
      <point x="481" y="1086"/>
      <point x="396" y="1086" type="qcurve" smooth="yes"/>
      <point x="318" y="1086"/>
      <point x="187" y="1160"/>
      <point x="108" y="1288"/>
      <point x="108" y="1368" type="qcurve" smooth="yes"/>
      <point x="108" y="1445"/>
      <point x="180" y="1574"/>
      <point x="310" y="1652"/>
    </contour>
    <contour>
      <point x="396" y="1608" type="qcurve"/>
      <point x="291" y="1609"/>
      <point x="154" y="1468"/>
      <point x="154" y="1368" type="qcurve" smooth="yes"/>
      <point x="154" y="1267"/>
      <point x="297" y="1128"/>
      <point x="402" y="1128" type="qcurve" smooth="yes"/>
      <point x="476" y="1128"/>
      <point x="592" y="1199"/>
      <point x="651" y="1315"/>
      <point x="638" y="1382" type="qcurve" smooth="yes"/>
      <point x="618" y="1489"/>
      <point x="485" y="1609"/>
    </contour>
  </outline>
</glyph>
<glyph name="n.sups" format="2">
  <advance width="780"/>
  <unicode hex="207F"/>
  <outline>
    <contour>
      <point x="172" y="1236" type="qcurve" smooth="yes"/>
      <point x="172" y="744" type="line"/>
      <point x="128" y="744" type="line"/>
      <point x="128" y="1490" type="line"/>
      <point x="172" y="1490" type="line"/>
      <point x="172" y="1370" type="line"/>
      <point x="178" y="1370" type="line"/>
      <point x="204" y="1429"/>
      <point x="322" y="1498"/>
      <point x="398" y="1498" type="qcurve" smooth="yes"/>
      <point x="510" y="1498"/>
      <point x="652" y="1357"/>
      <point x="652" y="1240" type="qcurve" smooth="yes"/>
      <point x="652" y="744" type="line"/>
      <point x="608" y="744" type="line"/>
      <point x="608" y="1240" type="line" smooth="yes"/>
      <point x="608" y="1335"/>
      <point x="489" y="1454"/>
      <point x="392" y="1454" type="qcurve" smooth="yes"/>
      <point x="297" y="1454"/>
      <point x="172" y="1332"/>
    </contour>
  </outline>
</glyph>
<glyph name="uni20A5" format="2">
  <advance width="1760"/>
  <unicode hex="20A5"/>
  <outline>
    <contour>
      <point x="1082" y="1280" type="line"/>
      <point x="508" y="-126" type="line"/>
      <point x="458" y="-126" type="line"/>
      <point x="1032" y="1280" type="line"/>
    </contour>
    <contour>
      <point x="902" y="750" type="qcurve" smooth="yes"/>
      <point x="902" y="0" type="line"/>
      <point x="856" y="0" type="line"/>
      <point x="856" y="750" type="line"/>
      <point x="855" y="899"/>
      <point x="722" y="1086"/>
      <point x="574" y="1086" type="qcurve" smooth="yes"/>
      <point x="475" y="1086"/>
      <point x="338" y="999"/>
      <point x="268" y="848"/>
      <point x="268" y="750" type="qcurve" smooth="yes"/>
      <point x="268" y="0" type="line"/>
      <point x="222" y="0" type="line"/>
      <point x="222" y="1118" type="line"/>
      <point x="268" y="1118" type="line"/>
      <point x="268" y="952" type="line"/>
      <point x="274" y="952" type="line"/>
      <point x="294" y="1006"/>
      <point x="379" y="1087"/>
      <point x="500" y="1132"/>
      <point x="574" y="1132" type="qcurve" smooth="yes"/>
      <point x="700" y="1132"/>
      <point x="850" y="1006"/>
      <point x="878" y="902" type="qcurve"/>
      <point x="884" y="902" type="line"/>
      <point x="903" y="972"/>
      <point x="991" y="1075"/>
      <point x="1124" y="1132"/>
      <point x="1208" y="1132" type="qcurve" smooth="yes"/>
      <point x="1320" y="1132"/>
      <point x="1465" y="1035"/>
      <point x="1536" y="863"/>
      <point x="1536" y="750" type="qcurve" smooth="yes"/>
      <point x="1536" y="0" type="line"/>
      <point x="1490" y="0" type="line"/>
      <point x="1490" y="750" type="line" smooth="yes"/>
      <point x="1490" y="849"/>
      <point x="1431" y="1001"/>
      <point x="1307" y="1086"/>
      <point x="1208" y="1086" type="qcurve" smooth="yes"/>
      <point x="1059" y="1086"/>
      <point x="902" y="896"/>
    </contour>
  </outline>
</glyph>
<glyph name="uni20AA" format="2">
  <advance width="1396"/>
  <unicode hex="20AA"/>
  <outline>
    <contour>
      <point x="218" y="1118" type="line"/>
      <point x="564" y="1118" type="line"/>
      <point x="718" y="1117"/>
      <point x="872" y="962"/>
      <point x="872" y="780" type="qcurve" smooth="yes"/>
      <point x="872" y="350" type="line"/>
      <point x="826" y="350" type="line"/>
      <point x="826" y="794" type="line" smooth="yes"/>
      <point x="826" y="934"/>
      <point x="709" y="1070"/>
      <point x="576" y="1070" type="qcurve" smooth="yes"/>
      <point x="264" y="1070" type="line"/>
      <point x="264" y="0" type="line"/>
      <point x="218" y="0" type="line"/>
    </contour>
    <contour>
      <point x="520" y="0" type="line"/>
      <point x="520" y="768" type="line"/>
      <point x="568" y="768" type="line"/>
      <point x="568" y="46" type="line"/>
      <point x="878" y="46" type="line"/>
      <point x="1011" y="47"/>
      <point x="1128" y="183"/>
      <point x="1128" y="322" type="qcurve" smooth="yes"/>
      <point x="1128" y="1108" type="line"/>
      <point x="1176" y="1108" type="line"/>
      <point x="1176" y="338" type="line"/>
      <point x="1175" y="155"/>
      <point x="1020" y="0"/>
      <point x="866" y="0" type="qcurve" smooth="yes"/>
    </contour>
  </outline>
</glyph>
<glyph name="Euro" format="2">
  <advance width="1406"/>
  <unicode hex="20AC"/>
  <outline>
    <contour>
      <point x="1036" y="930" type="line"/>
      <point x="1012" y="884" type="line"/>
      <point x="70" y="884" type="line"/>
      <point x="94" y="930" type="line"/>
    </contour>
    <contour>
      <point x="884" y="606" type="line"/>
      <point x="862" y="558" type="line"/>
      <point x="70" y="558" type="line"/>
      <point x="94" y="606" type="line"/>
    </contour>
    <contour>
      <point x="1230" y="1350" type="qcurve"/>
      <point x="1210" y="1306" type="line"/>
      <point x="1162" y="1357"/>
      <point x="1046" y="1428"/>
      <point x="915" y="1464"/>
      <point x="844" y="1464" type="qcurve" smooth="yes"/>
      <point x="678" y="1464"/>
      <point x="424" y="1280"/>
      <point x="280" y="956"/>
      <point x="280" y="744" type="qcurve" smooth="yes"/>
      <point x="280" y="534"/>
      <point x="424" y="210"/>
      <point x="678" y="26"/>
      <point x="844" y="26" type="qcurve" smooth="yes"/>
      <point x="915" y="26"/>
      <point x="1042" y="61"/>
      <point x="1156" y="130"/>
      <point x="1204" y="180" type="qcurve"/>
      <point x="1224" y="134" type="line"/>
      <point x="1149" y="61"/>
      <point x="956" y="-20"/>
      <point x="844" y="-20" type="qcurve" smooth="yes"/>
      <point x="665" y="-20"/>
      <point x="389" y="176"/>
      <point x="232" y="521"/>
      <point x="232" y="744" type="qcurve" smooth="yes"/>
      <point x="232" y="969"/>
      <point x="389" y="1314"/>
      <point x="665" y="1510"/>
      <point x="844" y="1510" type="qcurve" smooth="yes"/>
      <point x="960" y="1510"/>
      <point x="1154" y="1427"/>
    </contour>
  </outline>
</glyph>
<glyph name="uni20B5" format="2">
  <advance width="1480"/>
  <unicode hex="20B5"/>
  <anchor x="765" y="1490" name="m.uni030F_1"/>
  <anchor x="748" y="1" name="m.uni0327_3"/>
  <outline>
    <contour>
      <point x="718" y="-186" type="line"/>
      <point x="718" y="1676" type="line"/>
      <point x="766" y="1676" type="line"/>
      <point x="766" y="-186" type="line"/>
    </contour>
    <contour>
      <point x="766" y="-20" type="qcurve" smooth="yes"/>
      <point x="583" y="-20"/>
      <point x="304" y="172"/>
      <point x="148" y="516"/>
      <point x="148" y="744" type="qcurve" smooth="yes"/>
      <point x="148" y="973"/>
      <point x="304" y="1317"/>
      <point x="583" y="1510"/>
      <point x="766" y="1510" type="qcurve" smooth="yes"/>
      <point x="897" y="1510"/>
      <point x="1098" y="1420"/>
      <point x="1239" y="1274"/>
      <point x="1322" y="1104"/>
      <point x="1336" y="1024" type="qcurve"/>
      <point x="1289" y="1024" type="line"/>
      <point x="1274" y="1101"/>
      <point x="1194" y="1256"/>
      <point x="1063" y="1385"/>
      <point x="882" y="1464"/>
      <point x="766" y="1464" type="qcurve" smooth="yes"/>
      <point x="613" y="1464"/>
      <point x="353" y="1297"/>
      <point x="194" y="976"/>
      <point x="194" y="744" type="qcurve" smooth="yes"/>
      <point x="194" y="510"/>
      <point x="353" y="190"/>
      <point x="613" y="26"/>
      <point x="766" y="26" type="qcurve" smooth="yes"/>
      <point x="882" y="26"/>
      <point x="1063" y="105"/>
      <point x="1193" y="235"/>
      <point x="1274" y="390"/>
      <point x="1289" y="466" type="qcurve"/>
      <point x="1336" y="466" type="line"/>
      <point x="1322" y="387"/>
      <point x="1239" y="217"/>
      <point x="1098" y="71"/>
      <point x="897" y="-20"/>
    </contour>
  </outline>
</glyph>
<glyph name="uni20B6" format="2">
  <advance width="882"/>
  <unicode hex="20B6"/>
  <outline>
    <contour>
      <point x="824" y="1074" type="line"/>
      <point x="824" y="1026" type="line"/>
      <point x="46" y="1026" type="line"/>
      <point x="46" y="1074" type="line"/>
    </contour>
    <contour>
      <point x="544" y="1384" type="line"/>
      <point x="590" y="1384" type="line"/>
      <point x="590" y="206" type="line"/>
      <point x="591" y="119"/>
      <point x="670" y="26"/>
      <point x="744" y="26" type="qcurve" smooth="yes"/>
      <point x="764" y="26"/>
      <point x="808" y="33"/>
      <point x="824" y="38" type="qcurve"/>
      <point x="824" y="-10" type="line"/>
      <point x="807" y="-15"/>
      <point x="766" y="-20"/>
      <point x="746" y="-20" type="qcurve" smooth="yes"/>
      <point x="683" y="-20"/>
      <point x="593" y="34"/>
      <point x="544" y="136"/>
      <point x="544" y="206" type="qcurve" smooth="yes"/>
    </contour>
    <contour>
      <point x="258" y="1490" type="line"/>
      <point x="258" y="0" type="line"/>
      <point x="212" y="0" type="line"/>
      <point x="212" y="1490" type="line"/>
    </contour>
  </outline>
</glyph>
<glyph name="uni20BC" format="2">
  <advance width="1392"/>
  <unicode hex="20BC"/>
  <outline>
    <contour>
      <point x="1216" y="0" type="line"/>
      <point x="1170" y="0" type="line"/>
      <point x="1170" y="198" type="line" smooth="yes"/>
      <point x="1170" y="413"/>
      <point x="1045" y="691"/>
      <point x="830" y="826"/>
      <point x="694" y="826" type="qcurve" smooth="yes"/>
      <point x="558" y="826"/>
      <point x="343" y="691"/>
      <point x="218" y="413"/>
      <point x="218" y="198" type="qcurve" smooth="yes"/>
      <point x="218" y="0" type="line"/>
      <point x="172" y="0" type="line"/>
      <point x="172" y="200" type="line"/>
      <point x="173" y="420"/>
      <point x="304" y="719"/>
      <point x="539" y="872"/>
      <point x="694" y="872" type="qcurve" smooth="yes"/>
      <point x="849" y="872"/>
      <point x="1084" y="719"/>
      <point x="1216" y="420"/>
      <point x="1216" y="200" type="qcurve" smooth="yes"/>
    </contour>
    <contour>
      <point x="718" y="1118" type="line"/>
      <point x="718" y="0" type="line"/>
      <point x="670" y="0" type="line"/>
      <point x="670" y="1118" type="line"/>
    </contour>
  </outline>
</glyph>
<glyph name="uni2116" format="2">
  <advance width="2200"/>
  <unicode hex="2116"/>
  <outline>
    <contour>
      <point x="232" y="0" type="line"/>
      <point x="232" y="1490" type="line"/>
      <point x="314" y="1490" type="line"/>
      <point x="1122" y="46" type="line"/>
      <point x="1128" y="46" type="line"/>
      <point x="1128" y="1490" type="line"/>
      <point x="1176" y="1490" type="line"/>
      <point x="1176" y="0" type="line"/>
      <point x="1094" y="0" type="line"/>
      <point x="286" y="1442" type="line"/>
      <point x="280" y="1442" type="line"/>
      <point x="280" y="0" type="line"/>
    </contour>
    <contour>
      <point x="1344" y="510" type="line"/>
      <point x="1344" y="556" type="line"/>
      <point x="1970" y="556" type="line"/>
      <point x="1970" y="510" type="line"/>
    </contour>
    <contour>
      <point x="1652" y="728" type="qcurve"/>
      <point x="1554" y="729"/>
      <point x="1403" y="816"/>
      <point x="1318" y="982"/>
      <point x="1318" y="1100" type="qcurve" smooth="yes"/>
      <point x="1318" y="1146" type="line" smooth="yes"/>
      <point x="1318" y="1263"/>
      <point x="1403" y="1429"/>
      <point x="1555" y="1516"/>
      <point x="1654" y="1516" type="qcurve"/>
      <point x="1754" y="1515"/>
      <point x="1905" y="1428"/>
      <point x="1990" y="1264"/>
      <point x="1990" y="1146" type="qcurve" smooth="yes"/>
      <point x="1990" y="1100" type="line" smooth="yes"/>
      <point x="1990" y="982"/>
      <point x="1905" y="816"/>
      <point x="1753" y="729"/>
    </contour>
    <contour>
      <point x="1654" y="776" type="qcurve"/>
      <point x="1779" y="775"/>
      <point x="1944" y="936"/>
      <point x="1944" y="1084" type="qcurve" smooth="yes"/>
      <point x="1944" y="1162" type="line"/>
      <point x="1943" y="1308"/>
      <point x="1779" y="1470"/>
      <point x="1656" y="1470" type="qcurve"/>
      <point x="1530" y="1469"/>
      <point x="1364" y="1308"/>
      <point x="1364" y="1162" type="qcurve" smooth="yes"/>
      <point x="1364" y="1084" type="line" smooth="yes"/>
      <point x="1364" y="938"/>
      <point x="1530" y="775"/>
    </contour>
  </outline>
</glyph>
<glyph name="Rx" format="2">
  <advance width="1196"/>
  <unicode hex="211E"/>
  <outline>
    <contour>
      <point x="232" y="1490" type="line"/>
      <point x="670" y="1490" type="line" smooth="yes"/>
      <point x="795" y="1490"/>
      <point x="987" y="1384"/>
      <point x="1096" y="1193"/>
      <point x="1096" y="1064" type="qcurve" smooth="yes"/>
      <point x="1096" y="938"/>
      <point x="987" y="748"/>
      <point x="795" y="642"/>
      <point x="670" y="642" type="qcurve" smooth="yes"/>
      <point x="656" y="642" type="line"/>
      <point x="256" y="642" type="line"/>
      <point x="256" y="690" type="line"/>
      <point x="670" y="690" type="line" smooth="yes"/>
      <point x="782" y="690"/>
      <point x="953" y="782"/>
      <point x="1050" y="951"/>
      <point x="1050" y="1064" type="qcurve" smooth="yes"/>
      <point x="1050" y="1179"/>
      <point x="953" y="1348"/>
      <point x="782" y="1442"/>
      <point x="670" y="1442" type="qcurve" smooth="yes"/>
      <point x="280" y="1442" type="line"/>
      <point x="280" y="0" type="line"/>
      <point x="232" y="0" type="line"/>
    </contour>
    <contour>
      <point x="1118" y="0" type="line"/>
      <point x="622" y="678" type="line"/>
      <point x="678" y="678" type="line"/>
      <point x="1176" y="0" type="line"/>
    </contour>
    <contour>
      <point x="680" y="0" type="line"/>
      <point x="622" y="0" type="line"/>
      <point x="1118" y="680" type="line"/>
      <point x="1176" y="680" type="line"/>
    </contour>
  </outline>
</glyph>
<glyph name="uni2123" format="2">
  <advance width="1150"/>
  <unicode hex="2123"/>
  <outline>
    <contour>
      <point x="894" y="1566" type="line"/>
      <point x="126" y="-360" type="line"/>
      <point x="76" y="-360" type="line"/>
      <point x="838" y="1550" type="line"/>
      <point x="616" y="1720" type="line"/>
      <point x="642" y="1758" type="line"/>
    </contour>
    <contour>
      <point x="60" y="1490" type="line"/>
      <point x="572" y="58" type="line"/>
      <point x="578" y="58" type="line"/>
      <point x="1090" y="1490" type="line"/>
      <point x="1138" y="1490" type="line"/>
      <point x="606" y="0" type="line"/>
      <point x="542" y="0" type="line"/>
      <point x="10" y="1490" type="line"/>
    </contour>
  </outline>
</glyph>
<glyph name="estimated" format="2">
  <advance width="1200"/>
  <unicode hex="212E"/>
  <outline>
    <contour>
      <point x="974" y="198" type="qcurve"/>
      <point x="974" y="94" type="line"/>
      <point x="892" y="40"/>
      <point x="709" y="-20"/>
      <point x="616" y="-20" type="qcurve" smooth="yes"/>
      <point x="510" y="-20"/>
      <point x="325" y="68"/>
      <point x="186" y="223"/>
      <point x="108" y="426"/>
      <point x="108" y="542" type="qcurve" smooth="yes"/>
      <point x="108" y="657"/>
      <point x="194" y="860"/>
      <point x="339" y="1014"/>
      <point x="520" y="1102"/>
      <point x="616" y="1102" type="qcurve" smooth="yes"/>
      <point x="749" y="1102"/>
      <point x="966" y="962"/>
      <point x="1094" y="718"/>
      <point x="1094" y="562" type="qcurve" smooth="yes"/>
      <point x="1094" y="560"/>
      <point x="1094" y="541"/>
      <point x="1094" y="514" type="qcurve"/>
      <point x="352" y="514" type="line"/>
      <point x="352" y="186" type="line"/>
      <point x="402" y="136"/>
      <point x="537" y="76"/>
      <point x="616" y="76" type="qcurve" smooth="yes"/>
      <point x="707" y="76"/>
      <point x="888" y="134"/>
    </contour>
    <contour>
      <point x="616" y="1010" type="qcurve"/>
      <point x="543" y="1009"/>
      <point x="404" y="942"/>
      <point x="352" y="888" type="qcurve"/>
      <point x="352" y="608" type="line"/>
      <point x="876" y="608" type="line"/>
      <point x="876" y="896" type="line"/>
      <point x="825" y="949"/>
      <point x="689" y="1009"/>
    </contour>
  </outline>
</glyph>
<glyph name="Fturn" format="2">
  <advance width="1196"/>
  <unicode hex="2132"/>
  <anchor x="810" y="0" name="m.uni0326"/>
  <anchor x="1158" y="1490" name="m.uni030F_1"/>
  <outline>
    <contour>
      <point x="964" y="1490" type="line"/>
      <point x="964" y="0" type="line"/>
      <point x="166" y="0" type="line"/>
      <point x="166" y="46" type="line"/>
      <point x="918" y="46" type="line"/>
      <point x="918" y="722" type="line"/>
      <point x="236" y="722" type="line"/>
      <point x="236" y="768" type="line"/>
      <point x="918" y="768" type="line"/>
      <point x="918" y="1490" type="line"/>
    </contour>
  </outline>
</glyph>
<glyph name="uni214D" format="2">
  <advance width="1790"/>
  <unicode hex="214D"/>
  <outline>
    <contour>
      <point x="624" y="1024" type="line"/>
      <point x="624" y="978" type="line"/>
      <point x="200" y="978" type="line"/>
      <point x="200" y="1024" type="line"/>
    </contour>
    <contour>
      <point x="706" y="744" type="line"/>
      <point x="408" y="1442" type="line"/>
      <point x="414" y="1442" type="line"/>
      <point x="114" y="744" type="line"/>
      <point x="66" y="744" type="line"/>
      <point x="386" y="1490" type="line"/>
      <point x="438" y="1490" type="line"/>
      <point x="754" y="744" type="line"/>
    </contour>
    <contour>
      <point x="490" y="0" type="line"/>
      <point x="1510" y="1490" type="line"/>
      <point x="1566" y="1490" type="line"/>
      <point x="544" y="0" type="line"/>
    </contour>
    <contour>
      <point x="1696" y="584" type="qcurve"/>
      <point x="1656" y="572" type="line"/>
      <point x="1634" y="640"/>
      <point x="1538" y="712"/>
      <point x="1464" y="712" type="qcurve" smooth="yes"/>
      <point x="1381" y="712"/>
      <point x="1272" y="627"/>
      <point x="1272" y="558" type="qcurve" smooth="yes"/>
      <point x="1272" y="505"/>
      <point x="1339" y="428"/>
      <point x="1418" y="408" type="qcurve" smooth="yes"/>
      <point x="1534" y="380" type="line"/>
      <point x="1619" y="358"/>
      <point x="1706" y="258"/>
      <point x="1706" y="190" type="qcurve" smooth="yes"/>
      <point x="1706" y="130"/>
      <point x="1641" y="37"/>
      <point x="1526" y="-16"/>
      <point x="1450" y="-16" type="qcurve" smooth="yes"/>
      <point x="1347" y="-16"/>
      <point x="1219" y="81"/>
      <point x="1200" y="170" type="qcurve"/>
      <point x="1242" y="182" type="line"/>
      <point x="1258" y="110"/>
      <point x="1360" y="24"/>
      <point x="1450" y="24" type="qcurve" smooth="yes"/>
      <point x="1544" y="24"/>
      <point x="1658" y="116"/>
      <point x="1658" y="188" type="qcurve" smooth="yes"/>
      <point x="1658" y="243"/>
      <point x="1592" y="319"/>
      <point x="1522" y="336" type="qcurve" smooth="yes"/>
      <point x="1402" y="366" type="line" smooth="yes"/>
      <point x="1316" y="387"/>
      <point x="1226" y="484"/>
      <point x="1226" y="554" type="qcurve" smooth="yes"/>
      <point x="1226" y="644"/>
      <point x="1361" y="756"/>
      <point x="1464" y="756" type="qcurve" smooth="yes"/>
      <point x="1553" y="756"/>
      <point x="1671" y="667"/>
    </contour>
  </outline>
</glyph>
<glyph name="arrowleft" format="2">
  <advance width="1954"/>
  <unicode hex="2190"/>
  <outline>
    <contour>
      <point x="854" y="0" type="line"/>
      <point x="202" y="652" type="line"/>
      <point x="854" y="1304" type="line"/>
      <point x="887" y="1272" type="line"/>
      <point x="439" y="824" type="line" smooth="yes"/>
      <point x="412" y="797"/>
      <point x="351" y="741"/>
      <point x="289" y="686"/>
      <point x="259" y="659" type="qcurve"/>
      <point x="259" y="668" type="line"/>
      <point x="289" y="670"/>
      <point x="353" y="673"/>
      <point x="418" y="675"/>
      <point x="448" y="675" type="qcurve" smooth="yes"/>
      <point x="1698" y="675" type="line"/>
      <point x="1698" y="629" type="line"/>
      <point x="448" y="629" type="line" smooth="yes"/>
      <point x="418" y="629"/>
      <point x="353" y="630"/>
      <point x="289" y="632"/>
      <point x="259" y="634" type="qcurve"/>
      <point x="259" y="643" type="line"/>
      <point x="281" y="623"/>
      <point x="328" y="582"/>
      <point x="374" y="541"/>
      <point x="419" y="500"/>
      <point x="440" y="479" type="qcurve" smooth="yes"/>
      <point x="886" y="33" type="line"/>
    </contour>
  </outline>
</glyph>
<glyph name="arrowup" format="2">
  <advance width="1708"/>
  <unicode hex="2191"/>
  <outline>
    <contour>
      <point x="202" y="854" type="line"/>
      <point x="854" y="1506" type="line"/>
      <point x="1506" y="854" type="line"/>
      <point x="1474" y="820" type="line"/>
      <point x="1026" y="1268" type="line" smooth="yes"/>
      <point x="999" y="1296"/>
      <point x="943" y="1357"/>
      <point x="888" y="1420"/>
      <point x="861" y="1449" type="qcurve"/>
      <point x="870" y="1449" type="line"/>
      <point x="872" y="1419"/>
      <point x="875" y="1354"/>
      <point x="877" y="1290"/>
      <point x="877" y="1260" type="qcurve" smooth="yes"/>
      <point x="877" y="0" type="line"/>
      <point x="831" y="0" type="line"/>
      <point x="831" y="1260" type="line" smooth="yes"/>
      <point x="831" y="1290"/>
      <point x="832" y="1354"/>
      <point x="834" y="1419"/>
      <point x="836" y="1449" type="qcurve"/>
      <point x="845" y="1449" type="line"/>
      <point x="825" y="1427"/>
      <point x="784" y="1380"/>
      <point x="743" y="1334"/>
      <point x="702" y="1289"/>
      <point x="681" y="1268" type="qcurve" smooth="yes"/>
      <point x="236" y="820" type="line"/>
    </contour>
  </outline>
</glyph>
<glyph name="arrowdown" format="2">
  <advance width="1708"/>
  <unicode hex="2193"/>
  <outline>
    <contour>
      <point x="1506" y="636" type="line"/>
      <point x="854" y="-16" type="line"/>
      <point x="202" y="636" type="line"/>
      <point x="234" y="670" type="line"/>
      <point x="682" y="222" type="line" smooth="yes"/>
      <point x="710" y="195"/>
      <point x="765" y="133"/>
      <point x="821" y="71"/>
      <point x="847" y="41" type="qcurve"/>
      <point x="838" y="41" type="line"/>
      <point x="836" y="71"/>
      <point x="833" y="135"/>
      <point x="831" y="200"/>
      <point x="831" y="230" type="qcurve" smooth="yes"/>
      <point x="831" y="1490" type="line"/>
      <point x="877" y="1490" type="line"/>
      <point x="877" y="230" type="line" smooth="yes"/>
      <point x="877" y="200"/>
      <point x="876" y="135"/>
      <point x="874" y="71"/>
      <point x="872" y="41" type="qcurve"/>
      <point x="863" y="41" type="line"/>
      <point x="883" y="63"/>
      <point x="924" y="110"/>
      <point x="965" y="156"/>
      <point x="1006" y="201"/>
      <point x="1027" y="222" type="qcurve" smooth="yes"/>
      <point x="1472" y="670" type="line"/>
    </contour>
  </outline>
</glyph>
<glyph name="arrowupdn" format="2">
  <advance width="1708"/>
  <unicode hex="2195"/>
  <outline>
    <contour>
      <point x="854" y="-519" type="line"/>
      <point x="202" y="133" type="line"/>
      <point x="236" y="167" type="line"/>
      <point x="681" y="-281" type="line" smooth="yes"/>
      <point x="702" y="-302"/>
      <point x="743" y="-347"/>
      <point x="784" y="-393"/>
      <point x="825" y="-440"/>
      <point x="845" y="-462" type="qcurve"/>
      <point x="836" y="-462" type="line"/>
      <point x="834" y="-432"/>
      <point x="832" y="-367"/>
      <point x="831" y="-303"/>
      <point x="831" y="-273" type="qcurve" smooth="yes"/>
      <point x="831" y="1577" type="line" smooth="yes"/>
      <point x="831" y="1607"/>
      <point x="832" y="1671"/>
      <point x="834" y="1736"/>
      <point x="836" y="1766" type="qcurve"/>
      <point x="845" y="1766" type="line"/>
      <point x="825" y="1744"/>
      <point x="784" y="1697"/>
      <point x="743" y="1651"/>
      <point x="702" y="1606"/>
      <point x="681" y="1585" type="qcurve" smooth="yes"/>
      <point x="236" y="1137" type="line"/>
      <point x="202" y="1171" type="line"/>
      <point x="854" y="1823" type="line"/>
      <point x="1506" y="1171" type="line"/>
      <point x="1474" y="1137" type="line"/>
      <point x="1026" y="1585" type="line" smooth="yes"/>
      <point x="999" y="1613"/>
      <point x="943" y="1674"/>
      <point x="888" y="1737"/>
      <point x="861" y="1766" type="qcurve"/>
      <point x="870" y="1766" type="line"/>
      <point x="872" y="1736"/>
      <point x="875" y="1671"/>
      <point x="877" y="1607"/>
      <point x="877" y="1577" type="qcurve" smooth="yes"/>
      <point x="877" y="-273" type="line" smooth="yes"/>
      <point x="877" y="-303"/>
      <point x="875" y="-367"/>
      <point x="872" y="-432"/>
      <point x="870" y="-462" type="qcurve"/>
      <point x="861" y="-462" type="line"/>
      <point x="888" y="-432"/>
      <point x="943" y="-370"/>
      <point x="999" y="-308"/>
      <point x="1026" y="-281" type="qcurve" smooth="yes"/>
      <point x="1474" y="167" type="line"/>
      <point x="1506" y="133" type="line"/>
    </contour>
  </outline>
</glyph>
<glyph name="uni2196" format="2">
  <advance width="1524"/>
  <unicode hex="2196"/>
  <outline>
    <contour>
      <point x="240" y="196" type="line"/>
      <point x="240" y="1118" type="line"/>
      <point x="1162" y="1118" type="line"/>
      <point x="1162" y="1072" type="line"/>
      <point x="529" y="1072" type="line" smooth="yes"/>
      <point x="491" y="1072"/>
      <point x="408" y="1075"/>
      <point x="325" y="1081"/>
      <point x="285" y="1083" type="qcurve"/>
      <point x="292" y="1089" type="line"/>
      <point x="315" y="1069"/>
      <point x="362" y="1026"/>
      <point x="409" y="982"/>
      <point x="430" y="960" type="qcurve" smooth="yes"/>
      <point x="1314" y="76" type="line"/>
      <point x="1282" y="44" type="line"/>
      <point x="398" y="928" type="line" smooth="yes"/>
      <point x="377" y="950"/>
      <point x="331" y="996"/>
      <point x="288" y="1043"/>
      <point x="268" y="1065" type="qcurve"/>
      <point x="274" y="1071" type="line"/>
      <point x="276" y="1041"/>
      <point x="280" y="980"/>
      <point x="283" y="918"/>
      <point x="286" y="856"/>
      <point x="286" y="827" type="qcurve" smooth="yes"/>
      <point x="286" y="196" type="line"/>
    </contour>
  </outline>
</glyph>
<glyph name="uni2198" format="2">
  <advance width="1524"/>
  <unicode hex="2198"/>
  <outline>
    <contour>
      <point x="1284" y="922" type="line"/>
      <point x="1284" y="0" type="line"/>
      <point x="362" y="0" type="line"/>
      <point x="362" y="46" type="line"/>
      <point x="995" y="46" type="line" smooth="yes"/>
      <point x="1034" y="46"/>
      <point x="1116" y="43"/>
      <point x="1199" y="38"/>
      <point x="1239" y="35" type="qcurve"/>
      <point x="1232" y="29" type="line"/>
      <point x="1210" y="49"/>
      <point x="1162" y="92"/>
      <point x="1116" y="137"/>
      <point x="1094" y="158" type="qcurve" smooth="yes"/>
      <point x="210" y="1042" type="line"/>
      <point x="242" y="1074" type="line"/>
      <point x="1126" y="190" type="line" smooth="yes"/>
      <point x="1148" y="169"/>
      <point x="1193" y="122"/>
      <point x="1237" y="76"/>
      <point x="1256" y="53" type="qcurve"/>
      <point x="1250" y="47" type="line"/>
      <point x="1249" y="77"/>
      <point x="1244" y="138"/>
      <point x="1241" y="200"/>
      <point x="1238" y="262"/>
      <point x="1238" y="291" type="qcurve" smooth="yes"/>
      <point x="1238" y="922" type="line"/>
    </contour>
  </outline>
</glyph>
<glyph name="uni2199" format="2">
  <advance width="1524"/>
  <unicode hex="2199"/>
  <outline>
    <contour>
      <point x="240" y="922" type="line"/>
      <point x="286" y="922" type="line"/>
      <point x="286" y="291" type="line" smooth="yes"/>
      <point x="286" y="262"/>
      <point x="283" y="200"/>
      <point x="280" y="138"/>
      <point x="276" y="77"/>
      <point x="274" y="47" type="qcurve"/>
      <point x="268" y="53" type="line"/>
      <point x="288" y="76"/>
      <point x="331" y="122"/>
      <point x="377" y="169"/>
      <point x="398" y="190" type="qcurve" smooth="yes"/>
      <point x="1282" y="1074" type="line"/>
      <point x="1314" y="1042" type="line"/>
      <point x="430" y="158" type="line" smooth="yes"/>
      <point x="409" y="137"/>
      <point x="362" y="92"/>
      <point x="315" y="49"/>
      <point x="292" y="29" type="qcurve"/>
      <point x="285" y="35" type="line"/>
      <point x="325" y="38"/>
      <point x="408" y="43"/>
      <point x="491" y="46"/>
      <point x="529" y="46" type="qcurve" smooth="yes"/>
      <point x="1162" y="46" type="line"/>
      <point x="1162" y="0" type="line"/>
      <point x="240" y="0" type="line"/>
    </contour>
  </outline>
</glyph>
<glyph name="uni21BA" format="2">
  <advance width="1954"/>
  <unicode hex="21BA"/>
  <outline>
    <contour>
      <point x="978" y="1442" type="qcurve"/>
      <point x="978" y="1490" type="line"/>
      <point x="1133" y="1490"/>
      <point x="1402" y="1374"/>
      <point x="1607" y="1169"/>
      <point x="1722" y="899"/>
      <point x="1722" y="744" type="qcurve" smooth="yes"/>
      <point x="1722" y="590"/>
      <point x="1607" y="320"/>
      <point x="1402" y="116"/>
      <point x="1133" y="0"/>
      <point x="978" y="0" type="qcurve" smooth="yes"/>
      <point x="824" y="0"/>
      <point x="554" y="116"/>
      <point x="348" y="320"/>
      <point x="232" y="590"/>
      <point x="232" y="744" type="qcurve"/>
      <point x="280" y="744" type="line"/>
      <point x="280" y="600"/>
      <point x="388" y="347"/>
      <point x="579" y="155"/>
      <point x="833" y="46"/>
      <point x="978" y="46" type="qcurve" smooth="yes"/>
      <point x="1123" y="46"/>
      <point x="1376" y="155"/>
      <point x="1568" y="347"/>
      <point x="1676" y="600"/>
      <point x="1676" y="744" type="qcurve" smooth="yes"/>
      <point x="1676" y="889"/>
      <point x="1568" y="1143"/>
      <point x="1376" y="1334"/>
      <point x="1123" y="1442"/>
    </contour>
    <contour>
      <point x="1024" y="1096" type="line"/>
      <point x="636" y="1456" type="line"/>
      <point x="1024" y="1816" type="line"/>
    </contour>
  </outline>
</glyph>
